<svg width="811" height="220" viewBox="0 0 811 220" fill="none" xmlns="http://www.w3.org/2000/svg">
<path d="M95.6797 111.408C95.6797 108.967 95.8262 106.525 96.1191 104.084C96.5098 101.643 96.9004 99.25 97.291 96.9062C97.7793 94.4648 98.1699 92.0234 98.4629 89.582C98.8535 87.043 99.0488 84.5039 99.0488 81.9648C95.8262 81.9648 93.043 82.1113 90.6992 82.4043C88.3555 82.6973 86.0605 82.9902 83.8145 83.2832C81.5684 83.5762 79.1758 83.8203 76.6367 84.0156C74.0977 84.1133 71.0215 84.0645 67.4082 83.8691C64.7715 86.7988 61.7441 89.9238 58.3262 93.2441C55.0059 96.5645 51.4414 99.6406 47.6328 102.473C43.8242 105.305 39.8203 107.697 35.6211 109.65C31.4219 111.506 27.1738 112.434 22.877 112.434C19.9473 112.434 17.1152 111.945 14.3809 110.969C11.7441 109.992 9.40039 108.625 7.34961 106.867C5.29883 105.109 3.6875 103.01 2.51562 100.568C1.34375 98.0293 0.757812 95.2461 0.757812 92.2188C0.757812 90.6562 1.00195 89.4844 1.49023 88.7031C2.07617 87.8242 3.24805 87.3848 5.00586 87.3848C5.88477 87.3848 6.66602 88.2148 7.34961 89.875C8.0332 91.4375 8.91211 93.2441 9.98633 95.2949C11.1582 97.248 12.623 99.0547 14.3809 100.715C16.1387 102.277 18.5312 103.059 21.5586 103.059C25.2695 103.059 28.8828 102.375 32.3984 101.008C36.0117 99.543 39.4297 97.7363 42.6523 95.5879C45.9727 93.3418 49.0488 90.8516 51.8809 88.1172C54.8105 85.3828 57.4473 82.6973 59.791 80.0605C59.498 77.6191 58.6191 75.8125 57.1543 74.6406C55.6895 73.4688 54.127 72.2969 52.4668 71.125C50.9043 69.9531 49.4883 68.3906 48.2188 66.4375C46.9492 64.4844 46.3145 61.4082 46.3145 57.209C46.3145 51.252 48.1211 46.6133 51.7344 43.293C55.3477 39.875 60.2793 38.166 66.5293 38.166C68.3848 38.166 70.1914 38.3613 71.9492 38.752C73.8047 39.1426 75.6602 39.6309 77.5156 40.2168C79.3711 40.7051 81.1777 41.1445 82.9355 41.5352C84.791 41.9258 86.6465 42.1211 88.502 42.1211C89.6738 42.1211 90.6016 41.9746 91.2852 41.6816C92.0664 41.3887 92.75 40.9492 93.3359 40.3633C93.9219 39.7773 94.5566 38.9961 95.2402 38.0195C95.9238 37.043 96.8027 35.8711 97.877 34.5039C98.4629 33.7227 99.3418 32.502 100.514 30.8418C101.783 29.084 103.15 27.1797 104.615 25.1289C106.08 22.9805 107.643 20.7344 109.303 18.3906C110.963 16.0469 112.525 13.8008 113.99 11.6523C115.455 9.50391 116.773 7.59961 117.945 5.93945C119.117 4.2793 119.947 3.00977 120.436 2.13086C121.51 1.25195 122.486 0.714844 123.365 0.519531C124.244 0.226562 125.27 0.0800781 126.441 0.0800781C127.613 0.0800781 128.492 0.519531 129.078 1.39844C129.664 2.17969 130.006 3.15625 130.104 4.32812C130.299 5.5 130.348 6.7207 130.25 7.99023C130.25 9.16211 130.25 10.0898 130.25 10.7734C130.25 11.0664 130.25 11.5547 130.25 12.2383C130.25 12.8242 130.201 13.459 130.104 14.1426C130.104 14.8262 130.104 15.5098 130.104 16.1934C130.104 16.7793 130.104 17.1699 130.104 17.3652C129.811 18.3418 129.322 19.8066 128.639 21.7598C128.053 23.7129 127.369 25.959 126.588 28.498C125.807 30.9395 124.977 33.5273 124.098 36.2617C123.316 38.9961 122.535 41.6328 121.754 44.1719C121.07 46.7109 120.436 48.957 119.85 50.9102C119.264 52.8633 118.873 54.3281 118.678 55.3047C118.58 55.793 118.434 56.5742 118.238 57.6484C118.043 58.7227 117.848 59.8945 117.652 61.1641C117.457 62.3359 117.262 63.459 117.066 64.5332C116.871 65.6074 116.773 66.3398 116.773 66.7305C117.652 66.9258 118.531 67.2188 119.41 67.6094C120.289 68 120.729 68.6348 120.729 69.5137C120.729 70.4902 120.338 71.2715 119.557 71.8574C118.873 72.4434 118.043 72.9805 117.066 73.4688C116.09 73.957 115.162 74.543 114.283 75.2266C113.502 75.9102 113.062 76.8867 112.965 78.1562C112.77 79.3281 112.428 81.4766 111.939 84.6016C111.451 87.6289 110.865 90.9004 110.182 94.416C109.596 97.834 109.01 101.057 108.424 104.084C107.936 107.111 107.545 109.211 107.252 110.383C107.154 110.676 106.959 111.213 106.666 111.994C106.373 112.775 106.031 113.557 105.641 114.338C105.25 115.119 104.859 115.852 104.469 116.535C104.078 117.219 103.785 117.707 103.59 118C101.246 117.512 99.3418 116.926 97.877 116.242C96.4121 115.461 95.6797 113.85 95.6797 111.408ZM93.1895 55.1582C92.0176 55.1582 90.3574 55.9883 88.209 57.6484C86.1582 59.3086 84.1074 61.2617 82.0566 63.5078C80.0059 65.6562 78.1992 67.8535 76.6367 70.0996C75.0742 72.248 74.293 73.8594 74.293 74.9336C74.8789 74.9336 76.002 74.9336 77.6621 74.9336C79.4199 74.8359 81.2266 74.7871 83.082 74.7871C85.0352 74.6895 86.8418 74.5918 88.502 74.4941C90.2598 74.3965 91.4805 74.3477 92.1641 74.3477C92.5547 74.3477 93.1406 74.25 93.9219 74.0547C94.8008 73.8594 95.6309 73.6641 96.4121 73.4688C97.1934 73.2734 97.877 73.0781 98.4629 72.8828C99.1465 72.6875 99.5371 72.541 99.6348 72.4434C99.7324 72.4434 99.7812 72.1504 99.7812 71.5645C99.7812 70.8809 99.7812 70.3438 99.7812 69.9531C99.7812 69.1719 99.6348 67.9512 99.3418 66.291C99.1465 64.6309 98.7559 62.9707 98.1699 61.3105C97.6816 59.6504 96.998 58.2344 96.1191 57.0625C95.3379 55.793 94.3613 55.1582 93.1895 55.1582ZM52.0273 55.3047C52.0273 56.6719 52.5156 58.2344 53.4922 59.9922C54.4688 61.75 55.6895 63.4102 57.1543 64.9727C58.6191 66.5352 60.1816 67.8535 61.8418 68.9277C63.502 70.002 65.0645 70.5391 66.5293 70.5391C67.8965 70.5391 69.5078 69.709 71.3633 68.0488C73.2188 66.3887 74.9766 64.4844 76.6367 62.3359C78.3945 60.0898 79.8594 57.9414 81.0312 55.8906C82.2031 53.8398 82.7891 52.4238 82.7891 51.6426C82.7891 49.9824 82.2031 48.7617 81.0312 47.9805C79.957 47.1016 78.6387 46.5156 77.0762 46.2227C75.6113 45.832 74.0488 45.6367 72.3887 45.6367C70.7285 45.6367 69.3613 45.6367 68.2871 45.6367C66.9199 45.6367 65.2598 45.7832 63.3066 46.0762C61.4512 46.2715 59.6934 46.7109 58.0332 47.3945C56.373 48.0781 54.957 49.0547 53.7852 50.3242C52.6133 51.5938 52.0273 53.2539 52.0273 55.3047ZM95.9727 47.834C98.1211 50.373 100.123 53.1074 101.979 56.0371C103.834 58.9668 105.592 61.9453 107.252 64.9727L120.289 18.0977L95.9727 47.834ZM131.275 111.408C131.275 110.529 131.275 109.846 131.275 109.357C131.275 108.869 131.324 108.43 131.422 108.039C131.617 107.551 131.861 107.062 132.154 106.574C132.447 106.086 132.838 105.451 133.326 104.67C134.107 103.303 135.572 100.91 137.721 97.4922C139.869 94.0742 142.164 90.4609 144.605 86.6523C147.047 82.8438 149.342 79.2305 151.49 75.8125C153.736 72.3945 155.299 70.002 156.178 68.6348C156.275 68.5371 156.52 68.4883 156.91 68.4883C157.398 68.4883 157.74 68.4883 157.936 68.4883C158.131 68.4883 158.473 68.4883 158.961 68.4883C159.449 68.4883 159.742 68.5371 159.84 68.6348C159.938 68.7324 160.133 68.9766 160.426 69.3672C160.816 69.7578 161.207 70.1973 161.598 70.6855C162.086 71.0762 162.477 71.4668 162.77 71.8574C163.16 72.248 163.453 72.4434 163.648 72.4434C164.527 72.4434 165.455 72.1504 166.432 71.5645C167.408 70.9785 168.385 70.3438 169.361 69.6602C170.436 68.8789 171.51 68.1953 172.584 67.6094C173.658 67.0234 174.781 66.7305 175.953 66.7305C177.223 66.7305 178.395 67.0234 179.469 67.6094C180.543 68.1953 181.471 68.9277 182.252 69.8066C183.033 70.6855 183.619 71.6621 184.01 72.7363C184.498 73.8105 184.742 74.8848 184.742 75.959C184.742 78.2051 184.4 80.3535 183.717 82.4043C183.131 84.4551 182.447 86.5059 181.666 88.5566C180.885 90.5098 180.152 92.5117 179.469 94.5625C178.883 96.5156 178.59 98.5664 178.59 100.715C178.59 102.863 178.834 104.426 179.322 105.402C179.811 106.281 181.178 106.721 183.424 106.721C186.061 106.721 188.551 106.33 190.895 105.549C193.336 104.768 195.826 104.377 198.365 104.377C198.365 106.721 197.633 108.674 196.168 110.236C194.801 111.799 193.043 113.068 190.895 114.045C188.844 114.924 186.598 115.559 184.156 115.949C181.812 116.242 179.664 116.389 177.711 116.389C174 116.389 171.266 115.363 169.508 113.312C167.848 111.164 167.018 108.332 167.018 104.816C167.018 102.473 167.408 100.275 168.189 98.2246C169.068 96.1738 169.996 94.1719 170.973 92.2188C172.047 90.2656 173.023 88.3125 173.902 86.3594C174.781 84.4062 175.221 82.3066 175.221 80.0605C175.221 79.4746 175.123 78.6934 174.928 77.7168C174.732 76.7402 174.098 76.252 173.023 76.252C169.801 76.252 166.871 77.2773 164.234 79.3281C161.695 81.3789 159.352 83.9668 157.203 87.0918C155.152 90.2168 153.248 93.5859 151.49 97.1992C149.83 100.812 148.219 104.182 146.656 107.307C145.191 110.432 143.775 113.02 142.408 115.07C141.041 117.121 139.625 118.146 138.16 118.146C136.109 118.146 134.449 117.512 133.18 116.242C131.91 114.973 131.275 113.361 131.275 111.408ZM196.461 111.408C196.461 110.529 196.461 109.846 196.461 109.357C196.461 108.869 196.51 108.43 196.607 108.039C196.803 107.551 197.047 107.062 197.34 106.574C197.633 106.086 198.023 105.451 198.512 104.67C199.293 103.303 200.758 100.91 202.906 97.4922C205.055 94.0742 207.35 90.4609 209.791 86.6523C212.232 82.8438 214.527 79.2305 216.676 75.8125C218.922 72.3945 220.484 70.002 221.363 68.6348C221.461 68.5371 221.705 68.4883 222.096 68.4883C222.584 68.4883 222.926 68.4883 223.121 68.4883C223.316 68.4883 223.658 68.4883 224.146 68.4883C224.635 68.4883 224.928 68.5371 225.025 68.6348C225.123 68.7324 225.318 68.9766 225.611 69.3672C226.002 69.7578 226.393 70.1973 226.783 70.6855C227.271 71.0762 227.662 71.4668 227.955 71.8574C228.346 72.248 228.639 72.4434 228.834 72.4434C229.713 72.4434 230.641 72.1504 231.617 71.5645C232.594 70.9785 233.57 70.3438 234.547 69.6602C235.621 68.8789 236.695 68.1953 237.77 67.6094C238.844 67.0234 239.967 66.7305 241.139 66.7305C242.408 66.7305 243.58 67.0234 244.654 67.6094C245.729 68.1953 246.656 68.9277 247.438 69.8066C248.219 70.6855 248.805 71.6621 249.195 72.7363C249.684 73.8105 249.928 74.8848 249.928 75.959C249.928 78.2051 249.586 80.3535 248.902 82.4043C248.316 84.4551 247.633 86.5059 246.852 88.5566C246.07 90.5098 245.338 92.5117 244.654 94.5625C244.068 96.5156 243.775 98.5664 243.775 100.715C243.775 102.863 244.02 104.426 244.508 105.402C244.996 106.281 246.363 106.721 248.609 106.721C251.246 106.721 253.736 106.33 256.08 105.549C258.521 104.768 261.012 104.377 263.551 104.377C263.551 106.721 262.818 108.674 261.354 110.236C259.986 111.799 258.229 113.068 256.08 114.045C254.029 114.924 251.783 115.559 249.342 115.949C246.998 116.242 244.85 116.389 242.896 116.389C239.186 116.389 236.451 115.363 234.693 113.312C233.033 111.164 232.203 108.332 232.203 104.816C232.203 102.473 232.594 100.275 233.375 98.2246C234.254 96.1738 235.182 94.1719 236.158 92.2188C237.232 90.2656 238.209 88.3125 239.088 86.3594C239.967 84.4062 240.406 82.3066 240.406 80.0605C240.406 79.4746 240.309 78.6934 240.113 77.7168C239.918 76.7402 239.283 76.252 238.209 76.252C234.986 76.252 232.057 77.2773 229.42 79.3281C226.881 81.3789 224.537 83.9668 222.389 87.0918C220.338 90.2168 218.434 93.5859 216.676 97.1992C215.016 100.812 213.404 104.182 211.842 107.307C210.377 110.432 208.961 113.02 207.594 115.07C206.227 117.121 204.811 118.146 203.346 118.146C201.295 118.146 199.635 117.512 198.365 116.242C197.096 114.973 196.461 113.361 196.461 111.408ZM250.074 162.238C253.199 157.16 256.812 152.619 260.914 148.615C265.016 144.709 269.215 140.998 273.512 137.482C277.906 133.967 282.252 130.549 286.549 127.229C290.846 123.908 294.801 120.344 298.414 116.535C302.125 112.727 305.299 108.527 307.936 103.938C310.572 99.25 312.379 93.8301 313.355 87.6777C313.355 87.4824 313.307 87.1895 313.209 86.7988C313.209 86.3105 313.209 85.9688 313.209 85.7734C310.963 88.4102 308.229 91.3887 305.006 94.709C301.881 98.0293 298.463 101.154 294.752 104.084C291.139 107.014 287.33 109.455 283.326 111.408C279.322 113.361 275.416 114.338 271.607 114.338C270.631 114.338 269.361 114.289 267.799 114.191C266.334 113.996 264.869 113.654 263.404 113.166C261.939 112.678 260.67 111.994 259.596 111.115C258.521 110.236 257.984 109.064 257.984 107.6C257.984 106.33 258.326 104.377 259.01 101.74C259.693 99.1035 260.621 96.1738 261.793 92.9512C262.965 89.7285 264.283 86.457 265.748 83.1367C267.213 79.8164 268.775 76.7891 270.436 74.0547C272.096 71.3203 273.707 69.0742 275.27 67.3164C276.93 65.5586 278.443 64.6797 279.811 64.6797C281.178 64.6797 282.35 64.9727 283.326 65.5586C284.303 66.1445 284.791 67.1211 284.791 68.4883C284.791 70.9297 283.912 73.3711 282.154 75.8125C280.396 78.2539 278.492 80.8906 276.441 83.7227C274.391 86.457 272.486 89.4355 270.729 92.6582C268.971 95.8809 268.092 99.543 268.092 103.645C274.537 103.645 280.348 102.326 285.523 99.6895C290.699 96.9551 295.387 93.5859 299.586 89.582C303.785 85.5781 307.496 81.2324 310.719 76.5449C313.941 71.8574 316.773 67.5117 319.215 63.5078C321.754 59.5039 323.902 56.1836 325.66 53.5469C327.516 50.8125 329.078 49.4453 330.348 49.4453C332.203 49.4453 333.277 50.0312 333.57 51.2031C333.961 52.2773 334.156 53.6445 334.156 55.3047C333.277 58.332 332.057 61.8965 330.494 65.998C328.932 70.002 327.32 74.25 325.66 78.7422C324.098 83.1367 322.633 87.5312 321.266 91.9258C319.996 96.3203 319.166 100.324 318.775 103.938C318.775 104.035 318.775 104.182 318.775 104.377C318.873 104.572 318.922 104.719 318.922 104.816C320.68 104.23 322.34 103.205 323.902 101.74C325.465 100.275 326.979 98.8105 328.443 97.3457C330.006 95.7832 331.568 94.416 333.131 93.2441C334.693 91.9746 336.305 91.3398 337.965 91.3398C338.062 91.3398 338.404 92.0234 338.99 93.3906C339.674 94.7578 339.674 96.418 338.99 98.3711C338.111 99.0547 336.5 100.227 334.156 101.887C331.91 103.547 329.518 105.305 326.979 107.16C324.439 108.918 322.047 110.676 319.801 112.434C317.555 114.094 315.992 115.363 315.113 116.242C313.746 117.609 312.33 119.562 310.865 122.102C309.4 124.641 307.936 127.473 306.471 130.598C305.006 133.82 303.541 137.189 302.076 140.705C300.709 144.221 299.342 147.639 297.975 150.959C296.607 154.377 295.24 157.502 293.873 160.334C292.604 163.264 291.432 165.656 290.357 167.512C289.869 168.293 288.844 169.807 287.281 172.053C285.816 174.396 284.156 176.887 282.301 179.523C280.543 182.16 278.785 184.65 277.027 186.994C275.367 189.436 274.098 191.145 273.219 192.121C272.828 192.609 271.754 193.732 269.996 195.49C268.238 197.346 266.236 199.348 263.99 201.496C261.842 203.742 259.693 205.939 257.545 208.088C255.299 210.236 253.59 211.848 252.418 212.922C251.246 213.605 249.684 214.436 247.73 215.412C245.777 216.486 243.775 217.365 241.725 218.049C239.576 218.732 237.525 219.172 235.572 219.367C233.521 219.562 231.861 219.123 230.592 218.049C229.322 217.072 228.59 215.363 228.395 212.922C228.102 210.578 228.639 207.209 230.006 202.814C231.275 198.518 233.521 193.049 236.744 186.408C239.967 179.768 244.41 171.711 250.074 162.238ZM296.07 130.744C295.875 130.744 295.533 130.793 295.045 130.891C294.654 131.086 294.361 131.232 294.166 131.33C293.971 131.525 293.531 131.867 292.848 132.355C292.164 132.844 291.383 133.381 290.504 133.967C289.723 134.553 288.941 135.139 288.16 135.725C287.477 136.311 286.988 136.75 286.695 137.043C283.961 138.996 280.836 141.73 277.32 145.246C273.805 148.859 270.143 152.814 266.334 157.111C262.623 161.506 258.961 166.096 255.348 170.881C251.734 175.764 248.512 180.402 245.68 184.797C242.75 189.289 240.406 193.391 238.648 197.102C236.891 200.812 235.963 203.791 235.865 206.037C235.768 208.283 236.695 209.602 238.648 209.992C240.602 210.383 243.922 209.455 248.609 207.209C249.586 206.33 251.002 205.012 252.857 203.254C254.615 201.594 256.373 199.836 258.131 197.98C259.986 196.223 261.646 194.562 263.111 193C264.576 191.535 265.455 190.607 265.748 190.217C266.236 189.533 267.018 188.459 268.092 186.994C269.166 185.529 270.338 183.869 271.607 182.014C272.877 180.158 274.195 178.205 275.562 176.154C276.93 174.104 278.199 172.102 279.371 170.148C280.641 168.293 281.715 166.633 282.594 165.168C283.57 163.703 284.254 162.58 284.645 161.799C285.523 160.236 286.598 157.99 287.867 155.061C289.234 152.229 290.504 149.25 291.676 146.125C292.848 143.098 293.873 140.168 294.752 137.336C295.631 134.504 296.07 132.307 296.07 130.744ZM482.105 133.527C477.711 133.527 474.195 132.502 471.559 130.451C468.922 128.4 466.871 125.666 465.406 122.248C464.039 118.928 463.111 115.119 462.623 110.822C462.135 106.525 461.793 102.131 461.598 97.6387C461.5 93.1465 461.402 88.8008 461.305 84.6016C461.305 80.3047 461.012 76.5449 460.426 73.3223C459.84 70.0996 458.863 67.5605 457.496 65.7051C456.227 63.752 454.225 62.9219 451.49 63.2148C450.807 64.4844 449.781 66.3887 448.414 68.9277C447.145 71.4668 445.631 74.3477 443.873 77.5703C442.115 80.793 440.26 84.2109 438.307 87.8242C436.451 91.4375 434.645 94.8555 432.887 98.0781C431.129 101.301 429.518 104.23 428.053 106.867C426.686 109.406 425.66 111.311 424.977 112.58C424.195 113.947 423.658 115.021 423.365 115.803C423.072 116.486 422.73 117.072 422.34 117.561C422.047 117.951 421.607 118.195 421.021 118.293C420.533 118.391 419.752 118.439 418.678 118.439C416.725 118.439 415.357 118.146 414.576 117.561C413.795 116.877 413.404 115.559 413.404 113.605C415.064 107.355 417.262 101.154 419.996 95.002C422.828 88.752 425.953 82.5996 429.371 76.5449C432.789 70.3926 436.402 64.3379 440.211 58.3809C444.02 52.3262 447.779 46.3691 451.49 40.5098C453.834 36.9941 456.568 32.9414 459.693 28.3516C462.818 23.6641 466.285 19.2695 470.094 15.168C474 10.9688 478.199 7.45313 482.691 4.62109C487.281 1.78906 492.164 0.373047 497.34 0.373047C499.195 0.275391 500.904 0.568359 502.467 1.25195C504.127 1.83789 505.494 2.76563 506.568 4.03516C507.643 5.30469 508.424 6.76953 508.912 8.42969C509.4 10.0898 509.449 11.8965 509.059 13.8496C509.059 18.6348 508.033 23.2734 505.982 27.7656C504.029 32.1602 501.539 36.2617 498.512 40.0703C495.484 43.8789 492.213 47.3457 488.697 50.4707C485.279 53.5957 482.057 56.2812 479.029 58.5273C476.002 60.7734 473.463 62.5801 471.412 63.9473C469.459 65.2168 468.482 65.9004 468.482 65.998C468.482 67.1699 468.482 69.416 468.482 72.7363C468.58 75.959 468.727 79.6699 468.922 83.8691C469.215 88.0684 469.605 92.5117 470.094 97.1992C470.582 101.789 471.217 106.135 471.998 110.236C472.877 114.24 473.951 117.658 475.221 120.49C476.588 123.322 478.199 125.08 480.055 125.764C480.348 125.861 481.031 126.008 482.105 126.203C483.18 126.398 484.352 126.594 485.621 126.789C486.988 127.082 488.209 127.277 489.283 127.375C490.455 127.57 491.188 127.717 491.48 127.814C491.676 127.912 492.018 128.205 492.506 128.693C492.994 129.182 493.287 129.523 493.385 129.719C491.139 131.477 489.283 132.551 487.818 132.941C486.354 133.332 484.449 133.527 482.105 133.527ZM457.057 50.3242C457.057 51.7891 457.301 52.9121 457.789 53.6934C458.277 54.377 458.961 54.8652 459.84 55.1582C460.719 55.4512 461.695 55.6465 462.77 55.7441C463.941 55.7441 465.162 55.7441 466.432 55.7441C470.338 55.7441 474.244 54.377 478.15 51.6426C482.057 48.8105 485.572 45.3926 488.697 41.3887C491.92 37.2871 494.508 32.9414 496.461 28.3516C498.414 23.7617 499.391 19.709 499.391 16.1934C499.391 15.2168 499.391 14.2402 499.391 13.2637C499.391 12.2871 499.293 11.4082 499.098 10.627C498.902 9.74805 498.512 9.06445 497.926 8.57617C497.34 8.08789 496.412 7.84375 495.143 7.84375C492.896 7.84375 490.406 8.625 487.672 10.1875C484.938 11.6523 482.154 13.6055 479.322 16.0469C476.49 18.4883 473.707 21.2715 470.973 24.3965C468.336 27.4238 465.992 30.5488 463.941 33.7715C461.891 36.8965 460.23 39.9238 458.961 42.8535C457.691 45.7832 457.057 48.2734 457.057 50.3242ZM500.123 105.695C500.123 105.305 500.123 104.523 500.123 103.352C500.221 102.082 500.27 101.252 500.27 100.861C503.395 93.7324 507.398 87.1406 512.281 81.0859C517.164 75.0312 522.682 69.6602 528.834 64.9727C529.029 64.9727 529.322 64.9238 529.713 64.8262C530.201 64.6309 530.543 64.5332 530.738 64.5332C533.375 64.5332 535.523 65.1191 537.184 66.291C538.941 67.3652 540.309 68.8301 541.285 70.6855C542.359 72.4434 543.092 74.4453 543.482 76.6914C543.873 78.8398 544.068 80.9395 544.068 82.9902C544.068 86.7988 543.189 90.8027 541.432 95.002C539.674 99.1035 537.281 102.912 534.254 106.428C531.324 109.846 527.955 112.678 524.146 114.924C520.338 117.072 516.383 118.146 512.281 118.146C508.18 118.146 505.104 117.072 503.053 114.924C501.1 112.678 500.123 109.602 500.123 105.695ZM511.549 103.938C511.549 105.012 511.988 105.744 512.867 106.135C513.746 106.525 514.625 106.721 515.504 106.721C517.945 106.721 520.289 106.086 522.535 104.816C524.879 103.449 526.93 101.789 528.688 99.8359C530.543 97.7852 532.008 95.5391 533.082 93.0977C534.156 90.6562 534.693 88.3125 534.693 86.0664C534.693 84.9922 534.596 83.8203 534.4 82.5508C534.303 81.1836 534.01 80.0117 533.521 79.0352C533.033 77.9609 532.252 77.1309 531.178 76.5449C530.201 75.959 528.785 75.8613 526.93 76.252C525.562 76.5449 524 77.8145 522.242 80.0605C520.484 82.3066 518.775 84.9434 517.115 87.9707C515.553 90.9004 514.234 93.8789 513.16 96.9062C512.086 99.8359 511.549 102.18 511.549 103.938ZM551.393 111.408C551.393 110.529 551.393 109.846 551.393 109.357C551.393 108.869 551.441 108.43 551.539 108.039C551.734 107.551 551.979 107.062 552.271 106.574C552.564 106.086 552.955 105.451 553.443 104.67C554.225 103.303 555.689 100.91 557.838 97.4922C559.986 94.0742 562.281 90.4609 564.723 86.6523C567.164 82.8438 569.459 79.2305 571.607 75.8125C573.854 72.3945 575.416 70.002 576.295 68.6348C576.393 68.5371 576.637 68.4883 577.027 68.4883C577.516 68.4883 577.857 68.4883 578.053 68.4883C578.248 68.4883 578.59 68.4883 579.078 68.4883C579.566 68.4883 579.859 68.5371 579.957 68.6348C580.055 68.7324 580.25 68.9766 580.543 69.3672C580.934 69.7578 581.324 70.1973 581.715 70.6855C582.203 71.0762 582.594 71.4668 582.887 71.8574C583.277 72.248 583.57 72.4434 583.766 72.4434C584.645 72.4434 585.572 72.1504 586.549 71.5645C587.525 70.9785 588.502 70.3438 589.479 69.6602C590.553 68.8789 591.627 68.1953 592.701 67.6094C593.775 67.0234 594.898 66.7305 596.07 66.7305C597.34 66.7305 598.512 67.0234 599.586 67.6094C600.66 68.1953 601.588 68.9277 602.369 69.8066C603.15 70.6855 603.736 71.6621 604.127 72.7363C604.615 73.8105 604.859 74.8848 604.859 75.959C604.859 78.2051 604.518 80.3535 603.834 82.4043C603.248 84.4551 602.564 86.5059 601.783 88.5566C601.002 90.5098 600.27 92.5117 599.586 94.5625C599 96.5156 598.707 98.5664 598.707 100.715C598.707 102.863 598.951 104.426 599.439 105.402C599.928 106.281 601.295 106.721 603.541 106.721C606.178 106.721 608.668 106.33 611.012 105.549C613.453 104.768 615.943 104.377 618.482 104.377C618.482 106.721 617.75 108.674 616.285 110.236C614.918 111.799 613.16 113.068 611.012 114.045C608.961 114.924 606.715 115.559 604.273 115.949C601.93 116.242 599.781 116.389 597.828 116.389C594.117 116.389 591.383 115.363 589.625 113.312C587.965 111.164 587.135 108.332 587.135 104.816C587.135 102.473 587.525 100.275 588.307 98.2246C589.186 96.1738 590.113 94.1719 591.09 92.2188C592.164 90.2656 593.141 88.3125 594.02 86.3594C594.898 84.4062 595.338 82.3066 595.338 80.0605C595.338 79.4746 595.24 78.6934 595.045 77.7168C594.85 76.7402 594.215 76.252 593.141 76.252C589.918 76.252 586.988 77.2773 584.352 79.3281C581.812 81.3789 579.469 83.9668 577.32 87.0918C575.27 90.2168 573.365 93.5859 571.607 97.1992C569.947 100.812 568.336 104.182 566.773 107.307C565.309 110.432 563.893 113.02 562.525 115.07C561.158 117.121 559.742 118.146 558.277 118.146C556.227 118.146 554.566 117.512 553.297 116.242C552.027 114.973 551.393 113.361 551.393 111.408ZM614.674 103.498C614.674 98.6152 616.041 93.8301 618.775 89.1426C621.607 84.4551 625.172 80.3047 629.469 76.6914C633.766 73.0781 638.502 70.1973 643.678 68.0488C648.854 65.8027 653.785 64.6797 658.473 64.6797C660.328 64.6797 662.086 65.0215 663.746 65.7051C665.406 66.3887 667.164 66.7305 669.02 66.7305H669.898C670.387 65.6562 671.314 63.752 672.682 61.0176C674.146 58.2832 675.66 55.4023 677.223 52.375C678.883 49.3477 680.445 46.5156 681.91 43.8789C683.375 41.1445 684.449 39.2402 685.133 38.166C686.207 36.3105 687.672 34.0156 689.527 31.2812C691.383 28.4492 693.189 25.7148 694.947 23.0781C696.803 20.4414 698.414 18.1953 699.781 16.3398C701.148 14.4844 701.93 13.5566 702.125 13.5566L707.838 19.2695C707.838 19.4648 707.447 20.3438 706.666 21.9062C705.982 23.4688 705.055 25.5195 703.883 28.0586C702.711 30.5 701.344 33.2344 699.781 36.2617C698.316 39.2891 696.803 42.3164 695.24 45.3438C693.678 48.3711 692.164 51.3008 690.699 54.1328C689.332 56.8672 688.111 59.1621 687.037 61.0176C684.01 65.6074 680.934 70.2949 677.809 75.0801C674.781 79.7676 672.34 84.1621 670.484 88.2637C668.727 92.2676 667.848 95.7832 667.848 98.8105C667.945 101.838 669.605 103.938 672.828 105.109C678.688 104.035 683.082 103.596 686.012 103.791C688.941 103.986 690.748 104.523 691.432 105.402C692.213 106.184 692.115 107.16 691.139 108.332C690.162 109.406 688.6 110.383 686.451 111.262C684.4 112.141 682.008 112.727 679.273 113.02C676.539 113.312 673.805 113.02 671.07 112.141C668.336 111.262 665.846 109.65 663.6 107.307C661.354 104.963 659.645 101.594 658.473 97.1992L635.768 116.096C635.768 116.096 635.377 116.193 634.596 116.389C633.912 116.584 633.033 116.779 631.959 116.975C630.982 117.17 629.957 117.365 628.883 117.561C627.809 117.756 626.93 117.902 626.246 118H625.367C623.121 118 621.266 117.609 619.801 116.828C618.434 115.949 617.359 114.875 616.578 113.605C615.797 112.238 615.26 110.676 614.967 108.918C614.771 107.16 614.674 105.354 614.674 103.498ZM624.195 101.887C624.195 102.473 624.146 103.156 624.049 103.938C624.049 104.719 624.098 105.451 624.195 106.135C624.391 106.721 624.684 107.258 625.074 107.746C625.562 108.234 626.246 108.479 627.125 108.479C628.395 108.479 629.908 108.039 631.666 107.16C633.521 106.184 635.328 105.061 637.086 103.791C638.844 102.521 640.455 101.252 641.92 99.9824C643.482 98.7129 644.605 97.7852 645.289 97.1992C645.973 96.5156 647.242 95.2949 649.098 93.5371C650.953 91.6816 652.857 89.7285 654.811 87.6777C656.861 85.627 658.766 83.7227 660.523 81.9648C662.281 80.207 663.502 78.9375 664.186 78.1562V77.7168C664.186 77.5215 664.186 77.4238 664.186 77.4238C664.283 77.3262 664.332 77.2285 664.332 77.1309C664.332 76.252 664.039 75.6172 663.453 75.2266C662.965 74.7383 662.33 74.4453 661.549 74.3477C660.865 74.1523 660.133 74.1035 659.352 74.2012C658.57 74.2012 657.936 74.2012 657.447 74.2012C653.932 74.2012 650.221 74.9336 646.314 76.3984C642.408 77.8633 638.795 79.8652 635.475 82.4043C632.252 84.8457 629.566 87.7754 627.418 91.1934C625.27 94.5137 624.195 98.0781 624.195 101.887ZM691.725 105.695C691.725 105.305 691.725 104.523 691.725 103.352C691.822 102.082 691.871 101.252 691.871 100.861C694.996 93.7324 699 87.1406 703.883 81.0859C708.766 75.0312 714.283 69.6602 720.436 64.9727C720.631 64.9727 720.924 64.9238 721.314 64.8262C721.803 64.6309 722.145 64.5332 722.34 64.5332C724.977 64.5332 727.125 65.1191 728.785 66.291C730.543 67.3652 731.91 68.8301 732.887 70.6855C733.961 72.4434 734.693 74.4453 735.084 76.6914C735.475 78.8398 735.67 80.9395 735.67 82.9902C735.67 86.7988 734.791 90.8027 733.033 95.002C731.275 99.1035 728.883 102.912 725.855 106.428C722.926 109.846 719.557 112.678 715.748 114.924C711.939 117.072 707.984 118.146 703.883 118.146C699.781 118.146 696.705 117.072 694.654 114.924C692.701 112.678 691.725 109.602 691.725 105.695ZM703.15 103.938C703.15 105.012 703.59 105.744 704.469 106.135C705.348 106.525 706.227 106.721 707.105 106.721C709.547 106.721 711.891 106.086 714.137 104.816C716.48 103.449 718.531 101.789 720.289 99.8359C722.145 97.7852 723.609 95.5391 724.684 93.0977C725.758 90.6562 726.295 88.3125 726.295 86.0664C726.295 84.9922 726.197 83.8203 726.002 82.5508C725.904 81.1836 725.611 80.0117 725.123 79.0352C724.635 77.9609 723.854 77.1309 722.779 76.5449C721.803 75.959 720.387 75.8613 718.531 76.252C717.164 76.5449 715.602 77.8145 713.844 80.0605C712.086 82.3066 710.377 84.9434 708.717 87.9707C707.154 90.9004 705.836 93.8789 704.762 96.9062C703.688 99.8359 703.15 102.18 703.15 103.938ZM727.613 33.0391C729.273 33.1367 730.006 33.9668 729.811 35.5293C729.615 36.9941 728.883 38.8008 727.613 40.9492C726.441 43 724.928 45.1973 723.072 47.541C721.217 49.8848 719.361 51.9355 717.506 53.6934C715.65 55.3535 713.99 56.5254 712.525 57.209C711.158 57.8926 710.377 57.6484 710.182 56.4766C710.572 55.5 711.451 53.8398 712.818 51.4961C714.186 49.1523 715.748 46.7598 717.506 44.3184C719.264 41.7793 721.021 39.4355 722.779 37.2871C724.635 35.1387 726.246 33.7227 727.613 33.0391ZM742.994 111.408C742.994 110.529 742.994 109.846 742.994 109.357C742.994 108.869 743.043 108.43 743.141 108.039C743.336 107.551 743.58 107.062 743.873 106.574C744.166 106.086 744.557 105.451 745.045 104.67C745.826 103.303 747.291 100.91 749.439 97.4922C751.588 94.0742 753.883 90.4609 756.324 86.6523C758.766 82.8438 761.061 79.2305 763.209 75.8125C765.455 72.3945 767.018 70.002 767.896 68.6348C767.994 68.5371 768.238 68.4883 768.629 68.4883C769.117 68.4883 769.459 68.4883 769.654 68.4883C769.85 68.4883 770.191 68.4883 770.68 68.4883C771.168 68.4883 771.461 68.5371 771.559 68.6348C771.656 68.7324 771.852 68.9766 772.145 69.3672C772.535 69.7578 772.926 70.1973 773.316 70.6855C773.805 71.0762 774.195 71.4668 774.488 71.8574C774.879 72.248 775.172 72.4434 775.367 72.4434C776.246 72.4434 777.174 72.1504 778.15 71.5645C779.127 70.9785 780.104 70.3438 781.08 69.6602C782.154 68.8789 783.229 68.1953 784.303 67.6094C785.377 67.0234 786.5 66.7305 787.672 66.7305C788.941 66.7305 790.113 67.0234 791.188 67.6094C792.262 68.1953 793.189 68.9277 793.971 69.8066C794.752 70.6855 795.338 71.6621 795.729 72.7363C796.217 73.8105 796.461 74.8848 796.461 75.959C796.461 78.2051 796.119 80.3535 795.436 82.4043C794.85 84.4551 794.166 86.5059 793.385 88.5566C792.604 90.5098 791.871 92.5117 791.188 94.5625C790.602 96.5156 790.309 98.5664 790.309 100.715C790.309 102.863 790.553 104.426 791.041 105.402C791.529 106.281 792.896 106.721 795.143 106.721C797.779 106.721 800.27 106.33 802.613 105.549C805.055 104.768 807.545 104.377 810.084 104.377C810.084 106.721 809.352 108.674 807.887 110.236C806.52 111.799 804.762 113.068 802.613 114.045C800.562 114.924 798.316 115.559 795.875 115.949C793.531 116.242 791.383 116.389 789.43 116.389C785.719 116.389 782.984 115.363 781.227 113.312C779.566 111.164 778.736 108.332 778.736 104.816C778.736 102.473 779.127 100.275 779.908 98.2246C780.787 96.1738 781.715 94.1719 782.691 92.2188C783.766 90.2656 784.742 88.3125 785.621 86.3594C786.5 84.4062 786.939 82.3066 786.939 80.0605C786.939 79.4746 786.842 78.6934 786.646 77.7168C786.451 76.7402 785.816 76.252 784.742 76.252C781.52 76.252 778.59 77.2773 775.953 79.3281C773.414 81.3789 771.07 83.9668 768.922 87.0918C766.871 90.2168 764.967 93.5859 763.209 97.1992C761.549 100.812 759.938 104.182 758.375 107.307C756.91 110.432 755.494 113.02 754.127 115.07C752.76 117.121 751.344 118.146 749.879 118.146C747.828 118.146 746.168 117.512 744.898 116.242C743.629 114.973 742.994 113.361 742.994 111.408Z" fill="white"/>
</svg>
