<svg width="1440" height="1024" viewBox="0 0 1440 1024" fill="none" xmlns="http://www.w3.org/2000/svg">
<g clip-path="url(#clip0_189_438)" filter="url(#filter0_b_189_438)">
<rect width="1440" height="1024" fill="#C04DF9"/>
<path d="M39.2627 200.054V165.02C39.2627 160.218 38.3268 155.701 36.4551 151.47C34.6647 147.157 32.1826 143.413 29.0088 140.239C25.835 137.065 22.0915 134.583 17.7783 132.793C13.5465 130.921 9.02995 129.985 4.22852 129.985C-0.572917 129.985 -5.13021 130.921 -9.44336 132.793C-13.6751 134.583 -17.3779 137.065 -20.5518 140.239C-23.7256 143.413 -26.2484 147.157 -28.1201 151.47C-29.9105 155.701 -30.8057 160.218 -30.8057 165.02V200.054H39.2627ZM74.2969 270H39.2627V234.966H-30.8057V270H-65.7178V165.02C-65.7178 155.335 -63.8867 146.261 -60.2246 137.798C-56.5625 129.253 -51.5983 121.807 -45.332 115.459C-38.9844 109.111 -31.5788 104.106 -23.1152 100.444C-14.5703 96.7822 -5.45573 94.9512 4.22852 94.9512C13.9128 94.9512 22.9867 96.7822 31.4502 100.444C39.9951 104.106 47.4414 109.111 53.7891 115.459C60.1367 121.807 65.1416 129.253 68.8037 137.798C72.4658 146.261 74.2969 155.335 74.2969 165.02V270ZM244.707 270H207.231L139.727 154.766V270H104.692V94.9512H142.168L209.673 210.308V94.9512H244.707V270ZM417.314 270H379.839L312.334 154.766V270H277.3V94.9512H314.775L382.28 210.308V94.9512H417.314V270ZM528.643 270H493.73V215.19C485.999 213.237 478.879 210.104 472.368 205.791C465.939 201.478 460.405 196.351 455.767 190.41C451.128 184.388 447.507 177.756 444.902 170.513C442.38 163.188 441.118 155.498 441.118 147.441V94.9512H476.152V147.441C476.152 152.243 477.048 156.8 478.838 161.113C480.71 165.345 483.232 169.048 486.406 172.222C489.58 175.396 493.283 177.918 497.515 179.79C501.828 181.58 506.385 182.476 511.187 182.476C515.988 182.476 520.505 181.58 524.736 179.79C529.049 177.918 532.793 175.396 535.967 172.222C539.141 169.048 541.623 165.345 543.413 161.113C545.285 156.8 546.221 152.243 546.221 147.441V94.9512H581.133V147.441C581.133 155.498 579.831 163.188 577.227 170.513C574.704 177.756 571.123 184.388 566.484 190.41C561.846 196.351 556.312 201.478 549.883 205.791C543.454 210.104 536.374 213.237 528.643 215.19V270ZM710.039 129.985V200.054H745.073C749.875 200.054 754.391 199.159 758.623 197.368C762.855 195.496 766.558 192.974 769.731 189.8C772.905 186.626 775.387 182.923 777.178 178.691C779.049 174.378 779.985 169.821 779.985 165.02C779.985 160.218 779.049 155.701 777.178 151.47C775.387 147.157 772.905 143.413 769.731 140.239C766.558 137.065 762.855 134.583 758.623 132.793C754.391 130.921 749.875 129.985 745.073 129.985H710.039ZM710.039 270H675.005V94.9512H745.073C751.502 94.9512 757.687 95.8057 763.628 97.5146C769.569 99.1423 775.103 101.502 780.229 104.595C785.438 107.606 790.158 111.268 794.39 115.581C798.703 119.813 802.365 124.533 805.376 129.741C808.468 134.95 810.828 140.524 812.456 146.465C814.165 152.406 815.02 158.59 815.02 165.02C815.02 171.042 814.246 176.901 812.7 182.598C811.235 188.294 809.079 193.706 806.23 198.833C803.464 203.96 800.046 208.68 795.977 212.993C791.908 217.306 787.35 221.05 782.305 224.224L801.714 270H764.482L749.224 234.722L710.039 234.966V270ZM1009.6 183.208C1009.6 191.509 1008.5 199.525 1006.3 207.256C1004.19 214.906 1001.18 222.108 997.271 228.862C993.364 235.535 988.644 241.639 983.11 247.173C977.576 252.707 971.473 257.467 964.8 261.455C958.127 265.361 950.924 268.372 943.193 270.488C935.462 272.686 927.446 273.784 919.146 273.784C910.845 273.784 902.829 272.686 895.098 270.488C887.448 268.372 880.246 265.361 873.491 261.455C866.818 257.467 860.715 252.707 855.181 247.173C849.647 241.639 844.886 235.535 840.898 228.862C836.992 222.108 833.94 214.906 831.743 207.256C829.627 199.525 828.569 191.509 828.569 183.208C828.569 174.907 829.627 166.891 831.743 159.16C833.94 151.429 836.992 144.227 840.898 137.554C844.886 130.881 849.647 124.777 855.181 119.243C860.715 113.709 866.818 108.989 873.491 105.083C880.246 101.177 887.448 98.1657 895.098 96.0498C902.829 93.8525 910.845 92.7539 919.146 92.7539C927.446 92.7539 935.462 93.8525 943.193 96.0498C950.924 98.1657 958.127 101.177 964.8 105.083C971.473 108.989 977.576 113.709 983.11 119.243C988.644 124.777 993.364 130.881 997.271 137.554C1001.18 144.227 1004.19 151.429 1006.3 159.16C1008.5 166.891 1009.6 174.907 1009.6 183.208ZM974.81 183.208C974.81 175.558 973.345 168.356 970.415 161.602C967.485 154.766 963.498 148.866 958.452 143.901C953.488 138.856 947.588 134.868 940.752 131.938C933.997 129.009 926.795 127.544 919.146 127.544C911.414 127.544 904.172 129.009 897.417 131.938C890.662 134.868 884.762 138.856 879.717 143.901C874.671 148.866 870.684 154.766 867.754 161.602C864.824 168.356 863.359 175.558 863.359 183.208C863.359 190.858 864.824 198.06 867.754 204.814C870.684 211.488 874.671 217.347 879.717 222.393C884.762 227.438 890.662 231.426 897.417 234.355C904.172 237.285 911.414 238.75 919.146 238.75C926.795 238.75 933.997 237.285 940.752 234.355C947.588 231.426 953.488 227.438 958.452 222.393C963.498 217.347 967.485 211.488 970.415 204.814C973.345 198.06 974.81 190.858 974.81 183.208ZM1172.69 270H1135.21L1067.71 154.766V270H1032.67V94.9512H1070.15L1137.65 210.308V94.9512H1172.69V270ZM1345.54 182.476C1345.54 190.532 1344.48 198.304 1342.36 205.791C1340.33 213.197 1337.4 220.155 1333.57 226.665C1329.75 233.094 1325.19 238.994 1319.9 244.365C1314.61 249.655 1308.71 254.212 1302.2 258.037C1295.69 261.862 1288.69 264.832 1281.21 266.948C1273.8 268.983 1266.07 270 1258.01 270H1205.28V94.9512H1258.01C1266.07 94.9512 1273.8 96.0091 1281.21 98.125C1288.69 100.16 1295.69 103.089 1302.2 106.914C1308.71 110.739 1314.61 115.337 1319.9 120.708C1325.19 125.998 1329.75 131.898 1333.57 138.408C1337.4 144.837 1340.33 151.795 1342.36 159.282C1344.48 166.688 1345.54 174.419 1345.54 182.476ZM1310.5 182.476C1310.5 175.233 1309.12 168.438 1306.35 162.09C1303.67 155.742 1299.92 150.208 1295.12 145.488C1290.4 140.687 1284.83 136.903 1278.4 134.136C1272.05 131.369 1265.26 129.985 1258.01 129.985H1240.56V234.966H1258.01C1265.26 234.966 1272.05 233.623 1278.4 230.938C1284.83 228.171 1290.4 224.427 1295.12 219.707C1299.92 214.906 1303.67 209.331 1306.35 202.983C1309.12 196.554 1310.5 189.718 1310.5 182.476ZM1540.36 183.208C1540.36 191.509 1539.26 199.525 1537.07 207.256C1534.95 214.906 1531.94 222.108 1528.03 228.862C1524.13 235.535 1519.41 241.639 1513.87 247.173C1508.34 252.707 1502.23 257.467 1495.56 261.455C1488.89 265.361 1481.69 268.372 1473.96 270.488C1466.22 272.686 1458.21 273.784 1449.91 273.784C1441.61 273.784 1433.59 272.686 1425.86 270.488C1418.21 268.372 1411.01 265.361 1404.25 261.455C1397.58 257.467 1391.48 252.707 1385.94 247.173C1380.41 241.639 1375.65 235.535 1371.66 228.862C1367.75 222.108 1364.7 214.906 1362.5 207.256C1360.39 199.525 1359.33 191.509 1359.33 183.208C1359.33 174.907 1360.39 166.891 1362.5 159.16C1364.7 151.429 1367.75 144.227 1371.66 137.554C1375.65 130.881 1380.41 124.777 1385.94 119.243C1391.48 113.709 1397.58 108.989 1404.25 105.083C1411.01 101.177 1418.21 98.1657 1425.86 96.0498C1433.59 93.8525 1441.61 92.7539 1449.91 92.7539C1458.21 92.7539 1466.22 93.8525 1473.96 96.0498C1481.69 98.1657 1488.89 101.177 1495.56 105.083C1502.23 108.989 1508.34 113.709 1513.87 119.243C1519.41 124.777 1524.13 130.881 1528.03 137.554C1531.94 144.227 1534.95 151.429 1537.07 159.16C1539.26 166.891 1540.36 174.907 1540.36 183.208ZM1505.57 183.208C1505.57 175.558 1504.11 168.356 1501.18 161.602C1498.25 154.766 1494.26 148.866 1489.21 143.901C1484.25 138.856 1478.35 134.868 1471.51 131.938C1464.76 129.009 1457.56 127.544 1449.91 127.544C1442.18 127.544 1434.93 129.009 1428.18 131.938C1421.42 134.868 1415.52 138.856 1410.48 143.901C1405.43 148.866 1401.45 154.766 1398.52 161.602C1395.59 168.356 1394.12 175.558 1394.12 183.208C1394.12 190.858 1395.59 198.06 1398.52 204.814C1401.45 211.488 1405.43 217.347 1410.48 222.393C1415.52 227.438 1421.42 231.426 1428.18 234.355C1434.93 237.285 1442.18 238.75 1449.91 238.75C1457.56 238.75 1464.76 237.285 1471.51 234.355C1478.35 231.426 1484.25 227.438 1489.21 222.393C1494.26 217.347 1498.25 211.488 1501.18 204.814C1504.11 198.06 1505.57 190.858 1505.57 183.208ZM1451.37 82.7441L1437.58 64.5557L1473.83 30.7422L1493.85 56.2549L1451.37 82.7441ZM1703.45 270H1665.97L1598.47 154.766V270H1563.43V94.9512H1600.91L1668.41 210.308V94.9512H1703.45V270Z" fill="white" fill-opacity="0.27"/>
<path d="M59.2627 546.054V511.02C59.2627 506.218 58.3268 501.701 56.4551 497.47C54.6647 493.157 52.1826 489.413 49.0088 486.239C45.835 483.065 42.0915 480.583 37.7783 478.793C33.5465 476.921 29.0299 475.985 24.2285 475.985C19.4271 475.985 14.8698 476.921 10.5566 478.793C6.32487 480.583 2.62207 483.065 -0.551758 486.239C-3.72559 489.413 -6.24837 493.157 -8.12012 497.47C-9.91048 501.701 -10.8057 506.218 -10.8057 511.02V546.054H59.2627ZM94.2969 616H59.2627V580.966H-10.8057V616H-45.7178V511.02C-45.7178 501.335 -43.8867 492.261 -40.2246 483.798C-36.5625 475.253 -31.5983 467.807 -25.332 461.459C-18.9844 455.111 -11.5788 450.106 -3.11523 446.444C5.42969 442.782 14.5443 440.951 24.2285 440.951C33.9128 440.951 42.9867 442.782 51.4502 446.444C59.9951 450.106 67.4414 455.111 73.7891 461.459C80.1367 467.807 85.1416 475.253 88.8037 483.798C92.4658 492.261 94.2969 501.335 94.2969 511.02V616ZM264.707 616H227.231L159.727 500.766V616H124.692V440.951H162.168L229.673 556.308V440.951H264.707V616ZM437.314 616H399.839L332.334 500.766V616H297.3V440.951H334.775L402.28 556.308V440.951H437.314V616ZM548.643 616H513.73V561.19C505.999 559.237 498.879 556.104 492.368 551.791C485.939 547.478 480.405 542.351 475.767 536.41C471.128 530.388 467.507 523.756 464.902 516.513C462.38 509.188 461.118 501.498 461.118 493.441V440.951H496.152V493.441C496.152 498.243 497.048 502.8 498.838 507.113C500.71 511.345 503.232 515.048 506.406 518.222C509.58 521.396 513.283 523.918 517.515 525.79C521.828 527.58 526.385 528.476 531.187 528.476C535.988 528.476 540.505 527.58 544.736 525.79C549.049 523.918 552.793 521.396 555.967 518.222C559.141 515.048 561.623 511.345 563.413 507.113C565.285 502.8 566.221 498.243 566.221 493.441V440.951H601.133V493.441C601.133 501.498 599.831 509.188 597.227 516.513C594.704 523.756 591.123 530.388 586.484 536.41C581.846 542.351 576.312 547.478 569.883 551.791C563.454 556.104 556.374 559.237 548.643 561.19V616ZM730.039 475.985V546.054H765.073C769.875 546.054 774.391 545.159 778.623 543.368C782.855 541.496 786.558 538.974 789.731 535.8C792.905 532.626 795.387 528.923 797.178 524.691C799.049 520.378 799.985 515.821 799.985 511.02C799.985 506.218 799.049 501.701 797.178 497.47C795.387 493.157 792.905 489.413 789.731 486.239C786.558 483.065 782.855 480.583 778.623 478.793C774.391 476.921 769.875 475.985 765.073 475.985H730.039ZM730.039 616H695.005V440.951H765.073C771.502 440.951 777.687 441.806 783.628 443.515C789.569 445.142 795.103 447.502 800.229 450.595C805.438 453.606 810.158 457.268 814.39 461.581C818.703 465.813 822.365 470.533 825.376 475.741C828.468 480.95 830.828 486.524 832.456 492.465C834.165 498.406 835.02 504.59 835.02 511.02C835.02 517.042 834.246 522.901 832.7 528.598C831.235 534.294 829.079 539.706 826.23 544.833C823.464 549.96 820.046 554.68 815.977 558.993C811.908 563.306 807.35 567.05 802.305 570.224L821.714 616H784.482L769.224 580.722L730.039 580.966V616ZM1029.6 529.208C1029.6 537.509 1028.5 545.525 1026.3 553.256C1024.19 560.906 1021.18 568.108 1017.27 574.862C1013.36 581.535 1008.64 587.639 1003.11 593.173C997.576 598.707 991.473 603.467 984.8 607.455C978.127 611.361 970.924 614.372 963.193 616.488C955.462 618.686 947.446 619.784 939.146 619.784C930.845 619.784 922.829 618.686 915.098 616.488C907.448 614.372 900.246 611.361 893.491 607.455C886.818 603.467 880.715 598.707 875.181 593.173C869.647 587.639 864.886 581.535 860.898 574.862C856.992 568.108 853.94 560.906 851.743 553.256C849.627 545.525 848.569 537.509 848.569 529.208C848.569 520.907 849.627 512.891 851.743 505.16C853.94 497.429 856.992 490.227 860.898 483.554C864.886 476.881 869.647 470.777 875.181 465.243C880.715 459.709 886.818 454.989 893.491 451.083C900.246 447.177 907.448 444.166 915.098 442.05C922.829 439.853 930.845 438.754 939.146 438.754C947.446 438.754 955.462 439.853 963.193 442.05C970.924 444.166 978.127 447.177 984.8 451.083C991.473 454.989 997.576 459.709 1003.11 465.243C1008.64 470.777 1013.36 476.881 1017.27 483.554C1021.18 490.227 1024.19 497.429 1026.3 505.16C1028.5 512.891 1029.6 520.907 1029.6 529.208ZM994.81 529.208C994.81 521.558 993.345 514.356 990.415 507.602C987.485 500.766 983.498 494.866 978.452 489.901C973.488 484.856 967.588 480.868 960.752 477.938C953.997 475.009 946.795 473.544 939.146 473.544C931.414 473.544 924.172 475.009 917.417 477.938C910.662 480.868 904.762 484.856 899.717 489.901C894.671 494.866 890.684 500.766 887.754 507.602C884.824 514.356 883.359 521.558 883.359 529.208C883.359 536.858 884.824 544.06 887.754 550.814C890.684 557.488 894.671 563.347 899.717 568.393C904.762 573.438 910.662 577.426 917.417 580.355C924.172 583.285 931.414 584.75 939.146 584.75C946.795 584.75 953.997 583.285 960.752 580.355C967.588 577.426 973.488 573.438 978.452 568.393C983.498 563.347 987.485 557.488 990.415 550.814C993.345 544.06 994.81 536.858 994.81 529.208ZM1192.69 616H1155.21L1087.71 500.766V616H1052.67V440.951H1090.15L1157.65 556.308V440.951H1192.69V616ZM1365.54 528.476C1365.54 536.532 1364.48 544.304 1362.36 551.791C1360.33 559.197 1357.4 566.155 1353.57 572.665C1349.75 579.094 1345.19 584.994 1339.9 590.365C1334.61 595.655 1328.71 600.212 1322.2 604.037C1315.69 607.862 1308.69 610.832 1301.21 612.948C1293.8 614.983 1286.07 616 1278.01 616H1225.28V440.951H1278.01C1286.07 440.951 1293.8 442.009 1301.21 444.125C1308.69 446.16 1315.69 449.089 1322.2 452.914C1328.71 456.739 1334.61 461.337 1339.9 466.708C1345.19 471.998 1349.75 477.898 1353.57 484.408C1357.4 490.837 1360.33 497.795 1362.36 505.282C1364.48 512.688 1365.54 520.419 1365.54 528.476ZM1330.5 528.476C1330.5 521.233 1329.12 514.438 1326.35 508.09C1323.67 501.742 1319.92 496.208 1315.12 491.488C1310.4 486.687 1304.83 482.903 1298.4 480.136C1292.05 477.369 1285.26 475.985 1278.01 475.985H1260.56V580.966H1278.01C1285.26 580.966 1292.05 579.623 1298.4 576.938C1304.83 574.171 1310.4 570.427 1315.12 565.707C1319.92 560.906 1323.67 555.331 1326.35 548.983C1329.12 542.554 1330.5 535.718 1330.5 528.476ZM1560.36 529.208C1560.36 537.509 1559.26 545.525 1557.07 553.256C1554.95 560.906 1551.94 568.108 1548.03 574.862C1544.13 581.535 1539.41 587.639 1533.87 593.173C1528.34 598.707 1522.23 603.467 1515.56 607.455C1508.89 611.361 1501.69 614.372 1493.96 616.488C1486.22 618.686 1478.21 619.784 1469.91 619.784C1461.61 619.784 1453.59 618.686 1445.86 616.488C1438.21 614.372 1431.01 611.361 1424.25 607.455C1417.58 603.467 1411.48 598.707 1405.94 593.173C1400.41 587.639 1395.65 581.535 1391.66 574.862C1387.75 568.108 1384.7 560.906 1382.5 553.256C1380.39 545.525 1379.33 537.509 1379.33 529.208C1379.33 520.907 1380.39 512.891 1382.5 505.16C1384.7 497.429 1387.75 490.227 1391.66 483.554C1395.65 476.881 1400.41 470.777 1405.94 465.243C1411.48 459.709 1417.58 454.989 1424.25 451.083C1431.01 447.177 1438.21 444.166 1445.86 442.05C1453.59 439.853 1461.61 438.754 1469.91 438.754C1478.21 438.754 1486.22 439.853 1493.96 442.05C1501.69 444.166 1508.89 447.177 1515.56 451.083C1522.23 454.989 1528.34 459.709 1533.87 465.243C1539.41 470.777 1544.13 476.881 1548.03 483.554C1551.94 490.227 1554.95 497.429 1557.07 505.16C1559.26 512.891 1560.36 520.907 1560.36 529.208ZM1525.57 529.208C1525.57 521.558 1524.11 514.356 1521.18 507.602C1518.25 500.766 1514.26 494.866 1509.21 489.901C1504.25 484.856 1498.35 480.868 1491.51 477.938C1484.76 475.009 1477.56 473.544 1469.91 473.544C1462.18 473.544 1454.93 475.009 1448.18 477.938C1441.42 480.868 1435.52 484.856 1430.48 489.901C1425.43 494.866 1421.45 500.766 1418.52 507.602C1415.59 514.356 1414.12 521.558 1414.12 529.208C1414.12 536.858 1415.59 544.06 1418.52 550.814C1421.45 557.488 1425.43 563.347 1430.48 568.393C1435.52 573.438 1441.42 577.426 1448.18 580.355C1454.93 583.285 1462.18 584.75 1469.91 584.75C1477.56 584.75 1484.76 583.285 1491.51 580.355C1498.35 577.426 1504.25 573.438 1509.21 568.393C1514.26 563.347 1518.25 557.488 1521.18 550.814C1524.11 544.06 1525.57 536.858 1525.57 529.208ZM1471.37 428.744L1457.58 410.556L1493.83 376.742L1513.85 402.255L1471.37 428.744ZM1723.45 616H1685.97L1618.47 500.766V616H1583.43V440.951H1620.91L1688.41 556.308V440.951H1723.45V616Z" fill="white" fill-opacity="0.08"/>
<path d="M59.2627 546.054V511.02C59.2627 506.218 58.3268 501.701 56.4551 497.47C54.6647 493.157 52.1826 489.413 49.0088 486.239C45.835 483.065 42.0915 480.583 37.7783 478.793C33.5465 476.921 29.0299 475.985 24.2285 475.985C19.4271 475.985 14.8698 476.921 10.5566 478.793C6.32487 480.583 2.62207 483.065 -0.551758 486.239C-3.72559 489.413 -6.24837 493.157 -8.12012 497.47C-9.91048 501.701 -10.8057 506.218 -10.8057 511.02V546.054H59.2627ZM94.2969 616H59.2627V580.966H-10.8057V616H-45.7178V511.02C-45.7178 501.335 -43.8867 492.261 -40.2246 483.798C-36.5625 475.253 -31.5983 467.807 -25.332 461.459C-18.9844 455.111 -11.5788 450.106 -3.11523 446.444C5.42969 442.782 14.5443 440.951 24.2285 440.951C33.9128 440.951 42.9867 442.782 51.4502 446.444C59.9951 450.106 67.4414 455.111 73.7891 461.459C80.1367 467.807 85.1416 475.253 88.8037 483.798C92.4658 492.261 94.2969 501.335 94.2969 511.02V616ZM264.707 616H227.231L159.727 500.766V616H124.692V440.951H162.168L229.673 556.308V440.951H264.707V616ZM437.314 616H399.839L332.334 500.766V616H297.3V440.951H334.775L402.28 556.308V440.951H437.314V616ZM548.643 616H513.73V561.19C505.999 559.237 498.879 556.104 492.368 551.791C485.939 547.478 480.405 542.351 475.767 536.41C471.128 530.388 467.507 523.756 464.902 516.513C462.38 509.188 461.118 501.498 461.118 493.441V440.951H496.152V493.441C496.152 498.243 497.048 502.8 498.838 507.113C500.71 511.345 503.232 515.048 506.406 518.222C509.58 521.396 513.283 523.918 517.515 525.79C521.828 527.58 526.385 528.476 531.187 528.476C535.988 528.476 540.505 527.58 544.736 525.79C549.049 523.918 552.793 521.396 555.967 518.222C559.141 515.048 561.623 511.345 563.413 507.113C565.285 502.8 566.221 498.243 566.221 493.441V440.951H601.133V493.441C601.133 501.498 599.831 509.188 597.227 516.513C594.704 523.756 591.123 530.388 586.484 536.41C581.846 542.351 576.312 547.478 569.883 551.791C563.454 556.104 556.374 559.237 548.643 561.19V616ZM730.039 475.985V546.054H765.073C769.875 546.054 774.391 545.159 778.623 543.368C782.855 541.496 786.558 538.974 789.731 535.8C792.905 532.626 795.387 528.923 797.178 524.691C799.049 520.378 799.985 515.821 799.985 511.02C799.985 506.218 799.049 501.701 797.178 497.47C795.387 493.157 792.905 489.413 789.731 486.239C786.558 483.065 782.855 480.583 778.623 478.793C774.391 476.921 769.875 475.985 765.073 475.985H730.039ZM730.039 616H695.005V440.951H765.073C771.502 440.951 777.687 441.806 783.628 443.515C789.569 445.142 795.103 447.502 800.229 450.595C805.438 453.606 810.158 457.268 814.39 461.581C818.703 465.813 822.365 470.533 825.376 475.741C828.468 480.95 830.828 486.524 832.456 492.465C834.165 498.406 835.02 504.59 835.02 511.02C835.02 517.042 834.246 522.901 832.7 528.598C831.235 534.294 829.079 539.706 826.23 544.833C823.464 549.96 820.046 554.68 815.977 558.993C811.908 563.306 807.35 567.05 802.305 570.224L821.714 616H784.482L769.224 580.722L730.039 580.966V616ZM1029.6 529.208C1029.6 537.509 1028.5 545.525 1026.3 553.256C1024.19 560.906 1021.18 568.108 1017.27 574.862C1013.36 581.535 1008.64 587.639 1003.11 593.173C997.576 598.707 991.473 603.467 984.8 607.455C978.127 611.361 970.924 614.372 963.193 616.488C955.462 618.686 947.446 619.784 939.146 619.784C930.845 619.784 922.829 618.686 915.098 616.488C907.448 614.372 900.246 611.361 893.491 607.455C886.818 603.467 880.715 598.707 875.181 593.173C869.647 587.639 864.886 581.535 860.898 574.862C856.992 568.108 853.94 560.906 851.743 553.256C849.627 545.525 848.569 537.509 848.569 529.208C848.569 520.907 849.627 512.891 851.743 505.16C853.94 497.429 856.992 490.227 860.898 483.554C864.886 476.881 869.647 470.777 875.181 465.243C880.715 459.709 886.818 454.989 893.491 451.083C900.246 447.177 907.448 444.166 915.098 442.05C922.829 439.853 930.845 438.754 939.146 438.754C947.446 438.754 955.462 439.853 963.193 442.05C970.924 444.166 978.127 447.177 984.8 451.083C991.473 454.989 997.576 459.709 1003.11 465.243C1008.64 470.777 1013.36 476.881 1017.27 483.554C1021.18 490.227 1024.19 497.429 1026.3 505.16C1028.5 512.891 1029.6 520.907 1029.6 529.208ZM994.81 529.208C994.81 521.558 993.345 514.356 990.415 507.602C987.485 500.766 983.498 494.866 978.452 489.901C973.488 484.856 967.588 480.868 960.752 477.938C953.997 475.009 946.795 473.544 939.146 473.544C931.414 473.544 924.172 475.009 917.417 477.938C910.662 480.868 904.762 484.856 899.717 489.901C894.671 494.866 890.684 500.766 887.754 507.602C884.824 514.356 883.359 521.558 883.359 529.208C883.359 536.858 884.824 544.06 887.754 550.814C890.684 557.488 894.671 563.347 899.717 568.393C904.762 573.438 910.662 577.426 917.417 580.355C924.172 583.285 931.414 584.75 939.146 584.75C946.795 584.75 953.997 583.285 960.752 580.355C967.588 577.426 973.488 573.438 978.452 568.393C983.498 563.347 987.485 557.488 990.415 550.814C993.345 544.06 994.81 536.858 994.81 529.208ZM1192.69 616H1155.21L1087.71 500.766V616H1052.67V440.951H1090.15L1157.65 556.308V440.951H1192.69V616ZM1365.54 528.476C1365.54 536.532 1364.48 544.304 1362.36 551.791C1360.33 559.197 1357.4 566.155 1353.57 572.665C1349.75 579.094 1345.19 584.994 1339.9 590.365C1334.61 595.655 1328.71 600.212 1322.2 604.037C1315.69 607.862 1308.69 610.832 1301.21 612.948C1293.8 614.983 1286.07 616 1278.01 616H1225.28V440.951H1278.01C1286.07 440.951 1293.8 442.009 1301.21 444.125C1308.69 446.16 1315.69 449.089 1322.2 452.914C1328.71 456.739 1334.61 461.337 1339.9 466.708C1345.19 471.998 1349.75 477.898 1353.57 484.408C1357.4 490.837 1360.33 497.795 1362.36 505.282C1364.48 512.688 1365.54 520.419 1365.54 528.476ZM1330.5 528.476C1330.5 521.233 1329.12 514.438 1326.35 508.09C1323.67 501.742 1319.92 496.208 1315.12 491.488C1310.4 486.687 1304.83 482.903 1298.4 480.136C1292.05 477.369 1285.26 475.985 1278.01 475.985H1260.56V580.966H1278.01C1285.26 580.966 1292.05 579.623 1298.4 576.938C1304.83 574.171 1310.4 570.427 1315.12 565.707C1319.92 560.906 1323.67 555.331 1326.35 548.983C1329.12 542.554 1330.5 535.718 1330.5 528.476ZM1560.36 529.208C1560.36 537.509 1559.26 545.525 1557.07 553.256C1554.95 560.906 1551.94 568.108 1548.03 574.862C1544.13 581.535 1539.41 587.639 1533.87 593.173C1528.34 598.707 1522.23 603.467 1515.56 607.455C1508.89 611.361 1501.69 614.372 1493.96 616.488C1486.22 618.686 1478.21 619.784 1469.91 619.784C1461.61 619.784 1453.59 618.686 1445.86 616.488C1438.21 614.372 1431.01 611.361 1424.25 607.455C1417.58 603.467 1411.48 598.707 1405.94 593.173C1400.41 587.639 1395.65 581.535 1391.66 574.862C1387.75 568.108 1384.7 560.906 1382.5 553.256C1380.39 545.525 1379.33 537.509 1379.33 529.208C1379.33 520.907 1380.39 512.891 1382.5 505.16C1384.7 497.429 1387.75 490.227 1391.66 483.554C1395.65 476.881 1400.41 470.777 1405.94 465.243C1411.48 459.709 1417.58 454.989 1424.25 451.083C1431.01 447.177 1438.21 444.166 1445.86 442.05C1453.59 439.853 1461.61 438.754 1469.91 438.754C1478.21 438.754 1486.22 439.853 1493.96 442.05C1501.69 444.166 1508.89 447.177 1515.56 451.083C1522.23 454.989 1528.34 459.709 1533.87 465.243C1539.41 470.777 1544.13 476.881 1548.03 483.554C1551.94 490.227 1554.95 497.429 1557.07 505.16C1559.26 512.891 1560.36 520.907 1560.36 529.208ZM1525.57 529.208C1525.57 521.558 1524.11 514.356 1521.18 507.602C1518.25 500.766 1514.26 494.866 1509.21 489.901C1504.25 484.856 1498.35 480.868 1491.51 477.938C1484.76 475.009 1477.56 473.544 1469.91 473.544C1462.18 473.544 1454.93 475.009 1448.18 477.938C1441.42 480.868 1435.52 484.856 1430.48 489.901C1425.43 494.866 1421.45 500.766 1418.52 507.602C1415.59 514.356 1414.12 521.558 1414.12 529.208C1414.12 536.858 1415.59 544.06 1418.52 550.814C1421.45 557.488 1425.43 563.347 1430.48 568.393C1435.52 573.438 1441.42 577.426 1448.18 580.355C1454.93 583.285 1462.18 584.75 1469.91 584.75C1477.56 584.75 1484.76 583.285 1491.51 580.355C1498.35 577.426 1504.25 573.438 1509.21 568.393C1514.26 563.347 1518.25 557.488 1521.18 550.814C1524.11 544.06 1525.57 536.858 1525.57 529.208ZM1471.37 428.744L1457.58 410.556L1493.83 376.742L1513.85 402.255L1471.37 428.744ZM1723.45 616H1685.97L1618.47 500.766V616H1583.43V440.951H1620.91L1688.41 556.308V440.951H1723.45V616Z" fill="white" fill-opacity="0.08"/>
<path d="M83.2627 890.054V855.02C83.2627 850.218 82.3268 845.701 80.4551 841.47C78.6647 837.157 76.1826 833.413 73.0088 830.239C69.835 827.065 66.0915 824.583 61.7783 822.793C57.5465 820.921 53.0299 819.985 48.2285 819.985C43.4271 819.985 38.8698 820.921 34.5566 822.793C30.3249 824.583 26.6221 827.065 23.4482 830.239C20.2744 833.413 17.7516 837.157 15.8799 841.47C14.0895 845.701 13.1943 850.218 13.1943 855.02V890.054H83.2627ZM118.297 960H83.2627V924.966H13.1943V960H-21.7178V855.02C-21.7178 845.335 -19.8867 836.261 -16.2246 827.798C-12.5625 819.253 -7.59831 811.807 -1.33203 805.459C5.01562 799.111 12.4212 794.106 20.8848 790.444C29.4297 786.782 38.5443 784.951 48.2285 784.951C57.9128 784.951 66.9867 786.782 75.4502 790.444C83.9951 794.106 91.4414 799.111 97.7891 805.459C104.137 811.807 109.142 819.253 112.804 827.798C116.466 836.261 118.297 845.335 118.297 855.02V960ZM288.707 960H251.231L183.727 844.766V960H148.692V784.951H186.168L253.673 900.308V784.951H288.707V960ZM461.314 960H423.839L356.334 844.766V960H321.3V784.951H358.775L426.28 900.308V784.951H461.314V960ZM572.643 960H537.73V905.19C529.999 903.237 522.879 900.104 516.368 895.791C509.939 891.478 504.405 886.351 499.767 880.41C495.128 874.388 491.507 867.756 488.902 860.513C486.38 853.188 485.118 845.498 485.118 837.441V784.951H520.152V837.441C520.152 842.243 521.048 846.8 522.838 851.113C524.71 855.345 527.232 859.048 530.406 862.222C533.58 865.396 537.283 867.918 541.515 869.79C545.828 871.58 550.385 872.476 555.187 872.476C559.988 872.476 564.505 871.58 568.736 869.79C573.049 867.918 576.793 865.396 579.967 862.222C583.141 859.048 585.623 855.345 587.413 851.113C589.285 846.8 590.221 842.243 590.221 837.441V784.951H625.133V837.441C625.133 845.498 623.831 853.188 621.227 860.513C618.704 867.756 615.123 874.388 610.484 880.41C605.846 886.351 600.312 891.478 593.883 895.791C587.454 900.104 580.374 903.237 572.643 905.19V960ZM754.039 819.985V890.054H789.073C793.875 890.054 798.391 889.159 802.623 887.368C806.855 885.496 810.558 882.974 813.731 879.8C816.905 876.626 819.387 872.923 821.178 868.691C823.049 864.378 823.985 859.821 823.985 855.02C823.985 850.218 823.049 845.701 821.178 841.47C819.387 837.157 816.905 833.413 813.731 830.239C810.558 827.065 806.855 824.583 802.623 822.793C798.391 820.921 793.875 819.985 789.073 819.985H754.039ZM754.039 960H719.005V784.951H789.073C795.502 784.951 801.687 785.806 807.628 787.515C813.569 789.142 819.103 791.502 824.229 794.595C829.438 797.606 834.158 801.268 838.39 805.581C842.703 809.813 846.365 814.533 849.376 819.741C852.468 824.95 854.828 830.524 856.456 836.465C858.165 842.406 859.02 848.59 859.02 855.02C859.02 861.042 858.246 866.901 856.7 872.598C855.235 878.294 853.079 883.706 850.23 888.833C847.464 893.96 844.046 898.68 839.977 902.993C835.908 907.306 831.35 911.05 826.305 914.224L845.714 960H808.482L793.224 924.722L754.039 924.966V960ZM1053.6 873.208C1053.6 881.509 1052.5 889.525 1050.3 897.256C1048.19 904.906 1045.18 912.108 1041.27 918.862C1037.36 925.535 1032.64 931.639 1027.11 937.173C1021.58 942.707 1015.47 947.467 1008.8 951.455C1002.13 955.361 994.924 958.372 987.193 960.488C979.462 962.686 971.446 963.784 963.146 963.784C954.845 963.784 946.829 962.686 939.098 960.488C931.448 958.372 924.246 955.361 917.491 951.455C910.818 947.467 904.715 942.707 899.181 937.173C893.647 931.639 888.886 925.535 884.898 918.862C880.992 912.108 877.94 904.906 875.743 897.256C873.627 889.525 872.569 881.509 872.569 873.208C872.569 864.907 873.627 856.891 875.743 849.16C877.94 841.429 880.992 834.227 884.898 827.554C888.886 820.881 893.647 814.777 899.181 809.243C904.715 803.709 910.818 798.989 917.491 795.083C924.246 791.177 931.448 788.166 939.098 786.05C946.829 783.853 954.845 782.754 963.146 782.754C971.446 782.754 979.462 783.853 987.193 786.05C994.924 788.166 1002.13 791.177 1008.8 795.083C1015.47 798.989 1021.58 803.709 1027.11 809.243C1032.64 814.777 1037.36 820.881 1041.27 827.554C1045.18 834.227 1048.19 841.429 1050.3 849.16C1052.5 856.891 1053.6 864.907 1053.6 873.208ZM1018.81 873.208C1018.81 865.558 1017.34 858.356 1014.42 851.602C1011.49 844.766 1007.5 838.866 1002.45 833.901C997.488 828.856 991.588 824.868 984.752 821.938C977.997 819.009 970.795 817.544 963.146 817.544C955.414 817.544 948.172 819.009 941.417 821.938C934.662 824.868 928.762 828.856 923.717 833.901C918.671 838.866 914.684 844.766 911.754 851.602C908.824 858.356 907.359 865.558 907.359 873.208C907.359 880.858 908.824 888.06 911.754 894.814C914.684 901.488 918.671 907.347 923.717 912.393C928.762 917.438 934.662 921.426 941.417 924.355C948.172 927.285 955.414 928.75 963.146 928.75C970.795 928.75 977.997 927.285 984.752 924.355C991.588 921.426 997.488 917.438 1002.45 912.393C1007.5 907.347 1011.49 901.488 1014.42 894.814C1017.34 888.06 1018.81 880.858 1018.81 873.208ZM1216.69 960H1179.21L1111.71 844.766V960H1076.67V784.951H1114.15L1181.65 900.308V784.951H1216.69V960ZM1389.54 872.476C1389.54 880.532 1388.48 888.304 1386.36 895.791C1384.33 903.197 1381.4 910.155 1377.57 916.665C1373.75 923.094 1369.19 928.994 1363.9 934.365C1358.61 939.655 1352.71 944.212 1346.2 948.037C1339.69 951.862 1332.69 954.832 1325.21 956.948C1317.8 958.983 1310.07 960 1302.01 960H1249.28V784.951H1302.01C1310.07 784.951 1317.8 786.009 1325.21 788.125C1332.69 790.16 1339.69 793.089 1346.2 796.914C1352.71 800.739 1358.61 805.337 1363.9 810.708C1369.19 815.998 1373.75 821.898 1377.57 828.408C1381.4 834.837 1384.33 841.795 1386.36 849.282C1388.48 856.688 1389.54 864.419 1389.54 872.476ZM1354.5 872.476C1354.5 865.233 1353.12 858.438 1350.35 852.09C1347.67 845.742 1343.92 840.208 1339.12 835.488C1334.4 830.687 1328.83 826.903 1322.4 824.136C1316.05 821.369 1309.26 819.985 1302.01 819.985H1284.56V924.966H1302.01C1309.26 924.966 1316.05 923.623 1322.4 920.938C1328.83 918.171 1334.4 914.427 1339.12 909.707C1343.92 904.906 1347.67 899.331 1350.35 892.983C1353.12 886.554 1354.5 879.718 1354.5 872.476ZM1584.36 873.208C1584.36 881.509 1583.26 889.525 1581.07 897.256C1578.95 904.906 1575.94 912.108 1572.03 918.862C1568.13 925.535 1563.41 931.639 1557.87 937.173C1552.34 942.707 1546.23 947.467 1539.56 951.455C1532.89 955.361 1525.69 958.372 1517.96 960.488C1510.22 962.686 1502.21 963.784 1493.91 963.784C1485.61 963.784 1477.59 962.686 1469.86 960.488C1462.21 958.372 1455.01 955.361 1448.25 951.455C1441.58 947.467 1435.48 942.707 1429.94 937.173C1424.41 931.639 1419.65 925.535 1415.66 918.862C1411.75 912.108 1408.7 904.906 1406.5 897.256C1404.39 889.525 1403.33 881.509 1403.33 873.208C1403.33 864.907 1404.39 856.891 1406.5 849.16C1408.7 841.429 1411.75 834.227 1415.66 827.554C1419.65 820.881 1424.41 814.777 1429.94 809.243C1435.48 803.709 1441.58 798.989 1448.25 795.083C1455.01 791.177 1462.21 788.166 1469.86 786.05C1477.59 783.853 1485.61 782.754 1493.91 782.754C1502.21 782.754 1510.22 783.853 1517.96 786.05C1525.69 788.166 1532.89 791.177 1539.56 795.083C1546.23 798.989 1552.34 803.709 1557.87 809.243C1563.41 814.777 1568.13 820.881 1572.03 827.554C1575.94 834.227 1578.95 841.429 1581.07 849.16C1583.26 856.891 1584.36 864.907 1584.36 873.208ZM1549.57 873.208C1549.57 865.558 1548.11 858.356 1545.18 851.602C1542.25 844.766 1538.26 838.866 1533.21 833.901C1528.25 828.856 1522.35 824.868 1515.51 821.938C1508.76 819.009 1501.56 817.544 1493.91 817.544C1486.18 817.544 1478.93 819.009 1472.18 821.938C1465.42 824.868 1459.52 828.856 1454.48 833.901C1449.43 838.866 1445.45 844.766 1442.52 851.602C1439.59 858.356 1438.12 865.558 1438.12 873.208C1438.12 880.858 1439.59 888.06 1442.52 894.814C1445.45 901.488 1449.43 907.347 1454.48 912.393C1459.52 917.438 1465.42 921.426 1472.18 924.355C1478.93 927.285 1486.18 928.75 1493.91 928.75C1501.56 928.75 1508.76 927.285 1515.51 924.355C1522.35 921.426 1528.25 917.438 1533.21 912.393C1538.26 907.347 1542.25 901.488 1545.18 894.814C1548.11 888.06 1549.57 880.858 1549.57 873.208ZM1495.37 772.744L1481.58 754.556L1517.83 720.742L1537.85 746.255L1495.37 772.744ZM1747.45 960H1709.97L1642.47 844.766V960H1607.43V784.951H1644.91L1712.41 900.308V784.951H1747.45V960Z" fill="white" fill-opacity="0.08"/>
</g>
<defs>
<filter id="filter0_b_189_438" x="-4" y="-4" width="1448" height="1032" filterUnits="userSpaceOnUse" color-interpolation-filters="sRGB">
<feFlood flood-opacity="0" result="BackgroundImageFix"/>
<feGaussianBlur in="BackgroundImageFix" stdDeviation="2"/>
<feComposite in2="SourceAlpha" operator="in" result="effect1_backgroundBlur_189_438"/>
<feBlend mode="normal" in="SourceGraphic" in2="effect1_backgroundBlur_189_438" result="shape"/>
</filter>
<clipPath id="clip0_189_438">
<rect width="1440" height="1024" fill="white"/>
</clipPath>
</defs>
</svg>
