<svg width="425" height="425" viewBox="0 0 425 425" fill="none" xmlns="http://www.w3.org/2000/svg">
<path d="M146.896 414.518L134.67 409.009L135.645 406.746L145.288 411.092L147.584 405.759L140.135 402.403L141.076 400.218L148.525 403.574L152.109 395.251L154.691 396.414L146.896 414.518Z" fill="white"/>
<path d="M86.6882 370.063C86.9766 370.524 87.3914 370.997 87.9326 371.483C88.4668 371.961 88.9553 372.298 89.398 372.492C89.8345 372.693 90.2504 372.831 90.6455 372.907C91.3691 373.049 91.9934 373.038 92.5184 372.875L99.1691 365.11L101.278 367L91.7716 378.099L89.7472 376.284L90.9801 374.671C89.8756 374.872 88.673 374.688 87.3722 374.117C86.8961 373.919 86.4227 373.608 85.9517 373.186C85.4808 372.764 85.1459 372.4 84.9473 372.095L86.6882 370.063Z" fill="white"/>
<path d="M59.4514 334.816C57.5039 336.028 55.5511 336.382 53.593 335.878C51.7633 335.405 50.3321 334.3 49.2995 332.564C48.2862 330.86 48.0044 329.084 48.4541 327.237C48.9324 325.271 50.1494 323.68 52.1049 322.463C54.0524 321.251 55.9875 320.886 57.9102 321.367C59.7383 321.819 61.1542 322.889 62.1578 324.577C63.176 326.289 63.4707 328.095 63.0419 329.996C62.5957 331.997 61.3989 333.604 59.4514 334.816ZM57.9459 332.285C59.9976 331.007 60.9964 329.474 60.9424 327.685C60.9189 327.054 60.7118 326.411 60.321 325.753C59.9301 325.096 59.4714 324.62 58.9447 324.325C58.41 324.036 57.8434 323.877 57.2449 323.849C56.1042 323.815 54.8927 324.196 53.6104 324.994C51.5747 326.261 50.5686 327.783 50.5922 329.558C50.5979 330.177 50.789 330.803 51.1653 331.436C51.5417 332.068 52.0021 332.538 52.5464 332.844C53.0779 333.147 53.6453 333.316 54.2486 333.352C55.4392 333.433 56.6716 333.078 57.9459 332.285Z" fill="white"/>
<path d="M23.7849 270.468C24.0737 271.845 24.7962 272.967 25.9524 273.834L36.671 271.48L37.2526 274.251L22.9795 277.386L22.4415 274.822L23.9499 274.288C22.4537 273.041 21.5369 271.614 21.1996 270.007C20.8429 268.307 21.0883 266.948 21.9358 265.931C22.8309 264.864 24.4678 264.07 26.8467 263.547L34.6471 261.834L35.2287 264.606L27.4283 266.319C25.1416 266.821 23.9069 267.74 23.7241 269.075C23.6599 269.505 23.6802 269.969 23.7849 270.468Z" fill="white"/>
<path d="M27.3188 207.644C27.4599 207.344 27.5593 206.88 27.6168 206.25C27.6744 205.62 27.6473 205.086 27.5356 204.649L29.7909 204.865C29.8199 205.067 29.8219 205.356 29.7969 205.733L29.7439 206.624C29.7259 206.821 29.7122 206.972 29.7027 207.075C29.5369 208.89 28.8225 210.173 27.5595 210.924C26.5374 211.528 25.237 211.755 23.6582 211.604L16.7654 210.945L16.5747 213.032L15.2497 212.905L14.6087 210.739L11.062 209.717L11.2578 207.573L14.8664 207.918L15.2786 203.406L17.4353 203.612L17.023 208.124L23.9018 208.782C25.7437 208.958 26.8827 208.579 27.3188 207.644Z" fill="white"/>
<path d="M28.1868 158.051L31.7117 149.09L33.7281 149.921L30.2032 158.881L28.1868 158.051Z" fill="white"/>
<path d="M65.5497 105.226C62.2061 109.394 58.5353 109.799 54.5375 106.442C52.8169 104.998 51.9034 103.263 51.7971 101.239C51.6902 99.4115 52.1714 97.8315 53.2407 96.4987C54.4044 95.0481 55.7913 94.3149 57.4013 94.2988C58.899 94.2871 60.3924 94.9065 61.8817 96.157L62.7275 96.8673L56.6842 104.4C58.7302 106.118 60.6631 106.318 62.4832 104.999C62.9166 104.685 63.47 104.109 64.1434 103.269C64.8228 102.422 65.3753 101.5 65.801 100.502L67.6336 102.041C67.1718 103.008 66.4771 104.07 65.5497 105.226ZM59.3612 97.7377C58.6672 97.1549 57.9251 96.8583 57.1348 96.8479C56.2192 96.8431 55.4394 97.242 54.7954 98.0446C54.1161 98.8914 53.8276 99.8014 53.93 100.775C54.0317 101.673 54.4332 102.417 55.1345 103.006L59.3612 97.7377Z" fill="white"/>
<path d="M98.5699 54.075C97.3887 54.8388 96.5889 55.9235 96.1704 57.3292L101.938 66.6655L99.5598 68.2032L91.8796 55.7709L94.0794 54.3485L95.0794 55.5901C95.7365 53.7266 96.7548 52.349 98.1341 51.4571C99.5927 50.514 100.936 50.2637 102.163 50.7064C103.452 51.1767 104.737 52.4479 106.017 54.5199L110.214 61.3143L107.836 62.852L103.639 56.0576C102.408 54.0659 101.143 53.2207 99.8424 53.522C99.4221 53.6139 98.998 53.7983 98.5699 54.075Z" fill="white"/>
<path d="M153.001 25.1332C153.66 24.3263 154.452 23.6622 155.379 23.1409C156.316 22.6174 157.156 22.2671 157.899 22.0901C158.643 21.9132 159.221 21.795 159.634 21.7357L158.24 15.605L160.982 14.9528L165.652 35.4989L163.186 36.0856L162.703 34.4687C162.312 35.3476 161.588 36.102 160.531 36.732C160.121 36.9749 159.687 37.151 159.228 37.2603C158.778 37.3673 158.322 37.4273 157.86 37.4401C157.398 37.4529 156.923 37.4059 156.434 37.2991C155.952 37.1808 155.474 36.9938 155 36.738C154.523 36.4729 154.07 36.1198 153.641 35.6786C152.722 34.7036 152.087 33.4429 151.736 31.8964C151.384 30.35 151.343 29.0401 151.612 27.967C151.888 26.8825 152.351 25.9378 153.001 25.1332ZM155.041 26.3798C154.673 26.933 154.44 27.5901 154.342 28.3509C154.251 29.1002 154.318 29.972 154.544 30.9662C154.768 31.9512 155.073 32.7374 155.458 33.325C155.841 33.9033 156.253 34.3294 156.693 34.6032C157.473 35.0968 158.308 35.2376 159.199 35.0257C160.347 34.7526 161.201 34.103 161.762 33.0769C161.907 32.8193 162.001 32.5978 162.046 32.4125L160.116 23.9206L159.834 23.9585C159.399 24.0038 158.888 24.0964 158.3 24.2362C157.722 24.3739 157.126 24.6272 156.513 24.9963C155.897 25.3561 155.407 25.8173 155.041 26.3798Z" fill="white"/>
<path d="M262.519 22.3325C263.497 22.0094 264.513 21.8805 265.568 21.9456C266.631 22.0139 267.523 22.1764 268.243 22.433C268.964 22.6897 269.513 22.9056 269.892 23.0807L271.918 17.129L274.573 18.0747L267.783 38.021L265.395 37.1703L265.832 35.5371C265.043 36.0677 264.038 36.3109 262.816 36.2665C262.344 36.2485 261.885 36.1602 261.441 36.0018C261.005 35.8466 260.589 35.6482 260.192 35.4068C259.796 35.1653 259.419 34.8658 259.063 34.5082C258.718 34.1448 258.412 33.7252 258.145 33.2494C257.881 32.7646 257.683 32.2181 257.551 31.61C257.285 30.2827 257.408 28.8683 257.919 27.367C258.43 25.8657 259.079 24.7343 259.867 23.9728C260.667 23.2056 261.551 22.6588 262.519 22.3325ZM263.59 24.5027C262.991 24.7701 262.451 25.199 261.971 25.7895C261.502 26.3742 261.104 27.1491 260.775 28.1142C260.45 29.0705 260.296 29.9025 260.315 30.6105C260.336 31.3094 260.461 31.895 260.689 32.3671C261.089 33.2113 261.721 33.787 262.584 34.0943C263.695 34.4904 264.755 34.4072 265.765 33.8449C266.021 33.7059 266.217 33.5702 266.352 33.4378L269.158 25.1939L268.9 25.072C268.51 24.8727 268.03 24.6716 267.461 24.4688C266.9 24.2692 266.265 24.1581 265.555 24.1356C264.848 24.1041 264.193 24.2264 263.59 24.5027Z" fill="white"/>
<path d="M317.349 63.2587C313.147 59.9572 312.614 56.2192 315.749 52.0446C317.098 50.2479 318.76 49.2677 320.736 49.104C322.519 48.9451 324.083 49.3935 325.426 50.4492C326.888 51.5983 327.657 52.9949 327.733 54.6388C327.8 56.1681 327.25 57.7103 326.083 59.2654L325.419 60.1487L317.826 54.1815C316.222 56.3179 316.099 58.2976 317.456 60.1206C317.78 60.5547 318.364 61.1042 319.21 61.7691C320.064 62.4399 320.987 62.9791 321.979 63.3867L320.542 65.3004C319.578 64.8551 318.514 64.1745 317.349 63.2587ZM324.443 56.7342C324.987 56.0095 325.249 55.2435 325.23 54.4361C325.2 53.5007 324.781 52.7151 323.972 52.0793C323.119 51.4085 322.218 51.1387 321.27 51.2698C320.394 51.3982 319.682 51.8285 319.132 52.5607L324.443 56.7342Z" fill="white"/>
<path d="M364.553 86.6608L366.273 89.1727L358.888 99.3602L370.777 95.7504L372.489 98.2506L357.452 102.149L355.843 99.8005L364.553 86.6608Z" fill="white"/>
<path d="M384.254 152.351C382.675 147.247 384.369 143.89 389.336 142.283C391.473 141.591 393.403 141.745 395.125 142.745C396.686 143.638 397.719 144.901 398.224 146.534C398.773 148.311 398.61 149.891 397.734 151.276C396.917 152.563 395.583 153.505 393.733 154.104L392.682 154.444L389.829 145.218C387.287 146.041 386.055 147.586 386.134 149.852C386.153 150.392 386.321 151.176 386.639 152.204C386.96 153.241 387.413 154.211 387.998 155.113L385.721 155.85C385.181 154.933 384.692 153.767 384.254 152.351ZM393.826 151.098C394.688 150.819 395.342 150.344 395.787 149.674C396.296 148.894 396.399 148.013 396.095 147.03C395.774 145.992 395.185 145.255 394.329 144.818C393.534 144.421 392.701 144.363 391.83 144.645L393.826 151.098Z" fill="white"/>
<path d="M416.107 199.795L416.217 202.625L400.696 203.258C398.829 203.334 397.746 203.804 397.449 204.666C397.347 204.954 397.302 205.258 397.315 205.579C397.327 205.899 397.376 206.186 397.462 206.437L395.283 206.526L395.206 206.005C395.18 205.836 395.164 205.671 395.158 205.511C395.088 203.7 395.631 202.369 396.788 201.519C397.698 200.858 398.959 200.495 400.572 200.429L416.107 199.795Z" fill="white"/>
<path d="M401.834 245.42C404.058 245.982 405.69 247.148 406.729 248.919C407.698 250.576 407.946 252.386 407.473 254.35C407.008 256.277 405.974 257.725 404.371 258.693C402.666 259.723 400.697 259.956 398.464 259.392C396.24 258.83 394.613 257.685 393.583 255.955C392.6 254.314 392.339 252.54 392.799 250.631C393.266 248.695 394.312 247.216 395.937 246.195C397.644 245.117 399.61 244.859 401.834 245.42ZM401.143 248.283C398.8 247.692 397.026 248.042 395.821 249.335C395.4 249.793 395.099 250.394 394.92 251.137C394.741 251.88 394.736 252.546 394.905 253.134C395.083 253.724 395.374 254.246 395.78 254.698C396.565 255.549 397.69 256.159 399.154 256.529C401.479 257.116 403.25 256.779 404.467 255.519C404.893 255.081 405.192 254.504 405.365 253.789C405.538 253.073 405.537 252.411 405.363 251.802C405.197 251.205 404.912 250.676 404.508 250.213C403.72 249.294 402.599 248.651 401.143 248.283Z" fill="white"/>
<path d="M369.38 303.786L370.9 301.397L387.777 312.637L386.409 314.787L384.958 313.957C385.282 314.853 385.283 315.897 384.961 317.089C384.836 317.55 384.649 317.975 384.401 318.365C384.147 318.764 383.856 319.125 383.526 319.45C383.204 319.78 382.83 320.069 382.403 320.318C381.984 320.572 381.513 320.768 380.988 320.907C380.472 321.05 379.906 321.104 379.291 321.069C377.96 320.999 376.579 320.487 375.149 319.535C372.965 318.08 371.782 316.204 371.6 313.905C371.432 311.866 371.966 309.875 373.203 307.931L373.583 307.334C373.705 307.143 373.82 306.97 373.929 306.816L369.38 303.786ZM375.838 308.088C375.634 308.269 375.324 308.686 374.908 309.339C374.492 309.992 374.193 310.666 374.008 311.359C373.824 312.053 373.794 312.725 373.918 313.374C374.182 314.752 375.12 315.977 376.73 317.05C378.247 318.06 379.599 318.439 380.789 318.188C381.667 318.002 382.355 317.519 382.852 316.739C383.475 315.759 383.635 314.708 383.33 313.587C383.256 313.3 383.171 313.073 383.075 312.907L375.838 308.088Z" fill="white"/>
<path d="M333.541 358.248C337.679 354.867 341.354 355.235 344.566 359.35C345.948 361.121 346.481 363.007 346.164 365.009C345.888 366.819 345.089 368.264 343.765 369.345C342.325 370.522 340.816 370.95 339.238 370.631C337.77 370.331 336.438 369.414 335.242 367.881L334.562 367.011L342.041 360.901C340.397 358.795 338.548 358.197 336.493 359.108C336.004 359.325 335.343 359.774 334.509 360.455C333.668 361.141 332.936 361.929 332.312 362.816L330.84 360.93C331.493 360.079 332.393 359.185 333.541 358.248ZM338.036 366.86C338.594 367.574 339.258 368.019 340.029 368.193C340.923 368.388 341.769 368.161 342.566 367.51C343.407 366.823 343.878 365.993 343.981 365.02C344.068 364.119 343.83 363.308 343.267 362.586L338.036 366.86Z" fill="white"/>
<path d="M289.249 401.118C289.785 401.06 290.388 400.892 291.06 400.614C291.723 400.34 292.24 400.044 292.612 399.727C292.987 399.418 293.298 399.1 293.545 398.774C293.999 398.177 294.274 397.603 294.371 397.052L290.612 387.545L293.228 386.462L298.602 400.051L296.09 401.091L295.241 399.251C294.913 400.347 294.203 401.362 293.11 402.294C292.719 402.64 292.231 402.934 291.646 403.176C291.062 403.417 290.591 403.561 290.234 403.607L289.249 401.118Z" fill="white"/>
</svg>
