<svg width="276" height="276" viewBox="0 0 276 276" fill="none" xmlns="http://www.w3.org/2000/svg">
<g filter="url(#filter0_d_56_295)">
<path d="M95.8103 265.828L83.5879 260.312L84.5609 258.048L94.202 262.4L96.4946 257.066L89.0476 253.705L89.987 251.519L97.434 254.88L101.013 246.554L103.594 247.719L95.8103 265.828Z" fill="#F92E5E"/>
<path d="M57.0667 233.047C57.3548 233.509 57.7693 233.983 58.3102 234.468C58.844 234.948 59.3321 235.284 59.7744 235.479C60.2106 235.68 60.6262 235.819 61.021 235.894C61.7441 236.036 62.3678 236.025 62.8923 235.862L69.5368 228.092L71.644 229.984L62.1467 241.09L60.1237 239.274L61.3555 237.659C60.2519 237.861 59.0503 237.676 57.7505 237.105C57.2748 236.906 56.8016 236.595 56.331 236.173C55.8604 235.75 55.5259 235.386 55.3273 235.081L57.0667 233.047Z" fill="#F92E5E"/>
<path d="M44.7763 212.984C42.8297 214.198 40.8781 214.553 38.9214 214.049C37.0931 213.576 35.6632 212.471 34.6319 210.734C33.6198 209.029 33.3387 207.253 33.7887 205.404C34.2673 203.437 35.484 201.845 37.4386 200.626C39.3852 199.412 41.3192 199.046 43.2405 199.528C45.0673 199.979 46.4818 201.049 47.4843 202.738C48.5012 204.451 48.7951 206.258 48.3661 208.161C47.9195 210.163 46.7229 211.771 44.7763 212.984ZM43.2726 210.452C45.3234 209.173 46.322 207.639 46.2686 205.848C46.2454 205.217 46.0387 204.573 45.6483 203.916C45.2579 203.258 44.7996 202.782 44.2734 202.488C43.7391 202.198 43.173 202.039 42.5749 202.012C41.4349 201.977 40.224 202.36 38.9423 203.159C36.9076 204.427 35.9017 205.95 35.9246 207.726C35.9301 208.345 36.1209 208.972 36.4968 209.605C36.8727 210.238 37.3326 210.707 37.8765 211.013C38.4076 211.316 38.9745 211.486 39.5774 211.521C40.7672 211.602 41.9989 211.246 43.2726 210.452Z" fill="#F92E5E"/>
<path d="M20.4874 171.341C20.7758 172.718 21.4979 173.84 22.6536 174.707L33.3715 172.349L33.9521 175.121L19.6801 178.261L19.143 175.697L20.6512 175.162C19.1556 173.915 18.2394 172.488 17.9026 170.881C17.5464 169.181 17.7922 167.822 18.6399 166.804C19.5352 165.737 21.1722 164.942 23.5508 164.419L31.3507 162.703L31.9314 165.475L24.1315 167.191C21.845 167.694 20.6102 168.613 20.427 169.948C20.3628 170.378 20.3829 170.843 20.4874 171.341Z" fill="#F92E5E"/>
<path d="M27.3174 133.115C27.4584 132.816 27.5577 132.351 27.6151 131.721C27.6726 131.091 27.6454 130.558 27.5337 130.12L29.789 130.336C29.8179 130.538 29.82 130.828 29.7951 131.204L29.7422 132.096C29.7242 132.293 29.7105 132.443 29.7011 132.547C29.5356 134.361 28.8214 135.644 27.5584 136.396C26.5365 137 25.2361 137.226 23.6574 137.075L16.7647 136.415L16.5743 138.502L15.2493 138.375L14.608 136.208L11.0613 135.185L11.2568 133.042L14.8653 133.388L15.2769 128.875L17.4335 129.082L17.0219 133.594L23.9006 134.253C25.7424 134.429 26.8813 134.05 27.3174 133.115Z" fill="#F92E5E"/>
<path d="M24.9137 104.445L28.4337 95.4825L30.4497 96.3139L26.9297 105.276L24.9137 104.445Z" fill="#F92E5E"/>
<path d="M52.3294 72.4587C48.9891 76.629 45.3213 77.034 41.3262 73.6738C39.6067 72.2277 38.6937 70.4917 38.5872 68.466C38.4801 66.6372 38.9607 65.056 40.0289 63.7224C41.1915 62.271 42.5771 61.5373 44.1859 61.5216C45.6823 61.51 47.1747 62.1302 48.663 63.3819L49.5082 64.0928L43.4709 71.6302C45.5154 73.3498 47.4469 73.55 49.2653 72.2308C49.6983 71.9167 50.2512 71.3397 50.9239 70.4998C51.6026 69.6525 52.1546 68.7294 52.5798 67.7305L54.4112 69.2709C53.9499 70.2393 53.2559 71.302 52.3294 72.4587ZM46.1447 64.9634C45.4512 64.38 44.7096 64.0831 43.92 64.0726C43.005 64.0676 42.2259 64.4666 41.5826 65.2697C40.904 66.1171 40.6159 67.0278 40.7183 68.0018C40.8201 68.9013 41.2214 69.6457 41.9221 70.2351L46.1447 64.9634Z" fill="#F92E5E"/>
<path d="M69.5434 38.3906C68.3628 39.1552 67.5632 40.2409 67.1446 41.6477L72.9054 50.9881L70.5283 52.5276L62.8571 40.0897L65.0559 38.6657L66.0548 39.9078C66.7121 38.0429 67.73 36.664 69.1088 35.7711C70.5667 34.8269 71.9089 34.5761 73.1355 35.0186C74.4234 35.4888 75.7067 36.7604 76.9852 38.8334L81.1776 45.6308L78.8005 47.1703L74.6081 40.3728C73.3792 38.3802 72.1149 37.5349 70.8152 37.8368C70.3952 37.9289 69.9713 38.1135 69.5434 38.3906Z" fill="#F92E5E"/>
<path d="M101.927 21.428C102.586 20.6208 103.379 19.9564 104.306 19.4347C105.242 18.9107 106.082 18.5602 106.826 18.3829C107.57 18.2056 108.148 18.0873 108.56 18.0278L107.169 11.8966L109.91 11.2434L114.573 31.7912L112.108 32.3788L111.624 30.7618C111.233 31.6409 110.509 32.3957 109.452 33.0261C109.043 33.2692 108.608 33.4455 108.149 33.5549C107.699 33.6622 107.244 33.7223 106.782 33.7352C106.32 33.7482 105.845 33.7014 105.356 33.5947C104.874 33.4766 104.396 33.2897 103.922 33.0339C103.446 32.769 102.993 32.416 102.564 31.9748C101.646 31.0001 101.011 29.7394 100.66 28.1928C100.309 26.6461 100.268 25.3361 100.538 24.2627C100.814 23.1779 101.277 22.233 101.927 21.428ZM103.967 22.6741C103.599 23.2276 103.365 23.8848 103.267 24.6458C103.176 25.3953 103.243 26.2672 103.469 27.2614C103.692 28.2465 103.997 29.0328 104.382 29.6203C104.764 30.1986 105.176 30.6246 105.615 30.8983C106.395 31.3917 107.23 31.5323 108.121 31.32C109.269 31.0465 110.123 30.3965 110.684 29.3701C110.829 29.1124 110.924 28.8909 110.969 28.7055L109.042 20.2129L108.76 20.251C108.325 20.2964 107.814 20.3891 107.226 20.5292C106.647 20.667 106.052 20.9206 105.438 21.2899C104.823 21.65 104.333 22.1114 103.967 22.6741Z" fill="#F92E5E"/>
<path d="M169.826 20.3309C170.803 20.0081 171.819 19.8795 172.873 19.9451C173.936 20.0139 174.828 20.1768 175.548 20.4338C176.269 20.6908 176.818 20.9069 177.197 21.0823L179.22 15.1296L181.874 16.0767L175.094 36.0263L172.707 35.1744L173.142 33.5409C172.354 34.0713 171.349 34.3141 170.128 34.2693C169.656 34.251 169.198 34.1626 168.753 34.004C168.317 33.8485 167.901 33.6499 167.505 33.4082C167.109 33.1666 166.732 32.8668 166.375 32.5089C166.03 32.1453 165.724 31.7254 165.457 31.2493C165.193 30.7643 164.995 30.2176 164.863 29.6092C164.597 28.2814 164.719 26.8667 165.229 25.3651C165.739 23.8635 166.388 22.732 167.175 21.9706C167.974 21.2035 168.858 20.6569 169.826 20.3309ZM170.898 22.5022C170.298 22.7694 169.759 23.1983 169.279 23.7887C168.811 24.3734 168.413 25.1484 168.085 26.1137C167.76 27.0701 167.607 27.9023 167.625 28.6105C167.647 29.3097 167.772 29.8955 168 30.3678C168.401 31.2124 169.032 31.7886 169.895 32.0963C171.006 32.4929 172.066 32.4102 173.075 31.8481C173.331 31.7091 173.527 31.5735 173.662 31.4412L176.464 23.1959L176.206 23.0739C175.816 22.8743 175.336 22.6729 174.767 22.4699C174.206 22.27 173.571 22.1586 172.861 22.1357C172.154 22.1039 171.5 22.2261 170.898 22.5022Z" fill="#F92E5E"/>
<path d="M202.05 51.2437C197.851 47.9389 197.317 44.198 200.449 40.0209C201.796 38.2232 203.457 37.2426 205.432 37.0792C207.214 36.9205 208.776 37.3696 210.118 38.4264C211.58 39.5766 212.348 40.9743 212.424 42.6195C212.492 44.15 211.943 45.6932 210.776 47.2492L210.114 48.133L202.525 42.1599C200.923 44.2975 200.8 46.2786 202.157 48.1033C202.48 48.5377 203.064 49.0877 203.91 49.7534C204.763 50.4248 205.685 50.9646 206.677 51.3727L205.241 53.2875C204.278 52.8416 203.214 52.1604 202.05 51.2437ZM209.137 44.7158C209.68 43.9907 209.942 43.2241 209.923 42.4161C209.893 41.4801 209.474 40.6938 208.666 40.0574C207.813 39.3859 206.913 39.1157 205.965 39.2467C205.091 39.375 204.379 39.8054 203.829 40.5381L209.137 44.7158Z" fill="#F92E5E"/>
<path d="M232.245 59.2728L233.964 61.7861L226.581 71.9827L238.463 68.3671L240.173 70.8687L225.145 74.7736L223.539 72.424L232.245 59.2728Z" fill="#F92E5E"/>
<path d="M240.24 105.112C238.664 100.007 240.359 96.6494 245.324 95.0392C247.462 94.3463 249.391 94.4996 251.112 95.4994C252.672 96.3927 253.705 97.6556 254.209 99.2882C254.757 101.065 254.594 102.646 253.718 104.032C252.9 105.319 251.566 106.263 249.716 106.862L248.666 107.203L245.816 97.9757C243.275 98.7997 242.043 100.345 242.121 102.612C242.139 103.152 242.307 103.936 242.625 104.964C242.945 106.002 243.398 106.971 243.982 107.873L241.706 108.611C241.166 107.695 240.678 106.528 240.24 105.112ZM249.81 103.855C250.672 103.576 251.326 103.101 251.771 102.43C252.281 101.65 252.384 100.768 252.08 99.7849C251.76 98.7476 251.172 98.0105 250.315 97.5737C249.521 97.1764 248.688 97.1189 247.817 97.4014L249.81 103.855Z" fill="#F92E5E"/>
<path d="M266.983 130.819L267.093 133.649L251.572 134.284C249.705 134.36 248.622 134.83 248.325 135.692C248.223 135.98 248.178 136.284 248.191 136.605C248.203 136.925 248.252 137.211 248.338 137.463L246.159 137.552L246.082 137.031C246.056 136.862 246.041 136.697 246.034 136.537C245.964 134.726 246.507 133.395 247.664 132.545C248.574 131.884 249.835 131.52 251.448 131.455L266.983 130.819Z" fill="#F92E5E"/>
<path d="M252.99 157.903C255.214 158.466 256.846 159.633 257.885 161.405C258.855 163.062 259.104 164.872 258.631 166.837C258.167 168.764 257.134 170.211 255.531 171.179C253.827 172.209 251.858 172.441 249.625 171.876C247.401 171.314 245.774 170.168 244.745 168.437C243.761 166.796 243.499 165.021 243.959 163.112C244.425 161.175 245.47 159.697 247.095 158.676C248.801 157.599 250.766 157.341 252.99 157.903ZM252.301 160.767C249.958 160.174 248.184 160.524 246.98 161.817C246.559 162.275 246.259 162.876 246.079 163.619C245.9 164.362 245.896 165.028 246.065 165.616C246.243 166.206 246.535 166.728 246.94 167.181C247.726 168.032 248.851 168.643 250.315 169.013C252.64 169.601 254.41 169.265 255.626 168.005C256.052 167.567 256.351 166.99 256.523 166.274C256.696 165.559 256.695 164.896 256.521 164.288C256.354 163.69 256.069 163.161 255.666 162.698C254.878 161.779 253.756 161.135 252.301 160.767Z" fill="#F92E5E"/>
<path d="M228.321 192.034L229.84 189.644L246.708 200.896L245.342 203.047L243.891 202.216C244.215 203.113 244.217 204.158 243.896 205.35C243.77 205.811 243.584 206.237 243.336 206.627C243.083 207.026 242.792 207.387 242.462 207.712C242.141 208.042 241.767 208.332 241.34 208.581C240.922 208.835 240.451 209.031 239.927 209.169C239.411 209.313 238.845 209.367 238.23 209.331C236.9 209.26 235.52 208.748 234.091 207.795C231.908 206.339 230.725 204.46 230.542 202.161C230.374 200.12 230.907 198.127 232.143 196.183L232.522 195.585C232.644 195.394 232.759 195.221 232.868 195.067L228.321 192.034ZM234.776 196.34C234.572 196.521 234.262 196.939 233.847 197.592C233.432 198.245 233.132 198.919 232.949 199.613C232.765 200.308 232.735 200.98 232.859 201.63C233.123 203.009 234.06 204.235 235.67 205.309C237.186 206.32 238.538 206.7 239.726 206.449C240.604 206.263 241.291 205.78 241.787 204.999C242.41 204.019 242.569 202.968 242.264 201.846C242.19 201.558 242.105 201.331 242.009 201.165L234.776 196.34Z" fill="#F92E5E"/>
<path d="M207.45 226.515C211.585 223.132 215.257 223.499 218.466 227.616C219.847 229.388 220.378 231.276 220.061 233.28C219.785 235.091 218.986 236.537 217.664 237.619C216.225 238.797 214.717 239.226 213.14 238.907C211.673 238.607 210.343 237.69 209.147 236.156L208.468 235.285L215.942 229.169C214.3 227.062 212.453 226.464 210.399 227.376C209.91 227.593 209.25 228.042 208.417 228.724C207.577 229.411 206.845 230.199 206.221 231.088L204.75 229.2C205.403 228.349 206.303 227.454 207.45 226.515ZM211.94 235.133C212.497 235.848 213.16 236.292 213.931 236.467C214.825 236.662 215.67 236.434 216.466 235.783C217.306 235.095 217.778 234.264 217.88 233.29C217.968 232.389 217.73 231.578 217.167 230.856L211.94 235.133Z" fill="#F92E5E"/>
<path d="M181.582 256.443C182.117 256.385 182.72 256.217 183.392 255.938C184.054 255.664 184.572 255.367 184.944 255.05C185.319 254.741 185.63 254.423 185.876 254.096C186.33 253.499 186.606 252.925 186.703 252.374L182.949 242.864L185.565 241.78L190.931 255.372L188.42 256.413L187.571 254.573C187.243 255.67 186.533 256.685 185.44 257.618C185.049 257.964 184.561 258.258 183.977 258.5C183.393 258.743 182.922 258.887 182.565 258.933L181.582 256.443Z" fill="#F92E5E"/>
</g>
<defs>
<filter id="filter0_d_56_295" x="6.80908" y="11.2434" width="264.403" height="262.585" filterUnits="userSpaceOnUse" color-interpolation-filters="sRGB">
<feFlood flood-opacity="0" result="BackgroundImageFix"/>
<feColorMatrix in="SourceAlpha" type="matrix" values="0 0 0 0 0 0 0 0 0 0 0 0 0 0 0 0 0 0 127 0" result="hardAlpha"/>
<feOffset dy="4"/>
<feGaussianBlur stdDeviation="2"/>
<feComposite in2="hardAlpha" operator="out"/>
<feColorMatrix type="matrix" values="0 0 0 0 0 0 0 0 0 0 0 0 0 0 0 0 0 0 0.25 0"/>
<feBlend mode="normal" in2="BackgroundImageFix" result="effect1_dropShadow_56_295"/>
<feBlend mode="normal" in="SourceGraphic" in2="effect1_dropShadow_56_295" result="shape"/>
</filter>
</defs>
</svg>
