<svg width="189" height="189" viewBox="0 0 189 189" fill="none" xmlns="http://www.w3.org/2000/svg">
<path d="M65.9953 178.646L53.7729 173.129L54.7459 170.865L64.387 175.217L66.6796 169.883L59.2326 166.522L60.172 164.336L67.619 167.697L71.1977 159.371L73.779 160.537L65.9953 178.646Z" fill="white"/>
<path d="M39.7797 152.717C40.0679 153.179 40.4824 153.652 41.0232 154.138C41.5571 154.617 42.0451 154.954 42.4875 155.149C42.9237 155.35 43.3392 155.488 43.7341 155.564C44.4571 155.706 45.0809 155.695 45.6054 155.532L52.2497 147.762L54.3569 149.654L44.8597 160.76L42.8368 158.944L44.0685 157.329C42.965 157.531 41.7634 157.346 40.4636 156.775C39.9879 156.576 39.5147 156.265 39.0441 155.843C38.5735 155.42 38.239 155.056 38.0404 154.751L39.7797 152.717Z" fill="white"/>
<path d="M36.2154 141.556C34.2688 142.77 32.3172 143.125 30.3606 142.621C28.5323 142.148 27.1024 141.043 26.0711 139.306C25.059 137.601 24.7779 135.825 25.2279 133.976C25.7066 132.009 26.9232 130.416 28.8778 129.198C30.8244 127.984 32.7584 127.618 34.6797 128.1C36.5064 128.551 37.921 129.621 38.9234 131.309C39.9403 133.022 40.2342 134.83 39.8052 136.732C39.3586 138.735 38.162 140.342 36.2154 141.556ZM34.7118 139.024C36.7625 137.745 37.7612 136.21 37.7078 134.42C37.6846 133.789 37.4778 133.145 37.0874 132.487C36.697 131.83 36.2387 131.354 35.7125 131.059C35.1783 130.769 34.6121 130.611 34.0141 130.583C32.8741 130.549 31.6632 130.931 30.3815 131.73C28.3468 132.999 27.3409 134.521 27.3638 136.298C27.3693 136.917 27.5601 137.543 27.936 138.176C28.3119 138.81 28.7718 139.279 29.3157 139.585C29.8467 139.888 30.4137 140.057 31.0166 140.093C32.2063 140.174 33.4381 139.818 34.7118 139.024Z" fill="white"/>
<path d="M18.5619 113.222C18.8503 114.598 19.5723 115.72 20.7281 116.587L31.4459 114.229L32.0266 117.001L17.7546 120.141L17.2174 117.577L18.7257 117.042C17.2301 115.796 16.3139 114.369 15.9771 112.761C15.6209 111.061 15.8667 109.702 16.7144 108.684C17.6097 107.617 19.2467 106.822 21.6253 106.299L29.4252 104.583L30.0058 107.355L22.206 109.071C19.9195 109.574 18.6847 110.493 18.5015 111.829C18.4372 112.258 18.4574 112.723 18.5619 113.222Z" fill="white"/>
<path d="M27.3173 89.4127C27.4584 89.1132 27.5577 88.6486 27.6151 88.0187C27.6726 87.3888 27.6454 86.8552 27.5336 86.4177L29.7889 86.6337C29.8179 86.8357 29.82 87.1251 29.7951 87.502L29.7422 88.3931C29.7242 88.5906 29.7105 88.741 29.7011 88.8444C29.5356 90.6588 28.8213 91.9418 27.5584 92.6932C26.5365 93.2971 25.2361 93.5234 23.6574 93.3722L16.7646 92.712L16.5743 94.7991L15.2493 94.6722L14.608 92.5055L11.0613 91.483L11.2568 89.3395L14.8653 89.6852L15.2769 85.1726L17.4335 85.3792L17.0219 89.8917L23.9006 90.5506C25.7424 90.727 26.8813 90.3477 27.3173 89.4127Z" fill="white"/>
<path d="M23.0066 73.0074L26.5266 64.0449L28.5425 64.8764L25.0226 73.8388L23.0066 73.0074Z" fill="white"/>
<path d="M44.625 53.2377C41.2847 57.408 37.617 57.813 33.6219 54.4528C31.9025 53.0066 30.9895 51.2707 30.8829 49.245C30.7759 47.4161 31.2564 45.8349 32.3246 44.5013C33.4872 43.0498 34.8728 42.3162 36.4815 42.3004C37.978 42.2889 39.4704 42.909 40.9586 44.1608L41.8039 44.8717L35.7666 52.4092C37.8111 54.1288 39.7426 54.329 41.561 53.0098C41.9939 52.6957 42.5468 52.1187 43.2196 51.2787C43.8982 50.4314 44.4502 49.5083 44.8754 48.5095L46.7068 50.0498C46.2455 51.0183 45.5515 52.0809 44.625 53.2377ZM38.4404 45.7423C37.7469 45.1589 37.0053 44.862 36.2157 44.8515C35.3007 44.8465 34.5216 45.2455 33.8784 46.0486C33.1997 46.896 32.9116 47.8067 33.0141 48.7807C33.1158 49.6802 33.5171 50.4247 34.2179 51.0141L38.4404 45.7423Z" fill="white"/>
<path d="M52.6094 29.1935C51.4288 29.9581 50.6292 31.0438 50.2105 32.4506L55.9713 41.7911L53.5942 43.3306L45.9232 30.8926L48.1219 29.4686L49.1209 30.7107C49.7781 28.8458 50.7961 27.4669 52.1747 26.574C53.6327 25.6298 54.9749 25.3789 56.2014 25.8214C57.4894 26.2916 58.7726 27.5632 60.0511 29.6362L64.2434 36.4337L61.8664 37.9732L57.6741 31.1757C56.4451 29.183 55.1808 28.3377 53.8812 28.6397C53.4612 28.7318 53.0373 28.9164 52.6094 29.1935Z" fill="white"/>
<path d="M72.1198 19.2555C72.7787 18.4483 73.5717 17.7839 74.4987 17.2622C75.4349 16.7382 76.2749 16.3876 77.0187 16.2104C77.7625 16.0331 78.3406 15.9148 78.753 15.8553L77.3616 9.72409L80.1027 9.07086L84.7659 29.6187L82.3002 30.2063L81.8171 28.5893C81.4262 29.4684 80.7021 30.2232 79.6449 30.8536C79.2355 31.0967 78.8012 31.273 78.342 31.3824C77.8921 31.4897 77.4362 31.5498 76.9746 31.5628C76.5129 31.5757 76.0376 31.5289 75.5488 31.4222C75.0671 31.3041 74.5891 31.1172 74.1148 30.8615C73.6385 30.5965 73.1857 30.2435 72.7565 29.8024C71.8383 28.8276 71.2038 27.5669 70.8528 26.0203C70.5018 24.4737 70.461 23.1637 70.7304 22.0903C71.0069 21.0054 71.47 20.0605 72.1198 19.2555ZM74.1594 20.5016C73.7914 21.0551 73.5582 21.7123 73.4599 22.4733C73.3686 23.2228 73.4358 24.0947 73.6614 25.0889C73.885 26.074 74.1893 26.8603 74.5743 27.4478C74.9572 28.0261 75.3684 28.4521 75.8081 28.7258C76.5879 29.2192 77.4232 29.3598 78.314 29.1475C79.4618 28.874 80.3162 28.224 80.877 27.1976C81.0218 26.9399 81.1167 26.7184 81.1617 26.533L79.2344 18.0404L78.9526 18.0784C78.5177 18.1239 78.0064 18.2166 77.4187 18.3567C76.8401 18.4945 76.2443 18.7481 75.6312 19.1174C75.016 19.4775 74.5254 19.9389 74.1594 20.5016Z" fill="white"/>
<path d="M115.719 19.1546C116.696 18.8318 117.712 18.7032 118.766 18.7688C119.829 18.8376 120.721 19.0004 121.441 19.2575C122.161 19.5145 122.711 19.7307 123.09 19.906L125.113 13.9533L127.767 14.9004L120.987 34.8501L118.6 33.9982L119.035 32.3646C118.247 32.8951 117.242 33.1379 116.021 33.093C115.549 33.0748 115.091 32.9863 114.646 32.8277C114.21 32.6722 113.794 32.4736 113.398 32.2319C113.002 31.9903 112.625 31.6905 112.268 31.3326C111.923 30.969 111.617 30.5491 111.35 30.073C111.086 29.588 110.888 29.0413 110.756 28.4329C110.49 27.105 110.612 25.6903 111.122 24.1887C111.632 22.6872 112.281 21.5557 113.068 20.7943C113.867 20.0271 114.751 19.4806 115.719 19.1546ZM116.79 21.3259C116.191 21.5931 115.652 22.0219 115.172 22.6124C114.704 23.1971 114.306 23.9721 113.978 24.9374C113.653 25.8937 113.5 26.726 113.518 27.4342C113.54 28.1334 113.665 28.7192 113.893 29.1915C114.294 30.0361 114.925 30.6123 115.788 30.9201C116.899 31.3167 117.959 31.2339 118.968 30.6718C119.224 30.5329 119.42 30.3972 119.555 30.2649L122.357 22.0196L122.099 21.8976C121.708 21.698 121.229 21.4967 120.66 21.2936C120.099 21.0937 119.464 20.9823 118.754 20.9594C118.047 20.9276 117.393 21.0498 116.79 21.3259Z" fill="white"/>
<path d="M134.744 44.1875C130.546 40.8827 130.012 37.1417 133.143 32.9646C134.491 31.1669 136.152 30.1863 138.126 30.0229C139.908 29.8642 141.47 30.3133 142.813 31.3701C144.274 32.5204 145.043 33.9181 145.119 35.5633C145.186 37.0938 144.637 38.6371 143.471 40.1931L142.808 41.0768L135.22 35.1036C133.617 37.2413 133.495 39.2224 134.851 41.0471C135.174 41.4815 135.759 42.0316 136.604 42.6972C137.457 43.3687 138.38 43.9085 139.371 44.3166L137.936 46.2314C136.973 45.7855 135.909 45.1042 134.744 44.1875ZM141.831 37.6596C142.375 36.9345 142.637 36.1679 142.617 35.3599C142.588 34.4238 142.169 33.6376 141.36 33.0011C140.507 32.3297 139.607 32.0594 138.66 32.1904C137.785 32.3187 137.073 32.7492 136.524 33.4819L141.831 37.6596Z" fill="white"/>
<path d="M155.017 43.2089L156.735 45.7221L149.353 55.9188L161.234 52.3032L162.945 54.8048L147.917 58.7098L146.311 56.3602L155.017 43.2089Z" fill="white"/>
<path d="M156.183 77.4054C154.606 72.3002 156.301 68.9424 161.267 67.3322C163.404 66.6392 165.333 66.7926 167.055 67.7923C168.615 68.6856 169.647 69.9485 170.151 71.5811C170.7 73.358 170.536 74.9393 169.66 76.3248C168.842 77.612 167.508 78.5555 165.659 79.1554L164.608 79.496L161.759 70.2687C159.217 71.0927 157.986 72.6383 158.063 74.9053C158.082 75.4451 158.25 76.2291 158.567 77.2574C158.888 78.2946 159.34 79.2642 159.925 80.1662L157.648 80.9043C157.109 79.9878 156.62 78.8215 156.183 77.4054ZM165.752 76.148C166.615 75.8685 167.268 75.3936 167.713 74.7234C168.223 73.9429 168.326 73.061 168.022 72.0779C167.702 71.0406 167.114 70.3035 166.258 69.8666C165.463 69.4693 164.631 69.4119 163.76 69.6943L165.752 76.148Z" fill="white"/>
<path d="M179.943 90.3751L180.053 93.205L164.532 93.8396C162.665 93.916 161.582 94.3854 161.285 95.2479C161.183 95.5355 161.138 95.8397 161.151 96.1604C161.163 96.4811 161.212 96.7673 161.297 97.0189L159.119 97.108L159.042 96.5867C159.016 96.4177 159 96.253 158.994 96.0927C158.923 94.2815 159.467 92.9508 160.624 92.1004C161.534 91.4396 162.795 91.0763 164.408 91.0103L179.943 90.3751Z" fill="white"/>
<path d="M166.112 106.592C168.336 107.155 169.967 108.322 171.007 110.094C171.977 111.751 172.225 113.561 171.752 115.525C171.288 117.453 170.255 118.9 168.653 119.868C166.949 120.898 164.98 121.13 162.747 120.565C160.523 120.003 158.896 118.856 157.866 117.126C156.883 115.485 156.621 113.71 157.08 111.801C157.547 109.864 158.592 108.386 160.217 107.365C161.923 106.288 163.888 106.03 166.112 106.592ZM165.422 109.456C163.079 108.863 161.306 109.213 160.101 110.505C159.68 110.964 159.38 111.564 159.201 112.308C159.022 113.051 159.017 113.717 159.186 114.305C159.365 114.895 159.656 115.417 160.062 115.87C160.847 116.721 161.972 117.332 163.437 117.702C165.761 118.29 167.532 117.954 168.748 116.693C169.173 116.256 169.473 115.679 169.645 114.963C169.817 114.247 169.817 113.585 169.643 112.976C169.476 112.379 169.191 111.85 168.787 111.387C167.999 110.468 166.877 109.824 165.422 109.456Z" fill="white"/>
<path d="M145.978 126.519L147.497 124.129L164.365 135.381L162.999 137.533L161.548 136.701C161.873 137.598 161.874 138.643 161.553 139.835C161.428 140.296 161.241 140.722 160.993 141.113C160.74 141.511 160.449 141.873 160.119 142.198C159.798 142.528 159.424 142.817 158.997 143.066C158.579 143.32 158.108 143.516 157.584 143.654C157.068 143.798 156.502 143.852 155.888 143.816C154.557 143.746 153.177 143.234 151.748 142.28C149.565 140.824 148.382 138.946 148.2 136.646C148.031 134.605 148.565 132.612 149.8 130.668L150.179 130.07C150.301 129.879 150.416 129.706 150.525 129.552L145.978 126.519ZM152.434 130.825C152.229 131.007 151.919 131.424 151.504 132.077C151.089 132.731 150.79 133.404 150.606 134.099C150.422 134.793 150.392 135.465 150.516 136.115C150.78 137.494 151.718 138.72 153.327 139.794C154.843 140.805 156.195 141.185 157.383 140.934C158.261 140.748 158.949 140.265 159.445 139.484C160.067 138.504 160.226 137.453 159.922 136.331C159.847 136.043 159.762 135.816 159.666 135.65L152.434 130.825Z" fill="white"/>
<path d="M133.84 149.279C137.975 145.895 141.647 146.262 144.856 150.38C146.237 152.152 146.769 154.04 146.452 156.043C146.176 157.854 145.377 159.301 144.055 160.383C142.615 161.56 141.107 161.99 139.53 161.67C138.064 161.37 136.733 160.453 135.538 158.919L134.859 158.048L142.333 151.932C140.691 149.825 138.843 149.227 136.79 150.139C136.301 150.356 135.64 150.806 134.807 151.487C133.967 152.175 133.235 152.963 132.611 153.851L131.141 151.963C131.793 151.112 132.693 150.217 133.84 149.279ZM138.33 157.896C138.887 158.611 139.551 159.056 140.321 159.231C141.215 159.426 142.06 159.198 142.857 158.546C143.697 157.859 144.168 157.028 144.27 156.054C144.358 155.153 144.12 154.341 143.558 153.619L138.33 157.896Z" fill="white"/>
<path d="M118.732 171.612C119.267 171.553 119.87 171.385 120.542 171.106C121.205 170.832 121.722 170.535 122.094 170.218C122.469 169.909 122.78 169.591 123.026 169.264C123.481 168.667 123.756 168.093 123.853 167.542L120.099 158.033L122.715 156.948L128.081 170.54L125.57 171.582L124.722 169.741C124.394 170.838 123.683 171.853 122.59 172.786C122.199 173.132 121.712 173.426 121.127 173.669C120.543 173.911 120.072 174.055 119.715 174.101L118.732 171.612Z" fill="white"/>
</svg>
