<svg width="163" height="188" viewBox="0 0 163 188" fill="none" xmlns="http://www.w3.org/2000/svg">
<path fill-rule="evenodd" clip-rule="evenodd" d="M32.9115 15.1179L36.3058 23.8669L34.0712 24.7338L28.4288 10.19L30.5876 9.35247L31.4693 11.6249L31.6586 11.5515C31.713 10.6807 32.0004 9.88649 32.5209 9.16892C33.0389 8.44504 33.8471 7.87004 34.9455 7.44391C35.9302 7.06187 36.8702 6.92959 37.7655 7.04705C38.6584 7.15821 39.4679 7.54134 40.1941 8.19646C40.9179 8.84527 41.5198 9.78829 41.9998 11.0255L45.5851 20.2669L43.3505 21.1339L39.824 12.044C39.3807 10.9014 38.7387 10.1265 37.898 9.71911C37.0548 9.30544 36.1156 9.29943 35.0804 9.70106C34.3671 9.9778 33.7895 10.3798 33.3477 10.9071C32.9122 11.4319 32.6486 12.0534 32.5569 12.7717C32.4652 13.49 32.5834 14.272 32.9115 15.1179ZM30.5935 7.34575L28.8218 7.94592C28.4471 6.98012 28.4156 6.08453 28.7272 5.25917C29.0427 4.42504 29.6076 3.85002 30.4219 3.5341C30.7817 3.39451 31.125 3.33396 31.4517 3.35245C31.776 3.36463 32.095 3.40065 32.4087 3.4605C32.7225 3.52035 33.0364 3.56197 33.3505 3.58537C33.6684 3.6 33.9979 3.54119 34.3387 3.40894C34.6985 3.26935 34.9476 3.01293 35.0861 2.63967C35.2284 2.25765 35.2224 1.8678 35.0681 1.47012L36.8312 0.960396C37.2133 1.94513 37.2392 2.83563 36.909 3.63188C36.5851 4.42569 36.016 4.98055 35.2017 5.29646C34.7662 5.46544 34.3831 5.54507 34.0525 5.53533C33.7195 5.51929 33.4119 5.47522 33.1297 5.40312C32.8476 5.33103 32.5601 5.28277 32.2674 5.25834C31.9722 5.2276 31.6448 5.28203 31.2849 5.42162C30.9251 5.56121 30.6804 5.81957 30.5507 6.19669C30.4249 6.56505 30.4392 6.94807 30.5935 7.34575ZM23.7818 31.5869C22.9683 32.1486 22.1243 32.505 21.2496 32.6564C20.3711 32.8021 19.5349 32.7171 18.741 32.4013C17.9432 32.08 17.2558 31.5014 16.6788 30.6656C16.171 29.9301 15.9043 29.2339 15.8786 28.577C15.849 27.9145 15.9862 27.2849 16.2902 26.6884C16.5941 26.0918 16.9944 25.5275 17.491 24.9954C17.9893 24.454 18.5096 23.9384 19.0519 23.4488C19.7628 22.81 20.3433 22.2981 20.7934 21.9133C21.2453 21.5191 21.5384 21.1809 21.6728 20.8989C21.8128 20.613 21.7731 20.3113 21.5539 19.9937L21.5077 19.9268C20.9384 19.1022 20.2703 18.6172 19.5036 18.4719C18.7424 18.3227 17.9077 18.5617 16.9994 19.1887C16.0578 19.8388 15.4618 20.5547 15.2116 21.3363C14.9613 22.1179 14.8891 22.8177 14.995 23.4358L12.6612 24.0597C12.4569 23.0488 12.4834 22.1337 12.7405 21.3145C12.9994 20.4857 13.4007 19.7561 13.9446 19.1256C14.4901 18.4857 15.086 17.9427 15.7324 17.4964C16.1447 17.2118 16.6529 16.9349 17.2571 16.6659C17.863 16.3875 18.5205 16.2257 19.2297 16.1803C19.9445 16.1312 20.6787 16.2948 21.4323 16.6714C22.1859 17.0479 22.9147 17.746 23.6186 18.7657L29.4581 27.2239L27.4856 28.5856L26.2854 26.8472L26.1851 26.9164C26.2437 27.2873 26.2266 27.7393 26.1339 28.2723C26.0411 28.8053 25.8126 29.3622 25.4483 29.9428C25.0839 30.5234 24.5285 31.0715 23.7818 31.5869ZM22.8594 29.6073C23.6395 29.0688 24.1912 28.4616 24.5145 27.7859C24.8434 27.1063 24.9771 26.4299 24.9154 25.7566C24.8594 25.0795 24.6467 24.4735 24.2774 23.9386L23.031 22.1333C23.0167 22.2913 22.8963 22.5102 22.6698 22.79C22.4451 23.0603 22.17 23.3531 21.8446 23.6683C21.5208 23.974 21.2016 24.2684 20.887 24.5515C20.574 24.8252 20.3213 25.049 20.1288 25.2231C19.6623 25.6438 19.2581 26.0833 18.9163 26.5415C18.5761 26.9902 18.3714 27.4565 18.3023 27.9403C18.2349 28.4147 18.3743 28.9027 18.7205 29.4041C19.1936 30.0895 19.8049 30.4326 20.5543 30.4336C21.3054 30.4252 22.0738 30.1497 22.8594 29.6073ZM53.4029 17.8637C54.544 18.3902 55.8127 18.562 57.2091 18.379C58.6055 18.196 59.7838 17.7036 60.744 16.9017C61.711 16.0989 62.4081 15.0618 62.8356 13.7903C63.2698 12.5179 63.3822 11.0828 63.1728 9.48495C62.9617 7.87373 62.482 6.50597 61.7338 5.38168C60.9922 4.25652 60.0509 3.43068 58.9098 2.90417C57.7754 2.37677 56.51 2.20457 55.1136 2.38756C53.7172 2.57054 52.5356 3.06341 51.5686 3.86616C50.6084 4.66803 49.9117 5.70853 49.4784 6.98765C49.0518 8.26589 48.944 9.71063 49.1552 11.3219C49.3646 12.9196 49.8396 14.2778 50.5802 15.3962C51.3276 16.5138 52.2685 17.3363 53.4029 17.8637ZM59.4407 15.0853C58.8272 15.7188 57.9901 16.1051 56.9294 16.2441C55.8687 16.3831 54.9603 16.2256 54.2043 15.7715C53.4482 15.3175 52.8477 14.6689 52.4026 13.8258C51.9575 12.9828 51.6672 12.0443 51.5317 11.0104C51.3963 9.97655 51.4345 8.99162 51.6464 8.05563C51.8584 7.11963 52.2707 6.33152 52.8833 5.69128C53.496 5.05105 54.3326 4.66143 55.3934 4.52243C56.4541 4.38343 57.3629 4.54432 58.1198 5.00508C58.8767 5.46585 59.4782 6.12113 59.9241 6.97091C60.3701 7.82069 60.6608 8.76251 60.7963 9.79638C60.9318 10.8303 60.8931 11.8118 60.6803 12.7411C60.4674 13.6704 60.0542 14.4518 59.4407 15.0853ZM80.9594 6.25203L78.7579 6.65262C78.6574 6.28246 78.492 5.91625 78.2615 5.554C78.0384 5.18566 77.7152 4.8689 77.2917 4.60374C76.8683 4.33858 76.3094 4.17263 75.6152 4.10592C74.6649 4.01458 73.852 4.15751 73.1763 4.53471C72.5081 4.90582 72.1419 5.42499 72.0778 6.09223C72.0207 6.68533 72.1914 7.17447 72.5897 7.55965C72.988 7.94484 73.6345 8.29605 74.5291 8.6133L76.7796 9.40097C78.1356 9.8714 79.1207 10.4864 79.7347 11.246C80.3493 11.9989 80.6045 12.9179 80.5002 14.003C80.4147 14.8927 80.0821 15.6634 79.5026 16.3151C78.9297 16.9674 78.1689 17.4521 77.2202 17.769C76.2714 18.0859 75.1939 18.1864 73.9874 18.0705C72.4036 17.9183 71.1257 17.4486 70.1539 16.6613C69.182 15.8741 68.6214 14.8067 68.4721 13.4592L70.791 13.1107C70.9264 13.9672 71.2739 14.6331 71.8336 15.1087C72.4 15.5848 73.1718 15.8699 74.1491 15.9638C75.2612 16.0707 76.1667 15.9196 76.8659 15.5107C77.5723 15.0956 77.9576 14.5545 78.0218 13.8873C78.0736 13.3481 77.9283 12.8784 77.5858 12.4782C77.244 12.0712 76.691 11.7392 75.9266 11.482L73.3969 10.6267C72.0072 10.1531 71.0127 9.53032 70.4135 8.75852C69.8216 7.98062 69.5772 7.05586 69.6802 5.98424C69.7644 5.10807 70.0849 4.35663 70.6417 3.72994C71.2052 3.1039 71.9334 2.63993 72.8263 2.33802C73.7259 2.03677 74.7216 1.93861 75.8135 2.04354C77.3501 2.19123 78.5242 2.64417 79.3356 3.40235C80.1537 4.16119 80.695 5.11108 80.9594 6.25203ZM95.3419 22.1583C96.0123 23.2275 97.0117 24.068 98.34 24.6799C99.3855 25.1615 100.391 25.3899 101.357 25.365C102.331 25.3369 103.211 25.1012 103.997 24.658C104.792 24.2115 105.443 23.5984 105.951 22.8186L103.774 21.8158C103.401 22.2701 102.97 22.608 102.48 22.8297C101.99 23.0514 101.469 23.1544 100.917 23.1387C100.365 23.1231 99.8066 22.9849 99.2409 22.7243C98.3799 22.3277 97.733 21.7576 97.3002 21.0141C96.8736 20.2734 96.672 19.4164 96.6954 18.4432C96.725 17.4727 96.9919 16.4402 97.4961 15.3456C97.989 14.2755 98.5935 13.4246 99.3094 12.7927C100.034 12.1576 100.814 11.7676 101.649 11.6227C102.492 11.4745 103.338 11.5959 104.187 11.9869C105.146 12.4288 105.793 13.0322 106.126 13.7971C106.469 14.5587 106.574 15.3006 106.443 16.0228L108.62 17.0256C108.905 16.0834 108.945 15.1626 108.741 14.2633C108.536 13.364 108.119 12.5458 107.49 11.8085C106.86 11.0712 106.047 10.4732 105.051 10.0142C103.772 9.42501 102.508 9.22307 101.26 9.40842C100.02 9.59046 98.8783 10.1117 97.8334 10.9722C96.7974 11.8294 95.948 12.9775 95.2851 14.4165C94.6335 15.831 94.3125 17.2076 94.322 18.5463C94.3315 19.8851 94.6715 21.0891 95.3419 22.1583ZM107.826 29.5319L116.892 16.8366L118.776 18.1824L117.407 20.0999L117.539 20.1943C118.219 19.7314 119.002 19.5208 119.887 19.5624C120.773 19.604 121.596 19.8963 122.356 20.4393C122.499 20.5416 122.677 20.6723 122.888 20.8312C123.098 20.9902 123.255 21.1146 123.357 21.2043L121.941 23.1879C121.887 23.1242 121.753 22.9912 121.539 22.7889C121.336 22.5851 121.104 22.3907 120.845 22.2057C120.228 21.765 119.585 21.501 118.915 21.4138C118.254 21.3249 117.622 21.406 117.019 21.6572C116.424 21.9068 115.923 22.3181 115.513 22.8911L109.776 30.9249L107.826 29.5319ZM119.112 37.6341C119.38 38.8817 120.032 40.0508 121.066 41.1415C121.793 41.908 122.565 42.4864 123.384 42.8769C124.207 43.2628 125.03 43.4618 125.853 43.4741C126.682 43.4817 127.465 43.3038 128.203 42.9402L127.081 40.8127C126.548 41.038 126.021 41.1413 125.499 41.1227C124.983 41.0994 124.481 40.964 123.994 40.7164C123.517 40.469 123.062 40.1169 122.629 39.66C121.962 38.9574 121.53 38.1964 121.331 37.3769C121.138 36.5528 121.194 35.7113 121.499 34.8526C121.785 34.0741 122.292 33.3154 123.021 32.5763L130.817 40.7969L131.554 40.0981C132.61 39.0964 133.367 38.1131 133.823 37.1482C134.28 36.1833 134.503 35.2577 134.493 34.3714C134.488 33.4804 134.311 32.6543 133.963 31.8932C133.614 31.132 133.16 30.4566 132.601 29.867C131.632 28.8451 130.534 28.1885 129.306 27.8973C128.088 27.6063 126.831 27.6688 125.536 28.0846C124.251 28.5007 123.029 29.2585 121.87 30.358C120.71 31.4575 119.894 32.6332 119.42 33.885C118.955 35.1371 118.853 36.3868 119.112 37.6341ZM124.529 31.1551L130.643 37.6026C131.282 36.9969 131.731 36.3287 131.989 35.598C132.253 34.8723 132.308 34.1386 132.156 33.3969C132.008 32.6602 131.635 31.9774 131.039 31.3486C130.382 30.6558 129.642 30.2195 128.818 30.0396C128.004 29.8599 127.196 29.8935 126.394 30.1405C125.707 30.3521 125.086 30.6903 124.529 31.1551ZM130.562 53.7032C130.066 52.848 129.777 51.9785 129.695 51.0947C129.619 50.2075 129.77 49.3806 130.147 48.6139C130.53 47.8439 131.161 47.2041 132.04 46.6947C132.813 46.2464 133.528 46.0353 134.185 46.0613C134.847 46.084 135.464 46.2704 136.035 46.6203C136.606 46.9703 137.137 47.4137 137.628 47.9506C138.129 48.49 138.602 49.0493 139.047 49.6285C139.628 50.3874 140.093 51.0063 140.441 51.4854C140.798 51.9669 141.112 52.2857 141.383 52.4419C141.657 52.6039 141.961 52.5881 142.295 52.3945L142.365 52.3538C143.232 51.8511 143.768 51.2233 143.973 50.4704C144.182 49.7233 144.009 48.8724 143.456 47.9176C142.882 46.9277 142.215 46.2773 141.455 45.9663C140.696 45.6553 140.004 45.5282 139.379 45.5851L138.941 43.2095C139.965 43.0854 140.875 43.1838 141.672 43.5046C142.477 43.8279 143.173 44.2854 143.759 44.8772C144.354 45.4714 144.848 46.1082 145.242 46.7877C145.494 47.2211 145.73 47.7495 145.95 48.373C146.18 48.9989 146.29 49.6671 146.279 50.3777C146.272 51.0941 146.051 51.8132 145.616 52.5348C145.182 53.2564 144.428 53.928 143.356 54.5496L134.465 59.7052L133.263 57.6317L135.09 56.572L135.029 56.4666C134.655 56.4959 134.205 56.4433 133.681 56.3088C133.157 56.1744 132.62 55.9028 132.07 55.4939C131.52 55.085 131.017 54.4881 130.562 53.7032ZM132.608 52.9395C133.084 53.7595 133.645 54.3573 134.294 54.7328C134.945 55.1142 135.609 55.3006 136.285 55.2921C136.964 55.2895 137.585 55.1252 138.148 54.7991L140.045 53.6987C139.889 53.672 139.68 53.5348 139.419 53.287C139.167 53.0417 138.897 52.7444 138.609 52.3952C138.329 52.0484 138.061 51.707 137.803 51.371C137.555 51.0375 137.352 50.7679 137.194 50.5623C136.811 50.0642 136.405 49.6267 135.975 49.2498C135.554 48.8754 135.105 48.6347 134.629 48.5277C134.161 48.4231 133.664 48.5237 133.136 48.8293C132.416 49.2471 132.026 49.8295 131.966 50.5765C131.915 51.3259 132.129 52.1136 132.608 52.9395ZM137.264 66.7706L146.251 64.0685C147.12 63.8073 147.909 63.7504 148.618 63.8978C149.326 64.0453 149.926 64.3565 150.415 64.8316C150.906 65.3132 151.262 65.9203 151.482 66.653C151.802 67.7164 151.723 68.6523 151.245 69.4606C150.773 70.267 149.95 70.8467 148.777 71.1995L139.44 74.0068L140.13 76.3022L149.622 73.4481C150.893 73.066 151.88 72.5394 152.584 71.8684C153.293 71.1955 153.738 70.4183 153.919 69.5368C154.106 68.6534 154.047 67.7059 153.743 66.6944C153.404 65.5662 152.893 64.7156 152.212 64.1427C151.537 63.5679 150.768 63.2195 149.904 63.0974L149.846 62.9029L152.18 62.2011L151.513 59.9835L136.574 64.4752L137.264 66.7706ZM141.09 87.5941C141.024 86.2958 141.295 85.133 141.9 84.1058C142.513 83.0783 143.407 82.2535 144.582 81.6315C145.764 81.0091 147.18 80.6562 148.83 80.5729C150.467 80.4902 151.901 80.6991 153.133 81.1996C154.365 81.7001 155.334 82.4341 156.041 83.4018C156.747 84.3695 157.133 85.5093 157.2 86.8212C157.251 87.8355 157.122 88.6453 156.814 89.2507C156.513 89.8625 156.157 90.3347 155.746 90.6673C155.343 91.0063 155.011 91.2706 154.749 91.46L154.76 91.6629L162.428 91.2756L162.549 93.6694L141.775 94.7186L141.658 92.4059L144.052 92.285L144.038 92.001C143.745 91.8395 143.374 91.6074 142.925 91.3047C142.482 91.0016 142.077 90.5577 141.708 89.973C141.347 89.3879 141.141 88.5949 141.09 87.5941ZM143.257 87.8101C143.305 88.7703 143.596 89.5691 144.13 90.2066C144.671 90.8436 145.396 91.3121 146.306 91.6119C147.223 91.9113 148.27 92.0313 149.446 91.9719C150.61 91.9132 151.619 91.6927 152.474 91.3106C153.336 90.928 153.994 90.3931 154.447 89.7059C154.907 89.0182 155.113 88.1875 155.064 87.2138C155.012 86.1994 154.709 85.3673 154.154 84.7174C153.607 84.0739 152.881 83.6055 151.978 83.3121C151.083 83.0251 150.087 82.9093 148.992 82.9646C147.883 83.0207 146.884 83.2406 145.994 83.6245C145.112 84.0148 144.421 84.5581 143.921 85.2546C143.428 85.9574 143.206 86.8093 143.257 87.8101ZM141.545 102.829C140.683 103.744 140.117 104.892 139.847 106.274C139.577 107.657 139.67 108.93 140.126 110.095C140.58 111.267 141.342 112.258 142.412 113.067C143.48 113.883 144.805 114.445 146.387 114.754C147.982 115.066 149.431 115.045 150.735 114.693C152.037 114.347 153.119 113.717 153.981 112.802C154.841 111.894 155.406 110.748 155.676 109.366C155.946 107.984 155.854 106.707 155.4 105.535C154.945 104.37 154.18 103.379 153.104 102.562C152.028 101.751 150.692 101.19 149.097 100.879C147.516 100.57 146.077 100.589 144.781 100.936C143.484 101.29 142.405 101.921 141.545 102.829ZM142.262 109.437C141.856 108.654 141.756 107.737 141.961 106.687C142.166 105.637 142.604 104.826 143.274 104.253C143.945 103.681 144.751 103.317 145.691 103.163C146.632 103.008 147.614 103.031 148.638 103.231C149.661 103.431 150.583 103.78 151.403 104.278C152.223 104.777 152.84 105.418 153.252 106.202C153.665 106.986 153.768 107.903 153.563 108.953C153.358 110.003 152.917 110.814 152.24 111.385C151.562 111.957 150.75 112.319 149.803 112.472C148.855 112.625 147.87 112.602 146.846 112.402C145.823 112.202 144.905 111.853 144.091 111.356C143.277 110.859 142.668 110.219 142.262 109.437ZM138.626 141.144L139.202 138.982C139.58 139.049 139.981 139.055 140.407 139.001C140.836 138.956 141.26 138.799 141.68 138.529C142.101 138.259 142.489 137.824 142.845 137.224C143.333 136.404 143.55 135.607 143.497 134.835C143.446 134.073 143.132 133.52 142.556 133.178C142.044 132.873 141.529 132.819 141.01 133.015C140.492 133.211 139.899 133.647 139.231 134.321L137.559 136.021C136.555 137.047 135.579 137.676 134.63 137.907C133.687 138.143 132.747 137.982 131.81 137.425C131.042 136.968 130.486 136.339 130.144 135.537C129.798 134.741 129.684 133.846 129.801 132.853C129.919 131.859 130.287 130.842 130.906 129.8C131.719 128.432 132.689 127.476 133.815 126.932C134.941 126.389 136.146 126.337 137.429 126.776L136.755 129.022C135.923 128.78 135.172 128.81 134.504 129.114C133.832 129.423 133.245 130 132.743 130.844C132.173 131.804 131.923 132.688 131.995 133.495C132.069 134.311 132.395 134.89 132.971 135.232C133.437 135.509 133.924 135.578 134.432 135.438C134.945 135.303 135.481 134.944 136.04 134.362L137.892 132.438C138.913 131.383 139.9 130.749 140.853 130.536C141.809 130.332 142.75 130.505 143.676 131.055C144.432 131.504 144.976 132.115 145.305 132.885C145.631 133.662 145.741 134.519 145.633 135.455C145.522 136.397 145.187 137.34 144.626 138.283C143.838 139.61 142.928 140.479 141.896 140.89C140.861 141.306 139.771 141.391 138.626 141.144ZM123.944 141.331C122.725 141.636 121.629 142.298 120.656 143.316C119.683 144.334 119.074 145.457 118.829 146.683C118.579 147.915 118.687 149.16 119.151 150.419C119.611 151.682 120.423 152.87 121.588 153.984C122.763 155.106 123.994 155.871 125.282 156.278C126.565 156.689 127.817 156.742 129.036 156.436C130.25 156.136 131.344 155.477 132.317 154.458C133.289 153.44 133.901 152.315 134.151 151.084C134.396 149.857 134.286 148.609 133.821 147.341C133.352 146.078 132.53 144.885 131.355 143.763C130.19 142.649 128.968 141.889 127.69 141.482C126.407 141.081 125.158 141.03 123.944 141.331ZM120.983 147.281C121.064 146.403 121.474 145.577 122.213 144.804C122.952 144.03 123.758 143.583 124.632 143.463C125.505 143.342 126.38 143.471 127.255 143.849C128.131 144.226 128.945 144.775 129.699 145.495C130.453 146.216 131.041 147.007 131.463 147.869C131.885 148.731 132.058 149.603 131.982 150.486C131.906 151.369 131.499 152.197 130.76 152.971C130.021 153.744 129.212 154.189 128.333 154.305C127.455 154.42 126.575 154.287 125.695 153.905C124.815 153.523 123.998 152.971 123.244 152.251C122.49 151.531 121.905 150.742 121.488 149.884C121.071 149.027 120.903 148.159 120.983 147.281ZM122.889 169.315L110.482 152.62L112.406 151.19L124.813 167.885L122.889 169.315ZM104.596 174.079L100.423 165.855C99.9819 164.985 99.8091 164.173 99.9046 163.419C99.994 162.667 100.248 162.015 100.665 161.461C101.077 160.911 101.548 160.501 102.08 160.231C102.967 159.781 103.851 159.712 104.731 160.025C105.605 160.34 106.299 161.005 106.814 162.02L111.226 170.715L113.363 169.63L108.878 160.79C108.277 159.607 107.586 158.724 106.805 158.141C106.026 157.564 105.201 157.254 104.328 157.211C103.459 157.174 102.59 157.376 101.72 157.817C100.67 158.35 99.9241 159.036 99.4839 159.874C99.0468 160.718 98.8445 161.576 98.8769 162.448L98.732 162.522L97.5371 160.167L95.3996 161.252L102.458 175.163L104.596 174.079ZM83.9248 164.33C85.3472 163.99 86.6523 164.033 87.8402 164.46C89.0281 164.886 90.0395 165.622 90.8744 166.669C91.7094 167.715 92.3079 168.996 92.6699 170.51C93.0383 172.051 93.0802 173.479 92.7956 174.793C92.5061 176.115 91.9304 177.231 91.0687 178.14C90.2019 179.057 89.0837 179.68 87.7139 180.007C86.6471 180.262 85.6384 180.294 84.6879 180.104C83.7374 179.913 82.9038 179.528 82.1872 178.947C81.4706 178.367 80.9331 177.618 80.5748 176.701L82.906 176.144C83.249 176.793 83.7906 177.311 84.5305 177.698C85.2654 178.093 86.1465 178.168 87.1738 177.922C88.0826 177.705 88.8228 177.278 89.3943 176.64C89.9608 176.01 90.3327 175.222 90.51 174.274C90.6823 173.335 90.6315 172.292 90.3576 171.147C90.0774 169.974 89.649 168.998 89.0725 168.217C88.4893 167.437 87.8011 166.888 87.0079 166.569C86.2082 166.252 85.3473 166.204 84.4254 166.425C83.8195 166.569 83.2948 166.806 82.8513 167.135C82.4078 167.464 82.062 167.867 81.814 168.344C81.566 168.821 81.4357 169.353 81.4231 169.941L79.0919 170.498C79.0095 169.571 79.1426 168.686 79.4913 167.844C79.8349 167.01 80.3811 166.281 81.1299 165.656C81.8736 165.04 82.8053 164.598 83.9248 164.33ZM74.6448 181.895L73.534 166.334L71.1432 166.505L72.254 182.065L74.6448 181.895ZM74.8538 184.965C74.4934 184.672 74.0802 184.542 73.6142 184.575C73.1482 184.608 72.7611 184.795 72.4528 185.136C72.1378 185.478 71.9962 185.872 72.028 186.317C72.0599 186.763 72.2559 187.133 72.6163 187.426C72.9699 187.72 73.3797 187.85 73.8457 187.817C74.3117 187.783 74.7022 187.596 75.0172 187.254C75.3255 186.913 75.4637 186.52 75.4319 186.074C75.4 185.629 75.2073 185.259 74.8538 184.965ZM59.701 165.94C61.1027 166.077 62.2998 166.531 63.2925 167.302C64.2784 168.072 65.0092 169.086 65.4847 170.343C65.9536 171.6 66.1095 173.03 65.9525 174.634C65.7942 176.251 65.3629 177.634 64.6586 178.783C63.9475 179.931 63.0337 180.788 61.9172 181.352C60.7939 181.915 59.5315 182.129 58.1298 181.991C56.7282 181.854 55.5344 181.401 54.5485 180.631C53.5558 179.86 52.8254 178.843 52.3572 177.579C51.8823 176.315 51.724 174.874 51.8823 173.257C52.0393 171.653 52.473 170.28 53.1834 169.139C53.887 167.997 54.8005 167.144 55.9238 166.581C57.0403 166.016 58.2994 165.803 59.701 165.94ZM59.4913 168.083C58.4266 167.979 57.5238 168.166 56.7831 168.644C56.0423 169.123 55.4633 169.791 55.046 170.648C54.6288 171.505 54.3693 172.453 54.2678 173.49C54.1662 174.528 54.2366 175.511 54.4791 176.44C54.7215 177.368 55.1594 178.143 55.7927 178.762C56.4259 179.382 57.2749 179.744 58.3396 179.849C59.4043 179.953 60.3074 179.762 61.0488 179.277C61.7902 178.792 62.3699 178.117 62.7878 177.253C63.2057 176.389 63.4655 175.438 63.5671 174.401C63.6686 173.363 63.5979 172.383 63.3547 171.461C63.1116 170.539 62.6731 169.772 62.0392 169.159C61.4053 168.546 60.556 168.187 59.4913 168.083ZM45.8005 163.677L42.6872 172.53C42.3862 173.386 41.9673 174.057 41.4304 174.543C40.8935 175.029 40.289 175.329 39.6168 175.445C38.9383 175.558 38.2381 175.487 37.5163 175.233C36.4688 174.865 35.7594 174.25 35.3881 173.387C35.0145 172.531 35.031 171.524 35.4376 170.368L38.6721 161.17L36.411 160.375L33.1226 169.726C32.6823 170.978 32.526 172.086 32.6537 173.05C32.7791 174.02 33.1447 174.837 33.7505 175.503C34.3541 176.174 35.1541 176.685 36.1505 177.036C37.2619 177.426 38.2498 177.515 39.1141 177.303C39.9762 177.096 40.7111 176.68 41.3189 176.054L41.5105 176.121L40.7018 178.421L42.8863 179.189L48.0616 164.472L45.8005 163.677ZM26.217 154.142C27.4775 154.961 28.3841 155.946 28.9367 157.096C29.48 158.248 29.6722 159.488 29.5133 160.813C29.3451 162.141 28.8257 163.475 27.9552 164.815C27.0847 166.155 26.0734 167.178 24.9211 167.882C23.7595 168.589 22.5524 168.943 21.2998 168.945C20.0378 168.949 18.8163 168.567 17.6353 167.8C16.9539 167.357 16.3549 166.807 15.8381 166.148C15.3213 165.489 14.9564 164.728 14.7433 163.862C14.5265 163.003 14.5273 162.051 14.7459 161.006C14.9645 159.961 15.4703 158.828 16.2633 157.607L16.8166 156.756L26.317 162.927C26.8536 162.038 27.1698 161.182 27.2656 160.358C27.3618 159.452 27.2196 158.621 26.8387 157.865C26.4542 157.114 25.856 156.475 25.044 155.948C24.516 155.605 23.9911 155.369 23.4693 155.24C22.9382 155.113 22.4188 155.098 21.911 155.196C21.3995 155.3 20.9111 155.524 20.4457 155.867L18.8579 154.061C19.4902 153.535 20.2099 153.179 21.0171 152.993C21.8207 152.812 22.6677 152.814 23.5581 152.997C24.4449 153.185 25.3312 153.567 26.217 154.142ZM23.6067 166.084C24.2252 165.718 24.7507 165.244 25.1832 164.662L17.732 159.821C17.2525 160.559 16.9722 161.314 16.8912 162.085C16.8046 162.852 16.9221 163.578 17.2439 164.264C17.56 164.945 18.0815 165.522 18.8082 165.994C19.6088 166.515 20.4306 166.766 21.2737 166.748C22.1073 166.733 22.885 166.511 23.6067 166.084ZM2.69261 149.442L0.754902 148.323C0.218226 149.364 0.0162484 150.438 0.148968 151.546C0.27697 152.649 0.878975 153.754 1.95498 154.861C2.71951 155.648 3.54219 156.217 4.423 156.57C5.2991 156.917 6.15452 157.035 6.98926 156.922C7.81928 156.804 8.54987 156.439 9.18104 155.825C9.953 155.075 10.3651 154.212 10.4172 153.236C10.4598 152.26 10.1046 151.141 9.35153 149.881L7.97627 147.592C7.55992 146.901 7.35311 146.29 7.35586 145.759C7.35376 145.232 7.54691 144.78 7.93532 144.402C8.41597 143.935 9.0599 143.772 9.86711 143.913C10.6647 144.053 11.4529 144.524 12.2316 145.325C12.9159 146.029 13.3199 146.746 13.4436 147.475C13.5626 148.2 13.3966 148.933 12.9456 149.673L14.9391 150.908C15.6972 149.784 15.9605 148.608 15.729 147.379C15.4974 146.149 14.8271 144.964 13.7181 143.824C12.8733 142.954 11.9867 142.334 11.0583 141.961C10.1299 141.589 9.23625 141.466 8.37736 141.593C7.51376 141.715 6.76153 142.087 6.12065 142.71C5.33898 143.47 4.93886 144.336 4.92029 145.308C4.89686 146.284 5.24986 147.39 5.97929 148.626L7.18547 150.683C7.66222 151.504 7.92781 152.19 7.98224 152.742C8.03667 153.293 7.85025 153.776 7.423 154.192C6.94235 154.659 6.32721 154.818 5.57758 154.668C4.81838 154.519 4.10607 154.101 3.44065 153.417C2.95456 152.917 2.63588 152.429 2.48462 151.953C2.33337 151.476 2.29188 151.026 2.36015 150.601C2.41886 150.175 2.52967 149.789 2.69261 149.442Z" fill="white"/>
</svg>
