<svg width="661" height="104" viewBox="0 0 661 104" fill="none" xmlns="http://www.w3.org/2000/svg">
<rect x="108.5" y="0.5" width="440" height="103" fill="#272727" stroke="white"/>
<rect x="27" y="16" width="81" height="14" fill="#D73E4C"/>
<rect x="27" y="16" width="81" height="14" fill="#D73E4C"/>
<rect x="549" y="16" width="80" height="14" fill="#D73E4C"/>
<rect x="27" y="35" width="81" height="14" fill="#F67246"/>
<rect x="549" y="35" width="80" height="14" fill="#F67246"/>
<rect x="27" y="54" width="81" height="14" fill="#E9C465"/>
<rect x="27" y="74" width="81" height="14" fill="#8FABA7"/>
<rect x="549" y="74" width="80" height="14" fill="#8FABA7"/>
<rect x="549" y="54" width="80" height="14" fill="#E9C465"/>
<path d="M205 52C205 66.7881 192.144 79 176 79C159.856 79 147 66.7881 147 52C147 37.2119 159.856 25 176 25C192.144 25 205 37.2119 205 52Z" fill="#1E1E1E" stroke="#D9D9D9" stroke-width="4"/>
<rect x="234.5" y="30.5" width="188" height="43" fill="#1E1E1E" stroke="#D9D9D9"/>
<rect x="145" y="52" width="62" height="4" fill="#D9D9D9"/>
<rect width="55.9083" height="4.59826" transform="matrix(-0.00204098 0.999998 -0.999998 -0.0019314 178.914 23.4908)" fill="#D9D9D9"/>
<rect width="56.7158" height="4.53451" transform="matrix(-0.725678 0.688034 -0.707784 -0.706429 200.708 35.0743)" fill="#D9D9D9"/>
<rect width="56.8262" height="4.52566" transform="matrix(0.772548 0.634957 -0.655734 0.754992 153.757 34.2507)" fill="#D9D9D9"/>
<path d="M199.5 52C199.5 63.8436 189.234 73.5 176.5 73.5C163.766 73.5 153.5 63.8436 153.5 52C153.5 40.1564 163.766 30.5 176.5 30.5C189.234 30.5 199.5 40.1564 199.5 52Z" fill="#171717" stroke="#D9D9D9"/>
<path d="M516 52C516 66.7592 502.951 79 486.5 79C470.049 79 457 66.7592 457 52C457 37.2408 470.049 25 486.5 25C502.951 25 516 37.2408 516 52Z" fill="#1E1E1E" stroke="#D9D9D9" stroke-width="4"/>
<rect x="455" y="52" width="63" height="4" fill="#D9D9D9"/>
<rect width="55.9083" height="4.59826" transform="matrix(-0.00204098 0.999998 -0.999998 -0.0019314 488.722 23.4908)" fill="#D9D9D9"/>
<rect width="56.7158" height="4.53451" transform="matrix(-0.725678 0.688034 -0.707784 -0.706429 510.516 35.0743)" fill="#D9D9D9"/>
<rect width="56.8262" height="4.52566" transform="matrix(0.772548 0.634957 -0.655734 0.754992 463.564 34.2507)" fill="#D9D9D9"/>
<path d="M509.5 52C509.5 63.8341 499.021 73.5 486 73.5C472.979 73.5 462.5 63.8341 462.5 52C462.5 40.1659 472.979 30.5 486 30.5C499.021 30.5 509.5 40.1659 509.5 52Z" fill="#171717" stroke="#D9D9D9"/>
<path d="M10 40L12.2451 46.2188H19.5106L13.6327 50.0623L15.8779 56.2812L10 52.4377L4.12215 56.2812L6.36729 50.0623L0.489435 46.2188H7.75486L10 40Z" fill="#D9D9D9"/>
<path d="M651 40L653.245 46.2188H660.511L654.633 50.0623L656.878 56.2812L651 52.4377L645.122 56.2812L647.367 50.0623L641.489 46.2188H648.755L651 40Z" fill="#D9D9D9"/>
<path d="M423 31C418.742 32.055 414.091 38.7482 412.608 42.7583C411.061 46.939 410.364 52.9431 411.731 57.2468C413.049 61.3953 414.078 64.9709 416.489 68.4466C417.784 70.3128 420.383 72.1629 421.31 74" stroke="#FBFBFB" stroke-linecap="round"/>
<path d="M374.291 73.009C378.602 71.8332 383.149 65.0032 384.544 60.9479C385.999 56.72 386.534 50.6912 385.015 46.4224C383.55 42.3075 382.395 38.7579 379.835 35.3472C378.461 33.5159 375.756 31.7375 374.757 29.925" stroke="#FBFBFB" stroke-linecap="round"/>
</svg>
