<svg width="381" height="69" viewBox="0 0 381 69" fill="none" xmlns="http://www.w3.org/2000/svg">
<path d="M0.142578 58.2441C0.552734 54.8457 1.28516 51.623 2.33984 48.5762C3.39453 45.4707 4.68359 42.4824 6.20703 39.6113C7.73047 36.6816 9.42969 33.8105 11.3047 30.998C13.1797 28.1855 15.1719 25.3438 17.2812 22.4727C18.5117 20.8906 19.8594 19.2793 21.3242 17.6387C22.7891 15.998 24.3711 14.5039 26.0703 13.1562C27.7695 11.8086 29.5859 10.7246 31.5195 9.9043C33.5117 9.02539 35.5918 8.58594 37.7598 8.58594C38.9316 8.58594 39.8398 8.67383 40.4844 8.84961C41.1289 8.9668 41.5977 9.25977 41.8906 9.72852C42.2422 10.1387 42.4473 10.7539 42.5059 11.5742C42.5645 12.3945 42.5645 13.4492 42.5059 14.7383C42.5059 16.2031 42.2422 17.6973 41.7148 19.2207C41.1875 20.7441 40.4551 22.1797 39.5176 23.5273C38.5801 24.875 37.4668 26.0762 36.1777 27.1309C34.8887 28.127 33.5117 28.8594 32.0469 29.3281V28.0977C32.0469 26.8672 32.3105 25.6953 32.8379 24.582C33.4238 23.4688 34.0684 22.3555 34.7715 21.2422C35.4746 20.0703 36.0898 18.8691 36.6172 17.6387C37.2031 16.4082 37.4961 15.0898 37.4961 13.6836C36.8516 13.6836 36.2949 13.6543 35.8262 13.5957C35.3574 13.4785 34.918 13.4199 34.5078 13.4199C34.1562 13.3613 33.7754 13.4199 33.3652 13.5957C33.0137 13.7129 32.5742 14.0059 32.0469 14.4746C29.1758 16.8184 26.2168 19.5723 23.1699 22.7363C20.1816 25.8418 17.457 29.2109 14.9961 32.8438C12.5352 36.4766 10.5137 40.2852 8.93164 44.2695C7.4082 48.1953 6.64648 52.1504 6.64648 56.1348C6.64648 56.3105 6.64648 56.6035 6.64648 57.0137C6.70508 57.4238 6.73438 57.834 6.73438 58.2441C6.79297 58.6543 6.85156 59.0352 6.91016 59.3867C6.96875 59.7383 6.99805 59.9434 6.99805 60.002C7.64258 60.6465 8.4043 61.0273 9.2832 61.1445C10.2207 61.2617 10.9238 61.3203 11.3926 61.3203C13.9121 61.3203 16.2559 60.8809 18.4238 60.002C20.6504 59.123 22.8184 58.1855 24.9277 57.1895C27.0371 56.1348 29.1465 55.168 31.2559 54.2891C33.4238 53.4102 35.709 52.9707 38.1113 52.9707C38.1113 53.9082 37.5547 54.9629 36.4414 56.1348C35.3867 57.248 33.9805 58.3613 32.2227 59.4746C30.5234 60.5879 28.6191 61.6719 26.5098 62.7266C24.4004 63.7227 22.3203 64.6309 20.2695 65.4512C18.2773 66.2715 16.4316 66.916 14.7324 67.3848C13.0918 67.8535 11.832 68.0879 10.9531 68.0879C9.66406 68.0879 8.375 67.8535 7.08594 67.3848C5.79688 66.8574 4.625 66.1543 3.57031 65.2754C2.57422 64.3965 1.75391 63.3711 1.10938 62.1992C0.464844 60.9688 0.142578 59.6504 0.142578 58.2441ZM58.2383 61.2324C58.2383 59.4746 58.5898 57.8633 59.293 56.3984C60.0547 54.875 60.875 53.4395 61.7539 52.0918C62.6328 50.7441 63.4238 49.3965 64.127 48.0488C64.8887 46.7012 65.2695 45.2656 65.2695 43.7422C65.2695 43.3906 65.2402 42.9805 65.1816 42.5117C65.1816 41.9844 65.123 41.4863 65.0059 41.0176C64.9473 40.5488 64.7715 40.168 64.4785 39.875C64.2441 39.5234 63.9219 39.3477 63.5117 39.3477C63.4531 39.3477 63.3359 39.377 63.1602 39.4355C63.043 39.4355 62.9844 39.4648 62.9844 39.5234C62.1641 40.6367 61.168 41.8965 59.9961 43.3027C58.8828 44.6504 57.6816 45.998 56.3926 47.3457C55.1035 48.6934 53.8438 49.9824 52.6133 51.2129C51.3828 52.4434 50.2695 53.4688 49.2734 54.2891C48.5703 54.9336 47.6035 55.8125 46.373 56.9258C45.2012 58.0391 44 59.1523 42.7695 60.2656C41.5977 61.3203 40.543 62.2578 39.6055 63.0781C38.7266 63.8984 38.2285 64.3086 38.1113 64.3086L34.0684 60.8809C34.5957 60.8809 35.123 60.7637 35.6504 60.5293C36.1191 60.2949 36.5879 60.0312 37.0566 59.7383C40.5723 57.3945 43.7363 54.6992 46.5488 51.6523C49.4199 48.6055 52.2324 45.3242 54.9863 41.8086C55.1035 41.6328 55.3965 41.1348 55.8652 40.3145C56.3926 39.4355 56.9492 38.4688 57.5352 37.4141C58.1211 36.3008 58.707 35.2168 59.293 34.1621C59.8789 33.0488 60.3184 32.1699 60.6113 31.5254C60.9629 30.7637 61.168 30.1484 61.2266 29.6797C61.3438 29.2109 61.4316 28.8594 61.4902 28.625C61.6074 28.332 61.7832 28.127 62.0176 28.0098C62.252 27.8926 62.75 27.834 63.5117 27.834C63.6289 27.834 63.8926 27.8633 64.3027 27.9219C64.7715 27.9805 65.0645 28.0391 65.1816 28.0977C65.9434 29.6797 66.6172 31.0859 67.2031 32.3164C67.7891 33.5469 68.2871 34.7188 68.6973 35.832C69.1074 36.8867 69.4004 37.9707 69.5762 39.084C69.8105 40.1973 69.9277 41.4277 69.9277 42.7754C69.166 44.709 68.3164 46.7012 67.3789 48.752C66.4414 50.7441 65.6504 52.6484 65.0059 54.4648C64.3613 56.2812 63.9512 57.9219 63.7754 59.3867C63.6582 60.8516 63.9805 62.0234 64.7422 62.9023C65.5625 63.7227 66.9102 64.1621 68.7852 64.2207C70.7188 64.2793 73.4434 63.7812 76.959 62.7266C77.8965 63.1953 77.9844 63.7812 77.2227 64.4844C76.4609 65.1289 75.2891 65.7441 73.707 66.3301C72.1836 66.916 70.4844 67.4141 68.6094 67.8242C66.793 68.1758 65.2695 68.2637 64.0391 68.0879C62.9258 68.0879 61.9883 67.9121 61.2266 67.5605C60.5234 67.1504 59.9375 66.623 59.4688 65.9785C59.0586 65.334 58.7363 64.6016 58.502 63.7812C58.3262 62.9609 58.2383 62.1113 58.2383 61.2324ZM73.4434 63.4297C72.4473 61.2031 72.0078 59.0352 72.125 56.9258C72.2422 54.7578 72.7109 52.7363 73.5312 50.8613C74.4102 48.9277 75.5234 47.1992 76.8711 45.6758C78.2773 44.0938 79.7715 42.7461 81.3535 41.6328C82.9355 40.4609 84.5176 39.582 86.0996 38.9961C87.7402 38.4102 89.1758 38.1758 90.4062 38.293C91.6367 38.3516 92.6035 38.791 93.3066 39.6113C94.0098 40.4316 94.2441 41.6914 94.0098 43.3906C94.0098 45.6758 93.2773 47.668 91.8125 49.3672C90.4062 51.0664 88.8242 52.5898 87.0664 53.9375C85.3672 55.2852 83.7852 56.5156 82.3203 57.6289C80.9141 58.6836 80.2109 59.6797 80.2109 60.6172C80.2109 61.1445 80.5039 61.5547 81.0898 61.8477C81.7344 62.1406 82.4668 62.375 83.2871 62.5508C84.1074 62.668 84.9277 62.7559 85.748 62.8145C86.5684 62.873 87.1543 62.9316 87.5059 62.9902C93.0137 61.8184 97.1445 61.1152 99.8984 60.8809C102.652 60.5879 104.381 60.6172 105.084 60.9688C105.787 61.2617 105.641 61.7598 104.645 62.4629C103.707 63.1074 102.242 63.8105 100.25 64.5723C98.2578 65.2754 95.9434 65.9199 93.3066 66.5059C90.6699 67.0918 88.0625 67.4434 85.4844 67.5605C82.9062 67.6191 80.5039 67.3555 78.2773 66.7695C76.1094 66.1836 74.498 65.0703 73.4434 63.4297ZM88.8242 43.3906C87.6523 43.3906 86.5391 43.7129 85.4844 44.3574C84.4297 45.002 83.4629 45.8223 82.584 46.8184C81.7637 47.7559 81.0605 48.8105 80.4746 49.9824C79.8887 51.0957 79.4492 52.1504 79.1562 53.1465C79.2734 53.2051 79.3613 53.2344 79.4199 53.2344H79.6836C80.5039 53.2344 81.4414 52.8828 82.4961 52.1797C83.5508 51.4766 84.5469 50.627 85.4844 49.6309C86.4219 48.5762 87.2129 47.4922 87.8574 46.3789C88.502 45.2656 88.8242 44.2695 88.8242 43.3906ZM103.766 62.2871C104.293 58.9473 105.289 55.8711 106.754 53.0586C108.219 50.2461 109.889 47.8145 111.764 45.7637C113.697 43.6543 115.777 41.9258 118.004 40.5781C120.23 39.2305 122.398 38.3809 124.508 38.0293C126.617 37.6191 128.551 37.707 130.309 38.293C132.125 38.8789 133.59 40.0508 134.703 41.8086C134.703 43.1562 134.381 44.4453 133.736 45.6758C133.15 46.9062 132.477 48.1367 131.715 49.3672C131.012 50.5977 130.338 51.8574 129.693 53.1465C129.107 54.4355 128.814 55.8125 128.814 57.2773C128.814 58.8008 129.137 60.0312 129.781 60.9688C130.484 61.8477 131.686 62.2871 133.385 62.2871C134.791 62.2871 136.139 62.082 137.428 61.6719C138.775 61.2617 140.123 61.0566 141.471 61.0566C141.705 61.0566 142.086 61.0859 142.613 61.1445C143.199 61.1445 143.58 61.1445 143.756 61.1445C143.053 62.1406 142.145 62.9902 141.031 63.6934C139.918 64.3965 138.746 65.0117 137.516 65.5391C136.285 66.0078 134.996 66.3594 133.648 66.5938C132.359 66.8281 131.158 66.9453 130.045 66.9453C128.99 66.9453 128.053 66.7109 127.232 66.2422C126.412 65.7734 125.709 65.1582 125.123 64.3965C124.537 63.6348 124.068 62.7852 123.717 61.8477C123.424 60.8516 123.277 59.8848 123.277 58.9473C122.398 59.9434 121.432 60.998 120.377 62.1113C119.381 63.166 118.297 64.1328 117.125 65.0117C116.012 65.8906 114.781 66.623 113.434 67.209C112.145 67.7949 110.797 68.0879 109.391 68.0879C107.867 68.0879 106.549 67.5312 105.436 66.418C104.322 65.2461 103.766 63.8691 103.766 62.2871ZM109.566 59.5625C109.566 60.0312 109.566 60.5586 109.566 61.1445C109.625 61.7305 110.006 62.1113 110.709 62.2871C112.174 61.9355 113.844 61.1738 115.719 60.002C117.594 58.7715 119.352 57.3652 120.992 55.7832C122.633 54.1426 124.01 52.4141 125.123 50.5977C126.236 48.7227 126.793 46.9355 126.793 45.2363C126.793 45.1191 126.764 44.9434 126.705 44.709C126.705 44.416 126.705 44.2109 126.705 44.0938C124.713 44.0938 122.691 44.5039 120.641 45.3242C118.59 46.1445 116.744 47.2871 115.104 48.752C113.463 50.1582 112.115 51.7988 111.061 53.6738C110.064 55.5488 109.566 57.5117 109.566 59.5625ZM140.68 59.4746C140.68 57.7754 141.002 56.0762 141.646 54.377C142.291 52.6777 143.053 51.0078 143.932 49.3672C144.811 47.668 145.689 45.998 146.568 44.3574C147.506 42.7168 148.209 41.1055 148.678 39.5234C147.564 40.168 146.598 40.5488 145.777 40.666C145.016 40.7246 144.078 40.7539 142.965 40.7539C142.848 40.7539 142.467 40.7539 141.822 40.7539C141.236 40.6953 140.855 40.666 140.68 40.666C141.031 39.377 141.676 38.2344 142.613 37.2383C143.551 36.1836 144.605 35.3047 145.777 34.6016C147.008 33.8398 148.268 33.2246 149.557 32.7559C150.904 32.2285 152.105 31.8184 153.16 31.5254C154.918 28.7715 156.354 26.0176 157.467 23.2637C158.58 20.4512 159.693 17.7266 160.807 15.0898C161.979 12.3945 163.326 9.8457 164.85 7.44336C166.432 4.98242 168.541 2.72656 171.178 0.675781L171.617 4.01562L160.631 29.7676C161.275 29.5918 162.066 29.416 163.004 29.2402C163.941 29.0645 164.879 28.8887 165.816 28.7129C166.812 28.5371 167.75 28.3906 168.629 28.2734C169.566 28.0977 170.357 27.9219 171.002 27.7461C171.061 27.7461 171.236 27.7461 171.529 27.7461C171.822 27.6875 172.057 27.6582 172.232 27.6582C173.053 27.6582 173.727 27.8047 174.254 28.0977C174.781 28.3906 175.221 29.0352 175.572 30.0312C171.588 31.2031 167.984 32.4336 164.762 33.7227C161.539 35.0117 158.727 36.7109 156.324 38.8203C153.98 40.8711 152.047 43.5078 150.523 46.7305C149.059 49.8945 148.033 53.9668 147.447 58.9473C147.447 60.002 147.506 60.9688 147.623 61.8477C147.74 62.7266 148.473 63.2539 149.82 63.4297C151.168 63.4297 152.428 63.166 153.6 62.6387C154.771 62.1113 155.914 61.5547 157.027 60.9688C158.141 60.3242 159.254 59.7383 160.367 59.2109C161.539 58.6836 162.799 58.4199 164.146 58.4199C164.146 59.8262 163.531 61.1152 162.301 62.2871C161.07 63.459 159.576 64.4844 157.818 65.3633C156.119 66.2422 154.361 66.916 152.545 67.3848C150.729 67.8535 149.234 68.0879 148.062 68.0879C146.891 68.0879 145.836 67.8535 144.898 67.3848C143.961 66.916 143.17 66.3008 142.525 65.5391C141.939 64.7188 141.471 63.7812 141.119 62.7266C140.826 61.6719 140.68 60.5879 140.68 59.4746ZM163.795 62.2871C163.795 61.4668 163.883 60.7637 164.059 60.1777C164.234 59.5332 164.557 58.7129 165.025 57.7168C165.436 57.1309 166.168 56.0176 167.223 54.377C168.336 52.7363 169.479 51.0078 170.65 49.1914C171.881 47.375 173.023 45.6758 174.078 44.0938C175.191 42.4531 175.953 41.3105 176.363 40.666C176.891 39.9043 177.301 39.4941 177.594 39.4355C177.887 39.377 178.443 39.3477 179.264 39.3477C179.791 39.3477 180.348 39.377 180.934 39.4355C181.578 39.4941 181.988 39.9043 182.164 40.666C181.344 42.6582 180.23 44.5625 178.824 46.3789C177.477 48.1367 176.129 49.8945 174.781 51.6523C173.492 53.4102 172.35 55.2266 171.354 57.1016C170.357 58.918 169.859 60.8809 169.859 62.9902C170.094 62.9902 170.445 63.0195 170.914 63.0781C171.441 63.1367 171.998 63.1953 172.584 63.2539C173.17 63.3125 173.697 63.3711 174.166 63.4297C174.693 63.4883 175.074 63.4883 175.309 63.4297C175.66 63.3711 176.246 63.2539 177.066 63.0781C177.945 62.8438 178.854 62.6094 179.791 62.375C180.787 62.1406 181.725 61.9062 182.604 61.6719C183.482 61.4375 184.098 61.2617 184.449 61.1445C184.449 61.2617 184.449 61.4668 184.449 61.7598C184.508 61.9941 184.537 62.1699 184.537 62.2871C184.537 63.459 183.98 64.4258 182.867 65.1875C181.812 65.9492 180.553 66.5645 179.088 67.0332C177.682 67.4434 176.217 67.7363 174.693 67.9121C173.229 68.0293 172.086 68.0879 171.266 68.0879C170.387 68.0879 169.479 68 168.541 67.8242C167.662 67.5898 166.871 67.2383 166.168 66.7695C165.465 66.3008 164.879 65.7148 164.41 65.0117C164 64.25 163.795 63.3418 163.795 62.2871ZM189.371 10.7832C190.133 10.7832 190.836 10.8125 191.48 10.8711C192.125 10.9297 192.682 11.0762 193.15 11.3105C193.619 11.5449 194 11.8965 194.293 12.3652C194.586 12.834 194.732 13.4785 194.732 14.2988C194.732 14.6504 194.732 15.0312 194.732 15.4414C194.732 15.8516 194.674 16.2617 194.557 16.6719C194.498 17.0234 194.352 17.3457 194.117 17.6387C193.883 17.873 193.502 17.9902 192.975 17.9902C192.154 17.9902 191.48 17.6973 190.953 17.1113C190.484 16.5254 190.133 15.8516 189.898 15.0898C189.664 14.2695 189.518 13.4492 189.459 12.6289C189.4 11.8086 189.371 11.1934 189.371 10.7832ZM185.24 62.4629C185.24 62.2871 185.24 62.0527 185.24 61.7598C185.299 61.4082 185.328 61.2031 185.328 61.1445C185.504 59.3867 185.709 57.1602 185.943 54.4648C186.178 51.7109 186.412 49.0742 186.646 46.5547C186.939 44.0352 187.174 41.8672 187.35 40.0508C187.525 38.1758 187.613 37.2383 187.613 37.2383L189.986 34.9531C190.982 35.2461 191.715 35.6562 192.184 36.1836C192.652 36.6523 192.975 37.1797 193.15 37.7656C193.326 38.3516 193.414 38.9961 193.414 39.6992C193.414 40.4023 193.414 41.1055 193.414 41.8086C193.414 44.2695 193.18 46.6719 192.711 49.0156C192.301 51.3008 192.096 53.6445 192.096 56.0469C192.096 56.1641 192.096 56.457 192.096 56.9258C192.154 57.3359 192.184 57.5996 192.184 57.7168L213.805 34.9531C213.863 34.8945 214.01 34.8652 214.244 34.8652C214.537 34.8652 214.742 34.8652 214.859 34.8652C215.445 34.8652 216.002 34.9824 216.529 35.2168C217.057 35.4512 217.32 35.9492 217.32 36.7109C217.32 36.7695 217.291 36.8281 217.232 36.8867C217.232 36.8867 217.232 36.916 217.232 36.9746V37.2383C216.939 37.707 216.412 38.4688 215.65 39.5234C214.947 40.5781 214.156 41.7207 213.277 42.9512C212.457 44.1816 211.666 45.3535 210.904 46.4668C210.143 47.5215 209.615 48.2539 209.322 48.6641C208.326 49.8945 207.154 51.3594 205.807 53.0586C204.518 54.7578 203.111 56.4863 201.588 58.2441C200.123 59.9434 198.57 61.584 196.93 63.166C195.348 64.6895 193.766 65.9199 192.184 66.8574C191.891 67.0332 191.451 67.2676 190.865 67.5605C190.338 67.8535 190.045 68 189.986 68C189.342 68 188.727 67.8242 188.141 67.4727C187.613 67.0625 187.115 66.5645 186.646 65.9785C186.236 65.3926 185.885 64.8066 185.592 64.2207C185.357 63.5762 185.24 62.9902 185.24 62.4629ZM219.869 62.2871C219.869 61.4668 219.957 60.7637 220.133 60.1777C220.309 59.5332 220.631 58.7129 221.1 57.7168C221.51 57.1309 222.242 56.0176 223.297 54.377C224.41 52.7363 225.553 51.0078 226.725 49.1914C227.955 47.375 229.098 45.6758 230.152 44.0938C231.266 42.4531 232.027 41.3105 232.438 40.666C232.965 39.9043 233.375 39.4941 233.668 39.4355C233.961 39.377 234.518 39.3477 235.338 39.3477C235.865 39.3477 236.422 39.377 237.008 39.4355C237.652 39.4941 238.062 39.9043 238.238 40.666C237.418 42.6582 236.305 44.5625 234.898 46.3789C233.551 48.1367 232.203 49.8945 230.855 51.6523C229.566 53.4102 228.424 55.2266 227.428 57.1016C226.432 58.918 225.934 60.8809 225.934 62.9902C226.168 62.9902 226.52 63.0195 226.988 63.0781C227.516 63.1367 228.072 63.1953 228.658 63.2539C229.244 63.3125 229.771 63.3711 230.24 63.4297C230.768 63.4883 231.148 63.4883 231.383 63.4297C231.734 63.3711 232.32 63.2539 233.141 63.0781C234.02 62.8438 234.928 62.6094 235.865 62.375C236.861 62.1406 237.799 61.9062 238.678 61.6719C239.557 61.4375 240.172 61.2617 240.523 61.1445C240.523 61.2617 240.523 61.4668 240.523 61.7598C240.582 61.9941 240.611 62.1699 240.611 62.2871C240.611 63.459 240.055 64.4258 238.941 65.1875C237.887 65.9492 236.627 66.5645 235.162 67.0332C233.756 67.4434 232.291 67.7363 230.768 67.9121C229.303 68.0293 228.16 68.0879 227.34 68.0879C226.461 68.0879 225.553 68 224.615 67.8242C223.736 67.5898 222.945 67.2383 222.242 66.7695C221.539 66.3008 220.953 65.7148 220.484 65.0117C220.074 64.25 219.869 63.3418 219.869 62.2871ZM245.445 10.7832C246.207 10.7832 246.91 10.8125 247.555 10.8711C248.199 10.9297 248.756 11.0762 249.225 11.3105C249.693 11.5449 250.074 11.8965 250.367 12.3652C250.66 12.834 250.807 13.4785 250.807 14.2988C250.807 14.6504 250.807 15.0312 250.807 15.4414C250.807 15.8516 250.748 16.2617 250.631 16.6719C250.572 17.0234 250.426 17.3457 250.191 17.6387C249.957 17.873 249.576 17.9902 249.049 17.9902C248.229 17.9902 247.555 17.6973 247.027 17.1113C246.559 16.5254 246.207 15.8516 245.973 15.0898C245.738 14.2695 245.592 13.4492 245.533 12.6289C245.475 11.8086 245.445 11.1934 245.445 10.7832ZM241.314 59.2988C241.314 56.3691 242.135 53.498 243.775 50.6855C245.475 47.873 247.613 45.3828 250.191 43.2148C252.77 41.0469 255.611 39.3184 258.717 38.0293C261.822 36.6816 264.781 36.0078 267.594 36.0078C268.707 36.0078 269.762 36.2129 270.758 36.623C271.754 37.0332 272.809 37.2383 273.922 37.2383H274.449C274.742 36.5938 275.299 35.4512 276.119 33.8105C276.998 32.1699 277.906 30.4414 278.844 28.625C279.84 26.8086 280.777 25.1094 281.656 23.5273C282.535 21.8867 283.18 20.7441 283.59 20.0996C284.234 18.9863 285.113 17.6094 286.227 15.9688C287.34 14.2695 288.424 12.6289 289.479 11.0469C290.592 9.46484 291.559 8.11719 292.379 7.00391C293.199 5.89062 293.668 5.33398 293.785 5.33398L297.213 8.76172C297.213 8.87891 296.979 9.40625 296.51 10.3438C296.1 11.2812 295.543 12.5117 294.84 14.0352C294.137 15.5 293.316 17.1406 292.379 18.957C291.5 20.7734 290.592 22.5898 289.654 24.4062C288.717 26.2227 287.809 27.9805 286.93 29.6797C286.109 31.3203 285.377 32.6973 284.732 33.8105C282.916 36.5645 281.07 39.377 279.195 42.248C277.379 45.0605 275.914 47.6973 274.801 50.1582C273.746 52.5605 273.219 54.6699 273.219 56.4863C273.277 58.3027 274.273 59.5625 276.207 60.2656C279.723 59.6211 282.359 59.3574 284.117 59.4746C285.875 59.5918 286.959 59.9141 287.369 60.4414C287.838 60.9102 287.779 61.4961 287.193 62.1992C286.607 62.8438 285.67 63.4297 284.381 63.957C283.15 64.4844 281.715 64.8359 280.074 65.0117C278.434 65.1875 276.793 65.0117 275.152 64.4844C273.512 63.957 272.018 62.9902 270.67 61.584C269.322 60.1777 268.297 58.1562 267.594 55.5195L253.971 66.8574C253.971 66.8574 253.736 66.916 253.268 67.0332C252.857 67.1504 252.33 67.2676 251.686 67.3848C251.1 67.502 250.484 67.6191 249.84 67.7363C249.195 67.8535 248.668 67.9414 248.258 68H247.73C246.383 68 245.27 67.7656 244.391 67.2969C243.57 66.7695 242.926 66.125 242.457 65.3633C241.988 64.543 241.666 63.6055 241.49 62.5508C241.373 61.4961 241.314 60.4121 241.314 59.2988ZM247.027 58.332C247.027 58.6836 246.998 59.0938 246.939 59.5625C246.939 60.0312 246.969 60.4707 247.027 60.8809C247.145 61.2324 247.32 61.5547 247.555 61.8477C247.848 62.1406 248.258 62.2871 248.785 62.2871C249.547 62.2871 250.455 62.0234 251.51 61.4961C252.623 60.9102 253.707 60.2363 254.762 59.4746C255.816 58.7129 256.783 57.9512 257.662 57.1895C258.6 56.4277 259.273 55.8711 259.684 55.5195C260.094 55.1094 260.855 54.377 261.969 53.3223C263.082 52.209 264.225 51.0371 265.396 49.8066C266.627 48.5762 267.77 47.4336 268.824 46.3789C269.879 45.3242 270.611 44.5625 271.021 44.0938V43.8301C271.021 43.7129 271.021 43.6543 271.021 43.6543C271.08 43.5957 271.109 43.5371 271.109 43.4785C271.109 42.9512 270.934 42.5703 270.582 42.3359C270.289 42.043 269.908 41.8672 269.439 41.8086C269.029 41.6914 268.59 41.6621 268.121 41.7207C267.652 41.7207 267.271 41.7207 266.979 41.7207C264.869 41.7207 262.643 42.1602 260.299 43.0391C257.955 43.918 255.787 45.1191 253.795 46.6426C251.861 48.1074 250.25 49.8652 248.961 51.916C247.672 53.9082 247.027 56.0469 247.027 58.332ZM287.545 62.2871C288.072 58.9473 289.068 55.8711 290.533 53.0586C291.998 50.2461 293.668 47.8145 295.543 45.7637C297.477 43.6543 299.557 41.9258 301.783 40.5781C304.01 39.2305 306.178 38.3809 308.287 38.0293C310.396 37.6191 312.33 37.707 314.088 38.293C315.904 38.8789 317.369 40.0508 318.482 41.8086C318.482 43.1562 318.16 44.4453 317.516 45.6758C316.93 46.9062 316.256 48.1367 315.494 49.3672C314.791 50.5977 314.117 51.8574 313.473 53.1465C312.887 54.4355 312.594 55.8125 312.594 57.2773C312.594 58.8008 312.916 60.0312 313.561 60.9688C314.264 61.8477 315.465 62.2871 317.164 62.2871C318.57 62.2871 319.918 62.082 321.207 61.6719C322.555 61.2617 323.902 61.0566 325.25 61.0566C325.484 61.0566 325.865 61.0859 326.393 61.1445C326.979 61.1445 327.359 61.1445 327.535 61.1445C326.832 62.1406 325.924 62.9902 324.811 63.6934C323.697 64.3965 322.525 65.0117 321.295 65.5391C320.064 66.0078 318.775 66.3594 317.428 66.5938C316.139 66.8281 314.938 66.9453 313.824 66.9453C312.77 66.9453 311.832 66.7109 311.012 66.2422C310.191 65.7734 309.488 65.1582 308.902 64.3965C308.316 63.6348 307.848 62.7852 307.496 61.8477C307.203 60.8516 307.057 59.8848 307.057 58.9473C306.178 59.9434 305.211 60.998 304.156 62.1113C303.16 63.166 302.076 64.1328 300.904 65.0117C299.791 65.8906 298.561 66.623 297.213 67.209C295.924 67.7949 294.576 68.0879 293.17 68.0879C291.646 68.0879 290.328 67.5312 289.215 66.418C288.102 65.2461 287.545 63.8691 287.545 62.2871ZM293.346 59.5625C293.346 60.0312 293.346 60.5586 293.346 61.1445C293.404 61.7305 293.785 62.1113 294.488 62.2871C295.953 61.9355 297.623 61.1738 299.498 60.002C301.373 58.7715 303.131 57.3652 304.771 55.7832C306.412 54.1426 307.789 52.4141 308.902 50.5977C310.016 48.7227 310.572 46.9355 310.572 45.2363C310.572 45.1191 310.543 44.9434 310.484 44.709C310.484 44.416 310.484 44.2109 310.484 44.0938C308.492 44.0938 306.471 44.5039 304.42 45.3242C302.369 46.1445 300.523 47.2871 298.883 48.752C297.242 50.1582 295.895 51.7988 294.84 53.6738C293.844 55.5488 293.346 57.5117 293.346 59.5625ZM324.986 59.2988C324.986 56.3691 325.807 53.498 327.447 50.6855C329.146 47.873 331.285 45.3828 333.863 43.2148C336.441 41.0469 339.283 39.3184 342.389 38.0293C345.494 36.6816 348.453 36.0078 351.266 36.0078C352.379 36.0078 353.434 36.2129 354.43 36.623C355.426 37.0332 356.48 37.2383 357.594 37.2383H358.121C358.414 36.5938 358.971 35.4512 359.791 33.8105C360.67 32.1699 361.578 30.4414 362.516 28.625C363.512 26.8086 364.449 25.1094 365.328 23.5273C366.207 21.8867 366.852 20.7441 367.262 20.0996C367.906 18.9863 368.785 17.6094 369.898 15.9688C371.012 14.2695 372.096 12.6289 373.15 11.0469C374.264 9.46484 375.23 8.11719 376.051 7.00391C376.871 5.89062 377.34 5.33398 377.457 5.33398L380.885 8.76172C380.885 8.87891 380.65 9.40625 380.182 10.3438C379.771 11.2812 379.215 12.5117 378.512 14.0352C377.809 15.5 376.988 17.1406 376.051 18.957C375.172 20.7734 374.264 22.5898 373.326 24.4062C372.389 26.2227 371.48 27.9805 370.602 29.6797C369.781 31.3203 369.049 32.6973 368.404 33.8105C366.588 36.5645 364.742 39.377 362.867 42.248C361.051 45.0605 359.586 47.6973 358.473 50.1582C357.418 52.5605 356.891 54.6699 356.891 56.4863C356.949 58.3027 357.945 59.5625 359.879 60.2656C363.395 59.6211 366.031 59.3574 367.789 59.4746C369.547 59.5918 370.631 59.9141 371.041 60.4414C371.51 60.9102 371.451 61.4961 370.865 62.1992C370.279 62.8438 369.342 63.4297 368.053 63.957C366.822 64.4844 365.387 64.8359 363.746 65.0117C362.105 65.1875 360.465 65.0117 358.824 64.4844C357.184 63.957 355.689 62.9902 354.342 61.584C352.994 60.1777 351.969 58.1562 351.266 55.5195L337.643 66.8574C337.643 66.8574 337.408 66.916 336.939 67.0332C336.529 67.1504 336.002 67.2676 335.357 67.3848C334.771 67.502 334.156 67.6191 333.512 67.7363C332.867 67.8535 332.34 67.9414 331.93 68H331.402C330.055 68 328.941 67.7656 328.062 67.2969C327.242 66.7695 326.598 66.125 326.129 65.3633C325.66 64.543 325.338 63.6055 325.162 62.5508C325.045 61.4961 324.986 60.4121 324.986 59.2988ZM330.699 58.332C330.699 58.6836 330.67 59.0938 330.611 59.5625C330.611 60.0312 330.641 60.4707 330.699 60.8809C330.816 61.2324 330.992 61.5547 331.227 61.8477C331.52 62.1406 331.93 62.2871 332.457 62.2871C333.219 62.2871 334.127 62.0234 335.182 61.4961C336.295 60.9102 337.379 60.2363 338.434 59.4746C339.488 58.7129 340.455 57.9512 341.334 57.1895C342.271 56.4277 342.945 55.8711 343.355 55.5195C343.766 55.1094 344.527 54.377 345.641 53.3223C346.754 52.209 347.896 51.0371 349.068 49.8066C350.299 48.5762 351.441 47.4336 352.496 46.3789C353.551 45.3242 354.283 44.5625 354.693 44.0938V43.8301C354.693 43.7129 354.693 43.6543 354.693 43.6543C354.752 43.5957 354.781 43.5371 354.781 43.4785C354.781 42.9512 354.605 42.5703 354.254 42.3359C353.961 42.043 353.58 41.8672 353.111 41.8086C352.701 41.6914 352.262 41.6621 351.793 41.7207C351.324 41.7207 350.943 41.7207 350.65 41.7207C348.541 41.7207 346.314 42.1602 343.971 43.0391C341.627 43.918 339.459 45.1191 337.467 46.6426C335.533 48.1074 333.922 49.8652 332.633 51.916C331.344 53.9082 330.699 56.0469 330.699 58.332Z" fill="white" fill-opacity="0.1"/>
</svg>
