<svg width="143" height="78" viewBox="0 0 143 78" fill="none" xmlns="http://www.w3.org/2000/svg">
<path d="M10.3422 12.8012L10.2968 11.3929C10.6992 11.2965 11.0504 11.1393 11.3503 10.9212C11.6504 10.7068 11.8997 10.4486 12.0984 10.1466C12.301 9.84827 12.4496 9.51945 12.5441 9.16015C12.6387 8.80086 12.6797 8.42813 12.6672 8.04197C12.6445 7.33779 12.446 6.7056 12.0717 6.14541C11.6975 5.58901 11.1585 5.15351 10.4548 4.83892C9.75126 4.52811 8.89595 4.38896 7.88889 4.42145C6.88184 4.45394 6.03728 4.64794 5.35521 5.00346C4.67326 5.36276 4.16351 5.83209 3.82596 6.41146C3.48853 6.99462 3.33117 7.63828 3.35389 8.34246C3.36635 8.72863 3.43132 9.09793 3.54881 9.45039C3.6663 9.80284 3.83386 10.1215 4.05149 10.4063C4.27303 10.6947 4.54043 10.9362 4.85368 11.1308C5.17084 11.329 5.53142 11.4633 5.93542 11.5336L5.98086 12.942C5.38305 12.8551 4.8449 12.6792 4.36641 12.4142C3.88791 12.1492 3.47726 11.8138 3.13445 11.408C2.79543 11.002 2.53236 10.5424 2.34526 10.0293C2.15828 9.51989 2.05533 8.97179 2.03639 8.38497C2.00439 7.39306 2.21823 6.50313 2.6779 5.71517C3.13758 4.92721 3.80701 4.29734 4.68619 3.82556C5.56538 3.35378 6.61828 3.0981 7.84492 3.05852C9.07155 3.01894 10.1388 3.20622 11.0465 3.62034C11.9543 4.03446 12.6629 4.61987 13.1724 5.37656C13.682 6.13325 13.9527 7.00755 13.9847 7.99946C14.0037 8.58627 13.9362 9.13987 13.7825 9.66025C13.6289 10.1844 13.3941 10.66 13.0781 11.0871C12.766 11.5141 12.3797 11.8752 11.9193 12.1705C11.4627 12.4657 10.937 12.6759 10.3422 12.8012Z" fill="white"/>
<path d="M3.28374 20.1422C3.12192 19.3711 3.16344 18.656 3.40831 17.997C3.65395 17.3417 4.07248 16.7816 4.66388 16.3169C5.25607 15.8559 5.99331 15.5329 6.87561 15.3477C7.76532 15.161 8.5758 15.1593 9.30706 15.3425C10.0391 15.5295 10.6493 15.8736 11.1377 16.3749C11.6268 16.8799 11.9523 17.518 12.1141 18.2891C12.2759 19.0601 12.234 19.7733 11.9884 20.4287C11.7435 21.0877 11.3231 21.6481 10.7272 22.1099C10.1321 22.5754 9.38971 22.9015 8.5 23.0882C7.61771 23.2733 6.81239 23.2721 6.08406 23.0843C5.35651 22.9003 4.74816 22.5557 4.25902 22.0507C3.77065 21.5494 3.44555 20.9133 3.28374 20.1422ZM4.4626 19.8948C4.58552 20.4805 4.8368 20.9309 5.21643 21.246C5.59606 21.5612 6.0496 21.7582 6.57706 21.8371C7.10453 21.9161 7.6537 21.8957 8.2246 21.7759C8.7955 21.6561 9.30841 21.4536 9.76334 21.1685C10.2183 20.8834 10.558 20.5198 10.7827 20.0779C11.0073 19.636 11.0582 19.1222 10.9352 18.5365C10.8123 17.9507 10.5592 17.5007 10.1759 17.1864C9.79253 16.872 9.33527 16.6758 8.80411 16.5976C8.27294 16.5194 7.7219 16.5402 7.15101 16.66C6.58011 16.7798 6.06905 16.9819 5.61783 17.2663C5.16661 17.5506 4.83054 17.9133 4.60961 18.3545C4.38869 18.7956 4.33968 19.3091 4.4626 19.8948Z" fill="white"/>
<path d="M10.5746 26.839L5.67622 28.728L5.19374 27.4769L13.3365 24.3367L13.8026 25.5454L12.5303 26.0361L12.5712 26.1421C13.0583 26.1735 13.5023 26.3351 13.9031 26.6271C14.3075 26.9178 14.6283 27.3705 14.8654 27.9855C15.078 28.5368 15.151 29.0629 15.0843 29.5636C15.0211 30.0629 14.8058 30.5154 14.4385 30.9209C14.0747 31.3251 13.5465 31.6608 12.8538 31.9279L7.67976 33.9233L7.19728 32.6722L12.2865 30.7095C12.9262 30.4628 13.3604 30.1046 13.5893 29.6347C13.8216 29.1635 13.8261 28.638 13.6025 28.0584C13.4485 27.6591 13.2243 27.3355 12.9298 27.0877C12.6367 26.8435 12.2893 26.6954 11.8875 26.6432C11.4858 26.5911 11.0482 26.6564 10.5746 26.839Z" fill="white"/>
<path d="M18.284 39.6389L17.3893 38.7633C17.5258 38.5977 17.6395 38.4038 17.7304 38.1814C17.8264 37.9605 17.8665 37.7105 17.8507 37.4315C17.8348 37.1524 17.7299 36.8436 17.5359 36.5051C17.2704 36.0417 16.9422 35.7168 16.5516 35.5303C16.1661 35.3452 15.8107 35.3458 15.4853 35.5323C15.1961 35.698 15.028 35.9341 14.9809 36.2405C14.9338 36.5469 14.9825 36.9556 15.1269 37.4666L15.495 38.7487C15.7186 39.5199 15.7563 40.1685 15.608 40.6944C15.463 41.2184 15.126 41.6321 14.5969 41.9353C14.1631 42.1839 13.7037 42.2813 13.2188 42.2274C12.7357 42.1768 12.2685 41.9861 11.817 41.6555C11.3656 41.3248 10.9713 40.8653 10.6341 40.2771C10.1915 39.5047 9.99282 38.7695 10.038 38.0713C10.0832 37.373 10.3892 36.772 10.9561 36.2681L11.865 37.2141C11.5178 37.5528 11.3261 37.9268 11.2899 38.3361C11.2557 38.7486 11.3751 39.1932 11.6482 39.6697C11.959 40.212 12.3207 40.5766 12.7335 40.7635C13.1514 40.9519 13.523 40.9528 13.8484 40.7664C14.1113 40.6157 14.2788 40.3975 14.3508 40.1117C14.426 39.8241 14.3988 39.4643 14.2691 39.0322L13.8416 37.6007C13.6085 36.8131 13.5713 36.1577 13.7299 35.6346C13.8937 35.1129 14.2369 34.7023 14.7594 34.4028C15.1867 34.158 15.6333 34.0613 16.0995 34.1129C16.5675 34.1677 17.0148 34.3502 17.4413 34.6602C17.8697 34.9735 18.2365 35.3964 18.5416 35.9288C18.971 36.6781 19.1438 37.3605 19.06 37.9761C18.9781 38.595 18.7194 39.1492 18.284 39.6389Z" fill="white"/>
<path d="M23.7693 44.0162L22.8592 44.6966L20.1512 41.0742L21.0614 40.3938L23.7693 44.0162ZM23.5253 40.1977L24.3282 41.2716L17.6658 46.2521C17.3624 46.4789 17.1678 46.693 17.0819 46.8944C17.0012 47.0965 16.9873 47.2867 17.0401 47.4648C17.0981 47.6437 17.1861 47.812 17.304 47.9698C17.3925 48.0881 17.4711 48.1806 17.54 48.2474C17.6118 48.3119 17.6693 48.3635 17.7125 48.4022L16.911 49.3419C16.8292 49.2895 16.726 49.2082 16.6011 49.0982C16.4733 48.9904 16.3345 48.8364 16.1848 48.6362C15.958 48.3328 15.801 47.9867 15.7137 47.5979C15.6287 47.2122 15.6483 46.824 15.7723 46.4333C15.8987 46.0456 16.1652 45.6998 16.5717 45.3959L23.5253 40.1977Z" fill="white"/>
<path d="M18.6798 51.6217L25.0877 45.6968L25.9672 46.6479L24.9993 47.5428L25.0611 47.6096C25.4861 47.4333 25.9388 47.4068 26.4192 47.5301C26.8995 47.6535 27.3171 47.907 27.672 48.2908C27.7388 48.3632 27.821 48.4548 27.9185 48.5659C28.016 48.6769 28.0877 48.7628 28.1336 48.8236L27.1324 49.7493C27.1099 49.7082 27.0517 49.6202 26.9578 49.4852C26.8692 49.3504 26.7645 49.2176 26.6437 49.0869C26.3556 48.7754 26.0331 48.5577 25.6761 48.4338C25.3245 48.3101 24.969 48.2828 24.6098 48.3518C24.256 48.4211 23.9344 48.5894 23.6452 48.8569L19.5902 52.6062L18.6798 51.6217Z" fill="white"/>
<path d="M30.3643 57.9213L33.6515 53.945L34.685 54.7994L29.1243 61.5258L28.0908 60.6714L29.0321 59.5328L28.962 59.4749C28.522 59.6862 28.0366 59.7739 27.5059 59.7382C26.9776 59.6995 26.4595 59.4702 25.9515 59.0503C25.5311 58.7027 25.2334 58.3018 25.0585 57.8476C24.886 57.3904 24.8608 56.8978 24.9828 56.3696C25.1073 55.8386 25.4061 55.2869 25.8791 54.7147L29.4125 50.4407L30.446 51.295L26.9706 55.499C26.5651 55.9895 26.3789 56.4941 26.412 57.0129C26.448 57.5342 26.6805 57.9722 27.1097 58.3269C27.3666 58.5393 27.6822 58.6897 28.0565 58.7779C28.4337 58.8686 28.825 58.853 29.2305 58.7311C29.6388 58.6116 30.0168 58.3417 30.3643 57.9213Z" fill="white"/>
<path d="M31.4933 67.2582C31.2981 67.1418 31.1338 67.0217 31.0003 66.8979C30.8649 66.7774 30.7767 66.6851 30.7356 66.6209L31.6339 65.7806C31.8709 66.0191 32.1026 66.1926 32.3289 66.3012C32.5553 66.4098 32.8028 66.4274 33.0716 66.354C33.3417 66.2857 33.6602 66.103 34.0271 65.8059L34.5912 65.3485L36.3146 56.1612L37.5638 56.9065L36.0692 64.1132L36.1473 64.1597L41.7795 59.4218L43.0286 60.1671L34.7235 66.8566C34.3494 67.1583 33.981 67.3729 33.6182 67.5005C33.2534 67.6313 32.8943 67.6751 32.5408 67.6318C32.1905 67.5904 31.8414 67.4659 31.4933 67.2582Z" fill="white"/>
<path d="M44.5962 70.6592C43.8168 70.3435 43.2142 69.8992 42.7883 69.3262C42.3674 68.7511 42.13 68.0909 42.0763 67.3458C42.0275 66.5986 42.1709 65.8107 42.5065 64.9822C42.8421 64.1536 43.2889 63.4845 43.8468 62.9749C44.4096 62.4631 45.0349 62.1402 45.7227 62.006C46.4154 61.8697 47.1269 61.9495 47.8572 62.2453C48.2785 62.4159 48.6661 62.6547 49.02 62.9615C49.3738 63.2683 49.6553 63.6479 49.8644 64.1004C50.0748 64.5494 50.1756 65.0725 50.1667 65.6696C50.1577 66.2668 50.0004 66.9427 49.6947 67.6976L49.4814 68.2242L43.2462 65.6986L43.6813 64.6243L48.6526 66.6379C48.8375 66.1815 48.9112 65.7373 48.8737 65.3053C48.8397 64.8746 48.6978 64.4882 48.4482 64.146C48.2021 63.8052 47.8544 63.5437 47.405 63.3617C46.9099 63.1612 46.4319 63.1106 45.9707 63.2099C45.5145 63.3071 45.1109 63.5114 44.7599 63.8229C44.409 64.1344 44.1432 64.5131 43.9626 64.9589L43.6725 65.6751C43.4251 66.286 43.3207 66.8465 43.3592 67.3567C43.4027 67.8647 43.5693 68.3061 43.8589 68.6809C44.1499 69.0521 44.5464 69.3394 45.0484 69.5428C45.3749 69.675 45.6883 69.7488 45.9886 69.7642C46.2938 69.7775 46.5807 69.7302 46.8491 69.6224C47.119 69.511 47.3635 69.3362 47.5826 69.098L48.6468 69.9214C48.3554 70.2774 47.998 70.5495 47.5744 70.7376C47.1523 70.9221 46.6869 71.0116 46.1784 71.0058C45.6713 70.9966 45.1439 70.8811 44.5962 70.6592Z" fill="white"/>
<path d="M53.8539 68.2114L52.6782 73.328L51.3713 73.0277L53.3258 64.5221L54.5884 64.8123L54.283 66.1413L54.3937 66.1667C54.6923 65.7806 55.0748 65.5031 55.5411 65.3343C56.0083 65.1619 56.563 65.1494 57.2054 65.297C57.7813 65.4294 58.258 65.6633 58.6357 65.9988C59.0141 66.3306 59.2687 66.7622 59.3992 67.2936C59.5306 67.8213 59.5131 68.4469 59.3468 69.1704L58.1049 74.575L56.7981 74.2747L58.0196 68.9587C58.1732 68.2906 58.1193 67.7302 57.8579 67.2776C57.5975 66.8213 57.1645 66.5236 56.5591 66.3844C56.1419 66.2886 55.7483 66.2933 55.3781 66.3987C55.0117 66.505 54.6945 66.71 54.4265 67.0137C54.1584 67.3175 53.9676 67.7167 53.8539 68.2114Z" fill="white"/>
<path d="M65.3314 75.7152C64.6057 75.6678 63.977 75.4427 63.4452 75.0398C62.9138 74.6332 62.5131 74.0832 62.2433 73.3899C61.9737 72.6929 61.8689 71.8832 61.9291 70.9609C61.9888 70.0462 62.1974 69.2626 62.555 68.6103C62.9126 67.9579 63.3831 67.4667 63.9664 67.1365C64.5498 66.8064 65.2081 66.6652 65.9414 66.713C66.5083 66.75 66.9501 66.8737 67.2666 67.0842C67.5871 67.2911 67.8266 67.5193 67.9849 67.7687C68.1473 68.0147 68.2727 68.2165 68.3611 68.3741L68.4745 68.3815L68.7541 64.0951L70.0921 64.1824L69.3348 75.7941L68.0421 75.7098L68.1293 74.3717L67.9706 74.3613C67.862 74.5137 67.709 74.7049 67.5118 74.935C67.3149 75.1613 67.042 75.3579 66.6933 75.525C66.3448 75.6883 65.8908 75.7517 65.3314 75.7152ZM65.5912 74.525C66.128 74.56 66.5907 74.4497 66.9794 74.1942C67.3683 73.9349 67.6754 73.562 67.9007 73.0757C68.1263 72.5855 68.2605 72.0116 68.3034 71.3539C68.3458 70.7038 68.2884 70.1287 68.1312 69.6288C67.9743 69.1251 67.7195 68.7251 67.3668 68.4288C67.0144 68.1287 66.566 67.9609 66.0217 67.9254C65.4547 67.8884 64.9728 68.0031 64.5758 68.2695C64.1829 68.5324 63.8757 68.9052 63.6544 69.3881C63.4372 69.8674 63.3086 70.4132 63.2686 71.0255C63.2282 71.6454 63.286 72.2148 63.4419 72.7336C63.6019 73.2489 63.8593 73.668 64.214 73.991C64.5727 74.3105 65.0318 74.4885 65.5912 74.525Z" fill="white"/>
<path d="M77.0278 75.7096C76.2436 75.7857 75.5374 75.6659 74.9093 75.3501C74.2849 75.034 73.7742 74.5564 73.3773 73.9176C72.9842 73.2783 72.7441 72.51 72.657 71.6127C72.5691 70.7079 72.6565 69.9021 72.919 69.1954C73.1852 68.4884 73.5943 67.9197 74.1462 67.4893C74.7019 67.0586 75.3719 66.8052 76.1561 66.7291C76.9403 66.653 77.6445 66.773 78.2689 67.0892C78.8971 67.405 79.4079 67.8844 79.8014 68.5274C80.1987 69.17 80.4412 69.9438 80.5291 70.8486C80.6162 71.7459 80.5264 72.5462 80.2597 73.2495C79.9969 73.9524 79.5876 74.5192 79.0319 74.9499C78.48 75.3803 77.812 75.6335 77.0278 75.7096ZM76.9114 74.5107C77.5071 74.4529 77.9824 74.2526 78.3373 73.9099C78.6922 73.5672 78.9379 73.1381 79.0743 72.6225C79.2107 72.1069 79.2508 71.5588 79.1944 70.9782C79.1381 70.3976 78.9932 69.8655 78.7598 69.382C78.5264 68.8985 78.2024 68.5209 77.7878 68.249C77.3732 67.9772 76.8681 67.8702 76.2724 67.928C75.6767 67.9858 75.2016 68.188 74.8471 68.5345C74.4925 68.8809 74.2472 69.3139 74.1112 69.8332C73.9751 70.3526 73.9352 70.9026 73.9916 71.4832C74.048 72.0638 74.1927 72.594 74.4257 73.0737C74.6587 73.5534 74.9824 73.9273 75.3966 74.1954C75.8108 74.4634 76.3157 74.5685 76.9114 74.5107Z" fill="white"/>
<path d="M94.0341 64.7096L93.0114 65.4316C92.8732 65.2675 92.703 65.1207 92.5007 64.9912C92.3007 64.8568 92.062 64.7723 91.7847 64.7375C91.5073 64.7028 91.1847 64.7502 90.8167 64.88C90.313 65.0576 89.9342 65.3217 89.6803 65.6722C89.4287 66.018 89.3652 66.3677 89.4899 66.7214C89.6007 67.0358 89.8026 67.2437 90.0954 67.3453C90.3883 67.4469 90.7991 67.4728 91.3277 67.4229L92.6553 67.2923C93.4542 67.2114 94.0989 67.2914 94.5894 67.5321C95.0787 67.7693 95.4247 68.1755 95.6275 68.7506C95.7937 69.2222 95.8066 69.6916 95.6661 70.1588C95.5291 70.6248 95.2573 71.05 94.8506 71.4343C94.4439 71.8187 93.9209 72.1236 93.2814 72.3491C92.4419 72.6451 91.6828 72.7078 91.0042 72.5374C90.3256 72.367 89.7897 71.9575 89.3963 71.309L90.4908 70.5857C90.7613 70.9884 91.0946 71.2444 91.4906 71.3538C91.8902 71.4619 92.349 71.4247 92.867 71.2421C93.4564 71.0342 93.8803 70.7442 94.1387 70.372C94.3994 69.9949 94.4674 69.6296 94.3427 69.2759C94.2419 68.9901 94.0575 68.786 93.7894 68.6636C93.5201 68.5377 93.1612 68.4995 92.7128 68.5492L91.2277 68.7113C90.411 68.7985 89.7596 68.7168 89.2737 68.4664C88.7901 68.2112 88.4482 67.7996 88.2479 67.2315C88.0842 66.7671 88.0698 66.3103 88.2046 65.8612C88.343 65.4107 88.6032 65.0037 88.9851 64.6401C89.3705 64.2753 89.8526 63.9909 90.4313 63.7868C91.2458 63.4997 91.9483 63.4528 92.5386 63.6463C93.1325 63.8386 93.631 64.193 94.0341 64.7096Z" fill="white"/>
<path d="M103.012 68.2118C102.318 68.5842 101.62 68.7457 100.919 68.6962C100.221 68.645 99.5658 68.4011 98.9534 67.9644C98.3444 67.526 97.8268 66.9095 97.4007 66.1151C96.9711 65.3139 96.7413 64.5367 96.7112 63.7834C96.6845 63.0283 96.843 62.3459 97.1865 61.7362C97.5334 61.1247 98.054 60.6327 98.7483 60.2603C99.4426 59.888 100.139 59.7274 100.837 59.7786C101.538 59.8281 102.194 60.0737 102.805 60.5154C103.419 60.9554 103.941 61.576 104.371 62.3772C104.797 63.1717 105.022 63.9448 105.047 64.6965C105.075 65.4464 104.916 66.1272 104.569 66.7387C104.226 67.3484 103.707 67.8395 103.012 68.2118ZM102.443 67.1503C102.971 66.8675 103.332 66.4995 103.528 66.0466C103.723 65.5936 103.784 65.1029 103.712 64.5745C103.639 64.0462 103.465 63.525 103.189 63.0109C102.913 62.4968 102.575 62.0617 102.173 61.7054C101.771 61.3491 101.327 61.1254 100.84 61.0343C100.352 60.9432 99.845 61.039 99.3176 61.3219C98.7901 61.6047 98.4296 61.9743 98.2359 62.4306C98.0422 62.887 97.9826 63.381 98.0571 63.9127C98.1316 64.4444 98.3067 64.9673 98.5824 65.4813C98.8581 65.9954 99.1959 66.4289 99.5958 66.7818C99.9956 67.1347 100.438 67.3551 100.924 67.4429C101.409 67.5307 101.916 67.4332 102.443 67.1503Z" fill="white"/>
<path d="M103.885 53.9003L110.574 63.422L109.477 64.1928L102.788 54.6711L103.885 53.9003Z" fill="white"/>
<path d="M115.68 54.7475L112.234 50.9078L113.232 50.0122L119.061 56.5076L118.063 57.4032L117.076 56.3037L117.009 56.3644C117.152 56.8309 117.167 57.3239 117.053 57.8435C116.937 58.3602 116.633 58.8387 116.143 59.2789C115.737 59.6432 115.296 59.8782 114.821 59.984C114.344 60.0869 113.853 60.0389 113.348 59.8399C112.842 59.6381 112.34 59.261 111.844 58.7084L108.141 54.5811L109.139 53.6855L112.782 57.7452C113.207 58.2188 113.678 58.4777 114.196 58.5218C114.717 58.5634 115.185 58.3982 115.599 58.0263C115.847 57.8037 116.042 57.5139 116.185 57.1568C116.331 56.7972 116.373 56.4078 116.313 55.9888C116.255 55.5672 116.044 55.1535 115.68 54.7475Z" fill="white"/>
<path d="M124.39 50.9867C123.873 51.6209 123.278 52.0449 122.605 52.2588C121.932 52.4727 121.233 52.4887 120.506 52.307C119.78 52.1252 119.079 51.7591 118.403 51.2086C117.716 50.6485 117.213 50.0281 116.893 49.3472C116.573 48.6609 116.45 47.9694 116.524 47.2726C116.598 46.5705 116.884 45.9141 117.382 45.3034C117.77 44.8278 118.207 44.4709 118.695 44.2328C119.182 43.9948 119.683 43.8831 120.199 43.8979C120.715 43.9127 121.208 44.0631 121.679 44.349L120.831 45.3883C120.458 45.2163 120.042 45.1699 119.581 45.2491C119.121 45.3229 118.703 45.5888 118.33 46.0469C118 46.452 117.816 46.8934 117.778 47.3711C117.74 47.8434 117.843 48.3203 118.086 48.8017C118.328 49.2778 118.704 49.7241 119.215 50.1405C119.738 50.5665 120.26 50.8553 120.782 51.0068C121.306 51.1554 121.798 51.1658 122.259 51.0381C122.722 50.9075 123.121 50.6366 123.456 50.2256C123.676 49.9555 123.829 49.6721 123.915 49.3753C124 49.0785 124.017 48.782 123.966 48.4857C123.914 48.1894 123.791 47.9085 123.597 47.6428L124.444 46.6035C124.796 46.9877 125.037 47.4262 125.168 47.919C125.298 48.4065 125.303 48.9162 125.182 49.4481C125.061 49.9747 124.797 50.4876 124.39 50.9867Z" fill="white"/>
<path d="M128.557 45.1387L121.195 40.4505L121.916 39.3195L129.277 44.0077L128.557 45.1387ZM120.335 39.0941C120.194 39.3146 119.998 39.4568 119.746 39.5209C119.496 39.5819 119.266 39.5452 119.055 39.4109C118.844 39.2766 118.714 39.0833 118.663 38.8312C118.615 38.5758 118.661 38.3379 118.801 38.1174C118.942 37.897 119.137 37.7563 119.387 37.6954C119.639 37.6312 119.87 37.6663 120.081 37.8006C120.292 37.9349 120.421 38.1298 120.47 38.3851C120.52 38.6373 120.475 38.8736 120.335 39.0941Z" fill="white"/>
<path d="M133.215 37.4372C132.875 38.1478 132.407 38.6904 131.812 39.0648C131.219 39.4358 130.546 39.6261 129.794 39.6356C129.044 39.6416 128.262 39.45 127.449 39.0607C126.629 38.6681 125.984 38.1768 125.515 37.5867C125.047 36.9933 124.772 36.3491 124.689 35.6542C124.608 34.9559 124.737 34.2514 125.077 33.5408C125.417 32.8301 125.884 32.2893 126.478 31.9183C127.073 31.5438 127.747 31.3544 128.501 31.35C129.257 31.3421 130.044 31.5345 130.864 31.9271C131.677 32.3164 132.316 32.807 132.78 33.3988C133.246 33.9872 133.52 34.6306 133.601 35.3289C133.684 36.0238 133.555 36.7266 133.215 37.4372ZM132.129 36.917C132.387 36.3772 132.462 35.8668 132.352 35.3859C132.242 34.9049 132.001 34.4727 131.631 34.0894C131.26 33.7061 130.811 33.3884 130.285 33.1365C129.759 32.8846 129.229 32.7336 128.694 32.6834C128.16 32.6333 127.669 32.7154 127.222 32.9297C126.775 33.1441 126.422 33.5211 126.164 34.0609C125.905 34.6007 125.833 35.1119 125.946 35.5946C126.059 36.0772 126.303 36.511 126.677 36.8959C127.051 37.2809 127.502 37.5993 128.028 37.8513C128.554 38.1032 129.083 38.2534 129.614 38.3019C130.145 38.3504 130.632 38.2667 131.076 38.0507C131.519 37.8347 131.87 37.4568 132.129 36.917Z" fill="white"/>
<path d="M131.486 27.7214L136.523 29.2025L136.145 30.4889L127.772 28.0269L128.137 26.7841L129.445 27.1688L129.477 27.0597C129.11 26.7385 128.856 26.34 128.716 25.8644C128.571 25.3878 128.592 24.8332 128.778 24.2009C128.945 23.634 129.207 23.1722 129.565 22.8154C129.919 22.4575 130.365 22.2294 130.903 22.131C131.438 22.0316 132.061 22.0866 132.773 22.296L138.094 23.8604L137.715 25.1469L132.482 23.6081C131.825 23.4147 131.262 23.4349 130.794 23.6685C130.323 23.9011 130 24.3154 129.825 24.9114C129.704 25.3221 129.685 25.7153 129.768 26.0911C129.852 26.4632 130.038 26.7922 130.325 27.078C130.612 27.3637 130.999 27.5782 131.486 27.7214Z" fill="white"/>
<path d="M139.709 16.3301C139.602 17.1642 139.326 17.8601 138.88 18.4177C138.431 18.9711 137.853 19.3686 137.146 19.6101C136.436 19.8474 135.638 19.9092 134.751 19.7954C133.864 19.6816 133.103 19.4198 132.469 19.0099C131.831 18.5958 131.359 18.0732 131.054 17.4422C130.746 16.8069 130.643 16.0985 130.743 15.3171C130.801 14.8662 130.933 14.4306 131.14 14.0103C131.346 13.5901 131.642 13.2213 132.026 12.904C132.407 12.5862 132.887 12.3557 133.467 12.2124C134.047 12.0691 134.74 12.0493 135.548 12.1529L136.112 12.2252L135.256 18.8978L134.106 18.7503L134.789 13.4303C134.3 13.3676 133.852 13.4093 133.443 13.5555C133.036 13.698 132.698 13.9334 132.431 14.2619C132.164 14.5866 131.999 14.9895 131.938 15.4704C131.87 16.0001 131.942 16.4753 132.156 16.8961C132.366 17.3126 132.666 17.6509 133.056 17.911C133.447 18.1712 133.881 18.3319 134.358 18.3931L135.124 18.4914C135.778 18.5753 136.347 18.5337 136.83 18.3666C137.311 18.1953 137.695 17.9219 137.984 17.5465C138.269 17.1707 138.446 16.7141 138.515 16.1768C138.56 15.8274 138.551 15.5056 138.49 15.2112C138.425 14.9127 138.306 14.6473 138.134 14.4151C137.957 14.1825 137.726 13.9905 137.44 13.8392L137.965 12.6006C138.384 12.7917 138.738 13.0682 139.028 13.43C139.313 13.7913 139.518 14.2186 139.642 14.7118C139.762 15.2046 139.785 15.744 139.709 16.3301Z" fill="white"/>
<path d="M133.339 3.03369L133.707 4.23018C133.508 4.31048 133.316 4.42662 133.13 4.57861C132.94 4.72691 132.785 4.92744 132.666 5.18022C132.547 5.43299 132.491 5.7544 132.5 6.14446C132.512 6.67841 132.645 7.12057 132.9 7.47095C133.15 7.81762 133.463 7.9867 133.838 7.97817C134.171 7.9706 134.431 7.84344 134.619 7.59669C134.807 7.34994 134.959 6.96759 135.076 6.44964L135.365 5.14729C135.536 4.36289 135.813 3.77501 136.194 3.38367C136.572 2.99242 137.065 2.78986 137.675 2.776C138.175 2.76464 138.625 2.89839 139.025 3.17724C139.426 3.45231 139.745 3.84287 139.984 4.34894C140.223 4.85501 140.35 5.44697 140.365 6.12482C140.386 7.01475 140.209 7.75569 139.836 8.34765C139.463 8.93961 138.907 9.32166 138.169 9.49379L137.822 8.22862C138.288 8.09677 138.635 7.85966 138.863 7.51729C139.09 7.17113 139.197 6.7235 139.184 6.1744C139.17 5.54956 139.026 5.05649 138.753 4.69518C138.476 4.33018 138.15 4.15194 137.775 4.16046C137.472 4.16734 137.22 4.27914 137.021 4.49586C136.817 4.71266 136.669 5.04186 136.577 5.48346L136.269 6.94538C136.098 7.74872 135.818 8.34236 135.429 8.7263C135.036 9.10654 134.538 9.3035 133.936 9.31719C133.444 9.32838 133.005 9.20005 132.62 8.93222C132.235 8.66059 131.929 8.28677 131.703 7.81074C131.476 7.33092 131.355 6.78427 131.341 6.17079C131.322 5.30738 131.496 4.62522 131.863 4.12432C132.231 3.61963 132.722 3.25608 133.339 3.03369Z" fill="white"/>
</svg>
