<svg width="1440" height="1024" viewBox="0 0 1440 1024" fill="none" xmlns="http://www.w3.org/2000/svg">
<g clip-path="url(#clip0_103_116)">
<rect width="1440" height="1024" fill="#081622"/>
<path d="M200.115 303.064V261.023C200.115 255.262 198.992 249.842 196.746 244.764C194.598 239.588 191.619 235.096 187.811 231.287C184.002 227.479 179.51 224.5 174.334 222.352C169.256 220.105 163.836 218.982 158.074 218.982C152.312 218.982 146.844 220.105 141.668 222.352C136.59 224.5 132.146 227.479 128.338 231.287C124.529 235.096 121.502 239.588 119.256 244.764C117.107 249.842 116.033 255.262 116.033 261.023V303.064H200.115ZM242.156 387H200.115V344.959H116.033V387H74.1387V261.023C74.1387 249.402 76.3359 238.514 80.7305 228.357C85.125 218.104 91.082 209.168 98.6016 201.551C106.219 193.934 115.105 187.928 125.262 183.533C135.516 179.139 146.453 176.941 158.074 176.941C169.695 176.941 180.584 179.139 190.74 183.533C200.994 187.928 209.93 193.934 217.547 201.551C225.164 209.168 231.17 218.104 235.564 228.357C239.959 238.514 242.156 249.402 242.156 261.023V387ZM446.648 387H401.678L320.672 248.719V387H278.631V176.941H323.602L404.607 315.369V176.941H446.648V387ZM653.777 387H608.807L527.801 248.719V387H485.76V176.941H530.73L611.736 315.369V176.941H653.777V387ZM787.371 387H745.477V321.229C736.199 318.885 727.654 315.125 719.842 309.949C712.127 304.773 705.486 298.621 699.92 291.492C694.354 284.266 690.008 276.307 686.883 267.615C683.855 258.826 682.342 249.598 682.342 239.93V176.941H724.383V239.93C724.383 245.691 725.457 251.16 727.605 256.336C729.852 261.414 732.879 265.857 736.688 269.666C740.496 273.475 744.939 276.502 750.018 278.748C755.193 280.896 760.662 281.971 766.424 281.971C772.186 281.971 777.605 280.896 782.684 278.748C787.859 276.502 792.352 273.475 796.16 269.666C799.969 265.857 802.947 261.414 805.096 256.336C807.342 251.16 808.465 245.691 808.465 239.93V176.941H850.359V239.93C850.359 249.598 848.797 258.826 845.672 267.615C842.645 276.307 838.348 284.266 832.781 291.492C827.215 298.621 820.574 304.773 812.859 309.949C805.145 315.125 796.648 318.885 787.371 321.229V387ZM118.523 591.982V676.064H160.564C166.326 676.064 171.746 674.99 176.824 672.842C181.902 670.596 186.346 667.568 190.154 663.76C193.963 659.951 196.941 655.508 199.09 650.43C201.336 645.254 202.459 639.785 202.459 634.023C202.459 628.262 201.336 622.842 199.09 617.764C196.941 612.588 193.963 608.096 190.154 604.287C186.346 600.479 181.902 597.5 176.824 595.352C171.746 593.105 166.326 591.982 160.564 591.982H118.523ZM118.523 760H76.4824V549.941H160.564C168.279 549.941 175.701 550.967 182.83 553.018C189.959 554.971 196.6 557.803 202.752 561.514C209.002 565.127 214.666 569.521 219.744 574.697C224.92 579.775 229.314 585.439 232.928 591.689C236.639 597.939 239.471 604.629 241.424 611.758C243.475 618.887 244.5 626.309 244.5 634.023C244.5 641.25 243.572 648.281 241.717 655.117C239.959 661.953 237.371 668.447 233.953 674.6C230.633 680.752 226.531 686.416 221.648 691.592C216.766 696.768 211.297 701.26 205.242 705.068L228.533 760H183.855L165.545 717.666L118.523 717.959V760ZM477.996 655.85C477.996 665.811 476.678 675.43 474.041 684.707C471.502 693.887 467.889 702.529 463.201 710.635C458.514 718.643 452.85 725.967 446.209 732.607C439.568 739.248 432.244 744.961 424.236 749.746C416.229 754.434 407.586 758.047 398.309 760.586C389.031 763.223 379.412 764.541 369.451 764.541C359.49 764.541 349.871 763.223 340.594 760.586C331.414 758.047 322.771 754.434 314.666 749.746C306.658 744.961 299.334 739.248 292.693 732.607C286.053 725.967 280.34 718.643 275.555 710.635C270.867 702.529 267.205 693.887 264.568 684.707C262.029 675.43 260.76 665.811 260.76 655.85C260.76 645.889 262.029 636.27 264.568 626.992C267.205 617.715 270.867 609.072 275.555 601.064C280.34 593.057 286.053 585.732 292.693 579.092C299.334 572.451 306.658 566.787 314.666 562.1C322.771 557.412 331.414 553.799 340.594 551.26C349.871 548.623 359.49 547.305 369.451 547.305C379.412 547.305 389.031 548.623 398.309 551.26C407.586 553.799 416.229 557.412 424.236 562.1C432.244 566.787 439.568 572.451 446.209 579.092C452.85 585.732 458.514 593.057 463.201 601.064C467.889 609.072 471.502 617.715 474.041 626.992C476.678 636.27 477.996 645.889 477.996 655.85ZM436.248 655.85C436.248 646.67 434.49 638.027 430.975 629.922C427.459 621.719 422.674 614.639 416.619 608.682C410.662 602.627 403.582 597.842 395.379 594.326C387.273 590.811 378.631 589.053 369.451 589.053C360.174 589.053 351.482 590.811 343.377 594.326C335.271 597.842 328.191 602.627 322.137 608.682C316.082 614.639 311.297 621.719 307.781 629.922C304.266 638.027 302.508 646.67 302.508 655.85C302.508 665.029 304.266 673.672 307.781 681.777C311.297 689.785 316.082 696.816 322.137 702.871C328.191 708.926 335.271 713.711 343.377 717.227C351.482 720.742 360.174 722.5 369.451 722.5C378.631 722.5 387.273 720.742 395.379 717.227C403.582 713.711 410.662 708.926 416.619 702.871C422.674 696.816 427.459 689.785 430.975 681.777C434.49 673.672 436.248 665.029 436.248 655.85ZM673.699 760H628.729L547.723 621.719V760H505.682V549.941H550.652L631.658 688.369V549.941H673.699V760ZM881.121 654.971C881.121 664.639 879.852 673.965 877.312 682.949C874.871 691.836 871.355 700.186 866.766 707.998C862.176 715.713 856.707 722.793 850.359 729.238C844.012 735.586 836.932 741.055 829.119 745.645C821.307 750.234 812.908 753.799 803.924 756.338C795.037 758.779 785.76 760 776.092 760H712.811V549.941H776.092C785.76 549.941 795.037 551.211 803.924 553.75C812.908 556.191 821.307 559.707 829.119 564.297C836.932 568.887 844.012 574.404 850.359 580.85C856.707 587.197 862.176 594.277 866.766 602.09C871.355 609.805 874.871 618.154 877.312 627.139C879.852 636.025 881.121 645.303 881.121 654.971ZM839.08 654.971C839.08 646.279 837.42 638.125 834.1 630.508C830.877 622.891 826.385 616.25 820.623 610.586C814.959 604.824 808.27 600.283 800.555 596.963C792.938 593.643 784.783 591.982 776.092 591.982H755.145V717.959H776.092C784.783 717.959 792.938 716.348 800.555 713.125C808.27 709.805 814.959 705.312 820.623 699.648C826.385 693.887 830.877 687.197 834.1 679.58C837.42 671.865 839.08 663.662 839.08 654.971ZM1114.91 655.85C1114.91 665.811 1113.59 675.43 1110.96 684.707C1108.42 693.887 1104.8 702.529 1100.12 710.635C1095.43 718.643 1089.76 725.967 1083.12 732.607C1076.48 739.248 1069.16 744.961 1061.15 749.746C1053.14 754.434 1044.5 758.047 1035.22 760.586C1025.95 763.223 1016.33 764.541 1006.37 764.541C996.404 764.541 986.785 763.223 977.508 760.586C968.328 758.047 959.686 754.434 951.58 749.746C943.572 744.961 936.248 739.248 929.607 732.607C922.967 725.967 917.254 718.643 912.469 710.635C907.781 702.529 904.119 693.887 901.482 684.707C898.943 675.43 897.674 665.811 897.674 655.85C897.674 645.889 898.943 636.27 901.482 626.992C904.119 617.715 907.781 609.072 912.469 601.064C917.254 593.057 922.967 585.732 929.607 579.092C936.248 572.451 943.572 566.787 951.58 562.1C959.686 557.412 968.328 553.799 977.508 551.26C986.785 548.623 996.404 547.305 1006.37 547.305C1016.33 547.305 1025.95 548.623 1035.22 551.26C1044.5 553.799 1053.14 557.412 1061.15 562.1C1069.16 566.787 1076.48 572.451 1083.12 579.092C1089.76 585.732 1095.43 593.057 1100.12 601.064C1104.8 609.072 1108.42 617.715 1110.96 626.992C1113.59 636.27 1114.91 645.889 1114.91 655.85ZM1073.16 655.85C1073.16 646.67 1071.4 638.027 1067.89 629.922C1064.37 621.719 1059.59 614.639 1053.53 608.682C1047.58 602.627 1040.5 597.842 1032.29 594.326C1024.19 590.811 1015.54 589.053 1006.37 589.053C997.088 589.053 988.396 590.811 980.291 594.326C972.186 597.842 965.105 602.627 959.051 608.682C952.996 614.639 948.211 621.719 944.695 629.922C941.18 638.027 939.422 646.67 939.422 655.85C939.422 665.029 941.18 673.672 944.695 681.777C948.211 689.785 952.996 696.816 959.051 702.871C965.105 708.926 972.186 713.711 980.291 717.227C988.396 720.742 997.088 722.5 1006.37 722.5C1015.54 722.5 1024.19 720.742 1032.29 717.227C1040.5 713.711 1047.58 708.926 1053.53 702.871C1059.59 696.816 1064.37 689.785 1067.89 681.777C1071.4 673.672 1073.16 665.029 1073.16 655.85ZM1008.12 535.293L991.57 513.467L1035.08 472.891L1059.1 503.506L1008.12 535.293ZM1310.61 760H1265.64L1184.64 621.719V760H1142.6V549.941H1187.57L1268.57 688.369V549.941H1310.61V760Z" fill="white" fill-opacity="0.04"/>
</g>
<defs>
<clipPath id="clip0_103_116">
<rect width="1440" height="1024" fill="white"/>
</clipPath>
</defs>
</svg>
