<svg width="1390" height="985" viewBox="0 0 1390 985" fill="none" xmlns="http://www.w3.org/2000/svg">
<g clip-path="url(#clip0_399_30)">
<rect width="1390" height="985" fill="#1E1E1E"/>
<rect x="277.5" y="352.5" width="767" height="185" fill="#272727" stroke="white"/>
<rect x="137" y="381" width="140" height="24" fill="#D73E4C"/>
<rect x="137.5" y="381.5" width="139" height="23" fill="#D73E4C" stroke="black"/>
<rect x="1045" y="381" width="140" height="24" fill="#D73E4C"/>
<rect x="137" y="415" width="140" height="24" fill="#F67246"/>
<rect x="1045" y="415" width="140" height="24" fill="#F67246"/>
<rect x="137" y="449" width="140" height="24" fill="#E9C465"/>
<rect x="137" y="485" width="140" height="24" fill="#8FABA7"/>
<rect x="1045" y="485" width="140" height="24" fill="#8FABA7"/>
<rect x="1045" y="449" width="140" height="24" fill="#E9C465"/>
<path d="M449 445C449 472.544 425.791 495 397 495C368.209 495 345 472.544 345 445C345 417.456 368.209 395 397 395C425.791 395 449 417.456 449 445Z" fill="#1E1E1E" stroke="#D9D9D9" stroke-width="4"/>
<rect x="498.5" y="405.5" width="327" height="79" fill="#1E1E1E" stroke="#D9D9D9"/>
<rect x="343" y="445" width="108" height="8" fill="#D9D9D9"/>
<rect x="401.272" y="394.012" width="99.9899" height="8" transform="rotate(90.1138 401.272 394.012)" fill="#D9D9D9"/>
<rect x="439.189" y="414.729" width="99.9899" height="8" transform="rotate(135.735 439.189 414.729)" fill="#D9D9D9"/>
<rect x="357.504" y="413.256" width="99.9899" height="8" transform="rotate(40.1943 357.504 413.256)" fill="#D9D9D9"/>
<path d="M437.5 445C437.5 466.804 419.379 484.5 397 484.5C374.621 484.5 356.5 466.804 356.5 445C356.5 423.196 374.621 405.5 397 405.5C419.379 405.5 437.5 423.196 437.5 445Z" fill="#171717" stroke="#D9D9D9"/>
<path d="M988 445C988 472.544 964.791 495 936 495C907.209 495 884 472.544 884 445C884 417.456 907.209 395 936 395C964.791 395 988 417.456 988 445Z" fill="#1E1E1E" stroke="#D9D9D9" stroke-width="4"/>
<rect x="882" y="445" width="108" height="8" fill="#D9D9D9"/>
<rect x="940.272" y="394.012" width="99.9899" height="8" transform="rotate(90.1138 940.272 394.012)" fill="#D9D9D9"/>
<rect x="978.189" y="414.729" width="99.9899" height="8" transform="rotate(135.735 978.189 414.729)" fill="#D9D9D9"/>
<rect x="896.504" y="413.256" width="99.9899" height="8" transform="rotate(40.1943 896.504 413.256)" fill="#D9D9D9"/>
<path d="M976.5 445C976.5 466.804 958.379 484.5 936 484.5C913.621 484.5 895.5 466.804 895.5 445C895.5 423.196 913.621 405.5 936 405.5C958.379 405.5 976.5 423.196 976.5 445Z" fill="#171717" stroke="#D9D9D9"/>
<path d="M107 423L110.817 434.401H123.168L113.176 441.448L116.992 452.849L107 445.802L97.0077 452.849L100.824 441.448L90.832 434.401H103.183L107 423Z" fill="#D9D9D9"/>
<path d="M1223 423L1226.82 434.401H1239.17L1229.18 441.448L1232.99 452.849L1223 445.802L1213.01 452.849L1216.82 441.448L1206.83 434.401H1219.18L1223 423Z" fill="#D9D9D9"/>
<path d="M826.298 407C818.741 408.889 810.486 420.875 807.853 428.056C805.108 435.542 803.872 446.294 806.298 454C808.637 461.429 810.463 467.832 814.742 474.056C817.04 477.397 821.653 480.71 823.298 484" stroke="#FBFBFB" stroke-linecap="round"/>
<path d="M741.187 482.574C748.687 480.471 756.598 468.256 759.026 461.003C761.557 453.442 762.488 442.659 759.844 435.025C757.295 427.665 755.287 421.317 750.833 415.217C748.442 411.942 743.736 408.761 741.999 405.52" stroke="#FBFBFB" stroke-linecap="round"/>
</g>
<defs>
<clipPath id="clip0_399_30">
<rect width="1390" height="985" fill="white"/>
</clipPath>
</defs>
</svg>
