<svg width="342" height="69" viewBox="0 0 342 69" fill="none" xmlns="http://www.w3.org/2000/svg">
<path d="M0.142578 47.5215C0.0839844 47.2871 0.0839844 46.9648 0.142578 46.5547C0.201172 46.0859 0.289062 45.6172 0.40625 45.1484C0.523438 44.6211 0.669922 44.1523 0.845703 43.7422C1.02148 43.332 1.19727 43.0684 1.37305 42.9512C1.37305 42.8926 1.54883 42.834 1.90039 42.7754C2.31055 42.6582 2.63281 42.5996 2.86719 42.5996C3.80469 42.5996 4.53711 42.8633 5.06445 43.3906C5.5918 43.918 6.08984 44.5039 6.55859 45.1484C7.08594 45.7344 7.67188 46.291 8.31641 46.8184C9.01953 47.3457 9.98633 47.6094 11.2168 47.6094C14.498 47.6094 17.5156 47.0527 20.2695 45.9395C23.082 44.8262 25.6895 43.625 28.0918 42.3359C30.5527 40.9883 32.8672 39.7578 35.0352 38.6445C37.2617 37.5312 39.4297 36.9746 41.5391 36.9746C41.5391 37.7949 41.1582 38.6738 40.3965 39.6113C39.6934 40.5488 38.8145 41.457 37.7598 42.3359C36.7637 43.2148 35.709 44.0059 34.5957 44.709C33.541 45.4121 32.6914 45.9395 32.0469 46.291C30.1133 47.4629 28.3555 48.459 26.7734 49.2793C25.1914 50.041 23.5801 50.7148 21.9395 51.3008C20.2988 51.8281 18.5703 52.2383 16.7539 52.5312C14.9375 52.8242 12.8281 53.0293 10.4258 53.1465C10.6602 53.4395 11.0996 53.9082 11.7441 54.5527C12.3887 55.1973 13.0625 55.9004 13.7656 56.6621C14.5273 57.3652 15.2305 58.0391 15.875 58.6836C16.5195 59.3281 16.9883 59.7676 17.2812 60.002C17.8086 60.4707 18.4238 60.8223 19.127 61.0566C19.8301 61.2324 20.5332 61.3496 21.2363 61.4082C21.998 61.4082 22.7305 61.3789 23.4336 61.3203C24.1953 61.2617 24.8984 61.2324 25.543 61.2324C27.0078 61.2324 28.707 61.1445 30.6406 60.9688C32.6328 60.7344 34.5664 60.3535 36.4414 59.8262C38.3164 59.2402 39.9863 58.4199 41.4512 57.3652C42.9746 56.3105 44.0293 54.9043 44.6152 53.1465C44.7324 52.7949 44.9375 52.0625 45.2305 50.9492C45.582 49.8359 45.9922 48.5469 46.4609 47.082C46.9297 45.6172 47.4277 44.0352 47.9551 42.3359C48.4824 40.6367 48.9805 39.0547 49.4492 37.5898C49.918 36.125 50.3281 34.8359 50.6797 33.7227C51.0898 32.6094 51.3535 31.877 51.4707 31.5254C52.5254 29.416 53.7559 27.2188 55.1621 24.9336C56.627 22.5898 58.2383 20.4219 59.9961 18.4297C61.7539 16.3789 63.6289 14.5918 65.6211 13.0684C67.6133 11.4863 69.6934 10.4023 71.8613 9.81641C73.9121 9.81641 75.377 10.5195 76.2559 11.9258C77.1934 13.332 77.6621 14.9141 77.6621 16.6719C77.6621 21.0664 76.7539 25.3438 74.9375 29.5039C73.1211 33.6641 70.8066 37.6191 67.9941 41.3691C65.2402 45.1191 62.1641 48.5762 58.7656 51.7402C55.4258 54.9043 52.2031 57.6582 49.0977 60.002C49.0977 60.1777 49.0391 60.4414 48.9219 60.793C48.8633 61.0859 48.7754 61.4082 48.6582 61.7598C48.541 62.1113 48.4238 62.4629 48.3066 62.8145C48.1895 63.1074 48.1016 63.3125 48.043 63.4297C47.9844 63.4883 47.9258 63.5176 47.8672 63.5176H47.6035C47.4863 63.5176 47.3398 63.5176 47.1641 63.5176C47.0469 63.459 46.959 63.4297 46.9004 63.4297C46.6074 63.3711 46.0215 63.1953 45.1426 62.9023C44.3223 62.6094 43.7656 62.4043 43.4727 62.2871C42.9453 62.4629 42.0371 62.7852 40.748 63.2539C39.459 63.7227 38.082 64.1914 36.6172 64.6602C35.1523 65.1289 33.7754 65.5684 32.4863 65.9785C31.1973 66.3887 30.2891 66.6816 29.7617 66.8574C29.6445 66.916 29.3516 67.0039 28.8828 67.1211C28.4141 67.1797 27.8574 67.2676 27.2129 67.3848C26.627 67.502 26.041 67.6191 25.4551 67.7363C24.8691 67.8535 24.4297 67.9414 24.1367 68H23.5215C20.8262 68 18.2773 67.3555 15.875 66.0664C13.4727 64.7188 11.2754 63.0488 9.2832 61.0566C7.34961 59.0059 5.5918 56.7793 4.00977 54.377C2.48633 51.9746 1.19727 49.6895 0.142578 47.5215ZM73.5312 15.1777C71.5977 15.1777 69.6641 15.8516 67.7305 17.1992C65.8555 18.4883 64.0391 20.1875 62.2812 22.2969C60.582 24.4062 59 26.8086 57.5352 29.5039C56.0703 32.1406 54.7812 34.8066 53.668 37.502C52.6133 40.1387 51.7637 42.7168 51.1191 45.2363C50.5332 47.6973 50.2402 49.7773 50.2402 51.4766C50.2402 51.5938 50.2402 51.7109 50.2402 51.8281C50.2988 51.9453 50.3281 52.0332 50.3281 52.0918C53.668 50.0996 56.7441 47.8145 59.5566 45.2363C62.3691 42.5996 64.8008 39.6992 66.8516 36.5352C68.9609 33.3711 70.6016 30.002 71.7734 26.4277C72.9453 22.8535 73.5312 19.1035 73.5312 15.1777ZM73.3555 64.0449C73.3555 63.5176 73.3555 63.1074 73.3555 62.8145C73.3555 62.5215 73.3848 62.2578 73.4434 62.0234C73.5605 61.7305 73.707 61.4375 73.8828 61.1445C74.0586 60.8516 74.293 60.4707 74.5859 60.002C75.0547 59.1816 75.9336 57.7461 77.2227 55.6953C78.5117 53.6445 79.8887 51.4766 81.3535 49.1914C82.8184 46.9062 84.1953 44.7383 85.4844 42.6875C86.832 40.6367 87.7695 39.2012 88.2969 38.3809C88.3555 38.3223 88.502 38.293 88.7363 38.293C89.0293 38.293 89.2344 38.293 89.3516 38.293C89.4688 38.293 89.6738 38.293 89.9668 38.293C90.2598 38.293 90.4355 38.3223 90.4941 38.3809C90.5527 38.4395 90.6699 38.5859 90.8457 38.8203C91.0801 39.0547 91.3145 39.3184 91.5488 39.6113C91.8418 39.8457 92.0762 40.0801 92.252 40.3145C92.4863 40.5488 92.6621 40.666 92.7793 40.666C93.3066 40.666 93.8633 40.4902 94.4492 40.1387C95.0352 39.7871 95.6211 39.4062 96.207 38.9961C96.8516 38.5273 97.4961 38.1172 98.1406 37.7656C98.7852 37.4141 99.459 37.2383 100.162 37.2383C100.924 37.2383 101.627 37.4141 102.271 37.7656C102.916 38.1172 103.473 38.5566 103.941 39.084C104.41 39.6113 104.762 40.1973 104.996 40.8418C105.289 41.4863 105.436 42.1309 105.436 42.7754C105.436 44.123 105.23 45.4121 104.82 46.6426C104.469 47.873 104.059 49.1035 103.59 50.334C103.121 51.5059 102.682 52.707 102.271 53.9375C101.92 55.1094 101.744 56.3398 101.744 57.6289C101.744 58.918 101.891 59.8555 102.184 60.4414C102.477 60.9688 103.297 61.2324 104.645 61.2324C106.227 61.2324 107.721 60.998 109.127 60.5293C110.592 60.0605 112.086 59.8262 113.609 59.8262C113.609 61.2324 113.17 62.4043 112.291 63.3418C111.471 64.2793 110.416 65.041 109.127 65.627C107.896 66.1543 106.549 66.5352 105.084 66.7695C103.678 66.9453 102.389 67.0332 101.217 67.0332C98.9902 67.0332 97.3496 66.418 96.2949 65.1875C95.2988 63.8984 94.8008 62.1992 94.8008 60.0898C94.8008 58.6836 95.0352 57.3652 95.5039 56.1348C96.0312 54.9043 96.5879 53.7031 97.1738 52.5312C97.8184 51.3594 98.4043 50.1875 98.9316 49.0156C99.459 47.8438 99.7227 46.584 99.7227 45.2363C99.7227 44.8848 99.6641 44.416 99.5469 43.8301C99.4297 43.2441 99.0488 42.9512 98.4043 42.9512C96.4707 42.9512 94.7129 43.5664 93.1309 44.7969C91.6074 46.0273 90.2012 47.5801 88.9121 49.4551C87.6816 51.3301 86.5391 53.3516 85.4844 55.5195C84.4883 57.6875 83.5215 59.709 82.584 61.584C81.7051 63.459 80.8555 65.0117 80.0352 66.2422C79.2148 67.4727 78.3652 68.0879 77.4863 68.0879C76.2559 68.0879 75.2598 67.707 74.498 66.9453C73.7363 66.1836 73.3555 65.2168 73.3555 64.0449ZM110.709 62.2871C110.709 61.4668 110.797 60.7637 110.973 60.1777C111.148 59.5332 111.471 58.7129 111.939 57.7168C112.35 57.1309 113.082 56.0176 114.137 54.377C115.25 52.7363 116.393 51.0078 117.564 49.1914C118.795 47.375 119.938 45.6758 120.992 44.0938C122.105 42.4531 122.867 41.3105 123.277 40.666C123.805 39.9043 124.215 39.4941 124.508 39.4355C124.801 39.377 125.357 39.3477 126.178 39.3477C126.705 39.3477 127.262 39.377 127.848 39.4355C128.492 39.4941 128.902 39.9043 129.078 40.666C128.258 42.6582 127.145 44.5625 125.738 46.3789C124.391 48.1367 123.043 49.8945 121.695 51.6523C120.406 53.4102 119.264 55.2266 118.268 57.1016C117.271 58.918 116.773 60.8809 116.773 62.9902C117.008 62.9902 117.359 63.0195 117.828 63.0781C118.355 63.1367 118.912 63.1953 119.498 63.2539C120.084 63.3125 120.611 63.3711 121.08 63.4297C121.607 63.4883 121.988 63.4883 122.223 63.4297C122.574 63.3711 123.16 63.2539 123.98 63.0781C124.859 62.8438 125.768 62.6094 126.705 62.375C127.701 62.1406 128.639 61.9062 129.518 61.6719C130.396 61.4375 131.012 61.2617 131.363 61.1445C131.363 61.2617 131.363 61.4668 131.363 61.7598C131.422 61.9941 131.451 62.1699 131.451 62.2871C131.451 63.459 130.895 64.4258 129.781 65.1875C128.727 65.9492 127.467 66.5645 126.002 67.0332C124.596 67.4434 123.131 67.7363 121.607 67.9121C120.143 68.0293 119 68.0879 118.18 68.0879C117.301 68.0879 116.393 68 115.455 67.8242C114.576 67.5898 113.785 67.2383 113.082 66.7695C112.379 66.3008 111.793 65.7148 111.324 65.0117C110.914 64.25 110.709 63.3418 110.709 62.2871ZM136.285 10.7832C137.047 10.7832 137.75 10.8125 138.395 10.8711C139.039 10.9297 139.596 11.0762 140.064 11.3105C140.533 11.5449 140.914 11.8965 141.207 12.3652C141.5 12.834 141.646 13.4785 141.646 14.2988C141.646 14.6504 141.646 15.0312 141.646 15.4414C141.646 15.8516 141.588 16.2617 141.471 16.6719C141.412 17.0234 141.266 17.3457 141.031 17.6387C140.797 17.873 140.416 17.9902 139.889 17.9902C139.068 17.9902 138.395 17.6973 137.867 17.1113C137.398 16.5254 137.047 15.8516 136.812 15.0898C136.578 14.2695 136.432 13.4492 136.373 12.6289C136.314 11.8086 136.285 11.1934 136.285 10.7832ZM153.336 36.1836C151.988 36.3594 150.436 37.209 148.678 38.7324C146.92 40.1973 145.221 42.0137 143.58 44.1816C141.998 46.291 140.65 48.6055 139.537 51.125C138.424 53.5859 137.867 55.8711 137.867 57.9805C137.867 59.6797 138.307 60.8809 139.186 61.584C140.064 62.2285 141.324 62.5508 142.965 62.5508C144.723 62.5508 146.422 62.3457 148.062 61.9355C149.762 61.4668 151.432 60.998 153.072 60.5293C154.771 60.002 156.441 59.5332 158.082 59.123C159.781 58.6543 161.51 58.4199 163.268 58.4199C163.268 59.2402 163.15 59.9434 162.916 60.5293C162.682 61.0566 162.33 61.6426 161.861 62.2871C158.814 63.752 155.68 65.0996 152.457 66.3301C149.234 67.502 145.865 68.0879 142.35 68.0879C141.295 68.0879 140.182 67.9121 139.01 67.5605C137.838 67.1504 136.754 66.5938 135.758 65.8906C134.762 65.1875 133.912 64.3379 133.209 63.3418C132.564 62.3457 132.242 61.2324 132.242 60.002C132.242 57.3652 132.623 54.8164 133.385 52.3555C134.146 49.8359 135.201 47.4629 136.549 45.2363C137.896 43.0098 139.508 40.959 141.383 39.084C143.316 37.209 145.396 35.5684 147.623 34.1621V34.0742C148.502 33.5469 149.498 33.0488 150.611 32.5801C151.783 32.0527 152.867 31.7598 153.863 31.7012C154.859 31.584 155.68 31.8184 156.324 32.4043C157.027 32.9316 157.379 33.957 157.379 35.4805C157.379 36.1836 157.32 37.1211 157.203 38.293C157.086 39.4062 156.764 40.1973 156.236 40.666C155.768 40.959 155.152 41.2227 154.391 41.457C154.039 41.5742 153.688 41.6621 153.336 41.7207V36.1836ZM162.125 62.2871C162.125 61.4668 162.213 60.7637 162.389 60.1777C162.564 59.5332 162.887 58.7129 163.355 57.7168C163.766 57.1309 164.498 56.0176 165.553 54.377C166.666 52.7363 167.809 51.0078 168.98 49.1914C170.211 47.375 171.354 45.6758 172.408 44.0938C173.521 42.4531 174.283 41.3105 174.693 40.666C175.221 39.9043 175.631 39.4941 175.924 39.4355C176.217 39.377 176.773 39.3477 177.594 39.3477C178.121 39.3477 178.678 39.377 179.264 39.4355C179.908 39.4941 180.318 39.9043 180.494 40.666C179.674 42.6582 178.561 44.5625 177.154 46.3789C175.807 48.1367 174.459 49.8945 173.111 51.6523C171.822 53.4102 170.68 55.2266 169.684 57.1016C168.688 58.918 168.189 60.8809 168.189 62.9902C168.424 62.9902 168.775 63.0195 169.244 63.0781C169.771 63.1367 170.328 63.1953 170.914 63.2539C171.5 63.3125 172.027 63.3711 172.496 63.4297C173.023 63.4883 173.404 63.4883 173.639 63.4297C173.99 63.3711 174.576 63.2539 175.396 63.0781C176.275 62.8438 177.184 62.6094 178.121 62.375C179.117 62.1406 180.055 61.9062 180.934 61.6719C181.812 61.4375 182.428 61.2617 182.779 61.1445C182.779 61.2617 182.779 61.4668 182.779 61.7598C182.838 61.9941 182.867 62.1699 182.867 62.2871C182.867 63.459 182.311 64.4258 181.197 65.1875C180.143 65.9492 178.883 66.5645 177.418 67.0332C176.012 67.4434 174.547 67.7363 173.023 67.9121C171.559 68.0293 170.416 68.0879 169.596 68.0879C168.717 68.0879 167.809 68 166.871 67.8242C165.992 67.5898 165.201 67.2383 164.498 66.7695C163.795 66.3008 163.209 65.7148 162.74 65.0117C162.33 64.25 162.125 63.3418 162.125 62.2871ZM187.701 10.7832C188.463 10.7832 189.166 10.8125 189.811 10.8711C190.455 10.9297 191.012 11.0762 191.48 11.3105C191.949 11.5449 192.33 11.8965 192.623 12.3652C192.916 12.834 193.062 13.4785 193.062 14.2988C193.062 14.6504 193.062 15.0312 193.062 15.4414C193.062 15.8516 193.004 16.2617 192.887 16.6719C192.828 17.0234 192.682 17.3457 192.447 17.6387C192.213 17.873 191.832 17.9902 191.305 17.9902C190.484 17.9902 189.811 17.6973 189.283 17.1113C188.814 16.5254 188.463 15.8516 188.229 15.0898C187.994 14.2695 187.848 13.4492 187.789 12.6289C187.73 11.8086 187.701 11.1934 187.701 10.7832ZM184.098 62.2871C184.625 58.9473 185.621 55.8711 187.086 53.0586C188.551 50.2461 190.221 47.8145 192.096 45.7637C194.029 43.6543 196.109 41.9258 198.336 40.5781C200.562 39.2305 202.73 38.3809 204.84 38.0293C206.949 37.6191 208.883 37.707 210.641 38.293C212.457 38.8789 213.922 40.0508 215.035 41.8086C215.035 43.1562 214.713 44.4453 214.068 45.6758C213.482 46.9062 212.809 48.1367 212.047 49.3672C211.344 50.5977 210.67 51.8574 210.025 53.1465C209.439 54.4355 209.146 55.8125 209.146 57.2773C209.146 58.8008 209.469 60.0312 210.113 60.9688C210.816 61.8477 212.018 62.2871 213.717 62.2871C215.123 62.2871 216.471 62.082 217.76 61.6719C219.107 61.2617 220.455 61.0566 221.803 61.0566C222.037 61.0566 222.418 61.0859 222.945 61.1445C223.531 61.1445 223.912 61.1445 224.088 61.1445C223.385 62.1406 222.477 62.9902 221.363 63.6934C220.25 64.3965 219.078 65.0117 217.848 65.5391C216.617 66.0078 215.328 66.3594 213.98 66.5938C212.691 66.8281 211.49 66.9453 210.377 66.9453C209.322 66.9453 208.385 66.7109 207.564 66.2422C206.744 65.7734 206.041 65.1582 205.455 64.3965C204.869 63.6348 204.4 62.7852 204.049 61.8477C203.756 60.8516 203.609 59.8848 203.609 58.9473C202.73 59.9434 201.764 60.998 200.709 62.1113C199.713 63.166 198.629 64.1328 197.457 65.0117C196.344 65.8906 195.113 66.623 193.766 67.209C192.477 67.7949 191.129 68.0879 189.723 68.0879C188.199 68.0879 186.881 67.5312 185.768 66.418C184.654 65.2461 184.098 63.8691 184.098 62.2871ZM189.898 59.5625C189.898 60.0312 189.898 60.5586 189.898 61.1445C189.957 61.7305 190.338 62.1113 191.041 62.2871C192.506 61.9355 194.176 61.1738 196.051 60.002C197.926 58.7715 199.684 57.3652 201.324 55.7832C202.965 54.1426 204.342 52.4141 205.455 50.5977C206.568 48.7227 207.125 46.9355 207.125 45.2363C207.125 45.1191 207.096 44.9434 207.037 44.709C207.037 44.416 207.037 44.2109 207.037 44.0938C205.045 44.0938 203.023 44.5039 200.973 45.3242C198.922 46.1445 197.076 47.2871 195.436 48.752C193.795 50.1582 192.447 51.7988 191.393 53.6738C190.396 55.5488 189.898 57.5117 189.898 59.5625ZM221.012 59.4746C221.012 57.7754 221.334 56.0762 221.979 54.377C222.623 52.6777 223.385 51.0078 224.264 49.3672C225.143 47.668 226.021 45.998 226.9 44.3574C227.838 42.7168 228.541 41.1055 229.01 39.5234C227.896 40.168 226.93 40.5488 226.109 40.666C225.348 40.7246 224.41 40.7539 223.297 40.7539C223.18 40.7539 222.799 40.7539 222.154 40.7539C221.568 40.6953 221.188 40.666 221.012 40.666C221.363 39.377 222.008 38.2344 222.945 37.2383C223.883 36.1836 224.938 35.3047 226.109 34.6016C227.34 33.8398 228.6 33.2246 229.889 32.7559C231.236 32.2285 232.438 31.8184 233.492 31.5254C235.25 28.7715 236.686 26.0176 237.799 23.2637C238.912 20.4512 240.025 17.7266 241.139 15.0898C242.311 12.3945 243.658 9.8457 245.182 7.44336C246.764 4.98242 248.873 2.72656 251.51 0.675781L251.949 4.01562L240.963 29.7676C241.607 29.5918 242.398 29.416 243.336 29.2402C244.273 29.0645 245.211 28.8887 246.148 28.7129C247.145 28.5371 248.082 28.3906 248.961 28.2734C249.898 28.0977 250.689 27.9219 251.334 27.7461C251.393 27.7461 251.568 27.7461 251.861 27.7461C252.154 27.6875 252.389 27.6582 252.564 27.6582C253.385 27.6582 254.059 27.8047 254.586 28.0977C255.113 28.3906 255.553 29.0352 255.904 30.0312C251.92 31.2031 248.316 32.4336 245.094 33.7227C241.871 35.0117 239.059 36.7109 236.656 38.8203C234.312 40.8711 232.379 43.5078 230.855 46.7305C229.391 49.8945 228.365 53.9668 227.779 58.9473C227.779 60.002 227.838 60.9688 227.955 61.8477C228.072 62.7266 228.805 63.2539 230.152 63.4297C231.5 63.4297 232.76 63.166 233.932 62.6387C235.104 62.1113 236.246 61.5547 237.359 60.9688C238.473 60.3242 239.586 59.7383 240.699 59.2109C241.871 58.6836 243.131 58.4199 244.479 58.4199C244.479 59.8262 243.863 61.1152 242.633 62.2871C241.402 63.459 239.908 64.4844 238.15 65.3633C236.451 66.2422 234.693 66.916 232.877 67.3848C231.061 67.8535 229.566 68.0879 228.395 68.0879C227.223 68.0879 226.168 67.8535 225.23 67.3848C224.293 66.916 223.502 66.3008 222.857 65.5391C222.271 64.7188 221.803 63.7812 221.451 62.7266C221.158 61.6719 221.012 60.5879 221.012 59.4746ZM244.127 62.2871C244.127 61.4668 244.215 60.7637 244.391 60.1777C244.566 59.5332 244.889 58.7129 245.357 57.7168C245.768 57.1309 246.5 56.0176 247.555 54.377C248.668 52.7363 249.811 51.0078 250.982 49.1914C252.213 47.375 253.355 45.6758 254.41 44.0938C255.523 42.4531 256.285 41.3105 256.695 40.666C257.223 39.9043 257.633 39.4941 257.926 39.4355C258.219 39.377 258.775 39.3477 259.596 39.3477C260.123 39.3477 260.68 39.377 261.266 39.4355C261.91 39.4941 262.32 39.9043 262.496 40.666C261.676 42.6582 260.562 44.5625 259.156 46.3789C257.809 48.1367 256.461 49.8945 255.113 51.6523C253.824 53.4102 252.682 55.2266 251.686 57.1016C250.689 58.918 250.191 60.8809 250.191 62.9902C250.426 62.9902 250.777 63.0195 251.246 63.0781C251.773 63.1367 252.33 63.1953 252.916 63.2539C253.502 63.3125 254.029 63.3711 254.498 63.4297C255.025 63.4883 255.406 63.4883 255.641 63.4297C255.992 63.3711 256.578 63.2539 257.398 63.0781C258.277 62.8438 259.186 62.6094 260.123 62.375C261.119 62.1406 262.057 61.9062 262.936 61.6719C263.814 61.4375 264.43 61.2617 264.781 61.1445C264.781 61.2617 264.781 61.4668 264.781 61.7598C264.84 61.9941 264.869 62.1699 264.869 62.2871C264.869 63.459 264.312 64.4258 263.199 65.1875C262.145 65.9492 260.885 66.5645 259.42 67.0332C258.014 67.4434 256.549 67.7363 255.025 67.9121C253.561 68.0293 252.418 68.0879 251.598 68.0879C250.719 68.0879 249.811 68 248.873 67.8242C247.994 67.5898 247.203 67.2383 246.5 66.7695C245.797 66.3008 245.211 65.7148 244.742 65.0117C244.332 64.25 244.127 63.3418 244.127 62.2871ZM269.703 10.7832C270.465 10.7832 271.168 10.8125 271.812 10.8711C272.457 10.9297 273.014 11.0762 273.482 11.3105C273.951 11.5449 274.332 11.8965 274.625 12.3652C274.918 12.834 275.064 13.4785 275.064 14.2988C275.064 14.6504 275.064 15.0312 275.064 15.4414C275.064 15.8516 275.006 16.2617 274.889 16.6719C274.83 17.0234 274.684 17.3457 274.449 17.6387C274.215 17.873 273.834 17.9902 273.307 17.9902C272.486 17.9902 271.812 17.6973 271.285 17.1113C270.816 16.5254 270.465 15.8516 270.23 15.0898C269.996 14.2695 269.85 13.4492 269.791 12.6289C269.732 11.8086 269.703 11.1934 269.703 10.7832ZM265.572 62.4629C265.572 62.2871 265.572 62.0527 265.572 61.7598C265.631 61.4082 265.66 61.2031 265.66 61.1445C265.836 59.3867 266.041 57.1602 266.275 54.4648C266.51 51.7109 266.744 49.0742 266.979 46.5547C267.271 44.0352 267.506 41.8672 267.682 40.0508C267.857 38.1758 267.945 37.2383 267.945 37.2383L270.318 34.9531C271.314 35.2461 272.047 35.6562 272.516 36.1836C272.984 36.6523 273.307 37.1797 273.482 37.7656C273.658 38.3516 273.746 38.9961 273.746 39.6992C273.746 40.4023 273.746 41.1055 273.746 41.8086C273.746 44.2695 273.512 46.6719 273.043 49.0156C272.633 51.3008 272.428 53.6445 272.428 56.0469C272.428 56.1641 272.428 56.457 272.428 56.9258C272.486 57.3359 272.516 57.5996 272.516 57.7168L294.137 34.9531C294.195 34.8945 294.342 34.8652 294.576 34.8652C294.869 34.8652 295.074 34.8652 295.191 34.8652C295.777 34.8652 296.334 34.9824 296.861 35.2168C297.389 35.4512 297.652 35.9492 297.652 36.7109C297.652 36.7695 297.623 36.8281 297.564 36.8867C297.564 36.8867 297.564 36.916 297.564 36.9746V37.2383C297.271 37.707 296.744 38.4688 295.982 39.5234C295.279 40.5781 294.488 41.7207 293.609 42.9512C292.789 44.1816 291.998 45.3535 291.236 46.4668C290.475 47.5215 289.947 48.2539 289.654 48.6641C288.658 49.8945 287.486 51.3594 286.139 53.0586C284.85 54.7578 283.443 56.4863 281.92 58.2441C280.455 59.9434 278.902 61.584 277.262 63.166C275.68 64.6895 274.098 65.9199 272.516 66.8574C272.223 67.0332 271.783 67.2676 271.197 67.5605C270.67 67.8535 270.377 68 270.318 68C269.674 68 269.059 67.8242 268.473 67.4727C267.945 67.0625 267.447 66.5645 266.979 65.9785C266.568 65.3926 266.217 64.8066 265.924 64.2207C265.689 63.5762 265.572 62.9902 265.572 62.4629ZM301.344 62.2871C301.871 58.9473 302.867 55.8711 304.332 53.0586C305.797 50.2461 307.467 47.8145 309.342 45.7637C311.275 43.6543 313.355 41.9258 315.582 40.5781C317.809 39.2305 319.977 38.3809 322.086 38.0293C324.195 37.6191 326.129 37.707 327.887 38.293C329.703 38.8789 331.168 40.0508 332.281 41.8086C332.281 43.1562 331.959 44.4453 331.314 45.6758C330.729 46.9062 330.055 48.1367 329.293 49.3672C328.59 50.5977 327.916 51.8574 327.271 53.1465C326.686 54.4355 326.393 55.8125 326.393 57.2773C326.393 58.8008 326.715 60.0312 327.359 60.9688C328.062 61.8477 329.264 62.2871 330.963 62.2871C332.369 62.2871 333.717 62.082 335.006 61.6719C336.354 61.2617 337.701 61.0566 339.049 61.0566C339.283 61.0566 339.664 61.0859 340.191 61.1445C340.777 61.1445 341.158 61.1445 341.334 61.1445C340.631 62.1406 339.723 62.9902 338.609 63.6934C337.496 64.3965 336.324 65.0117 335.094 65.5391C333.863 66.0078 332.574 66.3594 331.227 66.5938C329.938 66.8281 328.736 66.9453 327.623 66.9453C326.568 66.9453 325.631 66.7109 324.811 66.2422C323.99 65.7734 323.287 65.1582 322.701 64.3965C322.115 63.6348 321.646 62.7852 321.295 61.8477C321.002 60.8516 320.855 59.8848 320.855 58.9473C319.977 59.9434 319.01 60.998 317.955 62.1113C316.959 63.166 315.875 64.1328 314.703 65.0117C313.59 65.8906 312.359 66.623 311.012 67.209C309.723 67.7949 308.375 68.0879 306.969 68.0879C305.445 68.0879 304.127 67.5312 303.014 66.418C301.9 65.2461 301.344 63.8691 301.344 62.2871ZM307.145 59.5625C307.145 60.0312 307.145 60.5586 307.145 61.1445C307.203 61.7305 307.584 62.1113 308.287 62.2871C309.752 61.9355 311.422 61.1738 313.297 60.002C315.172 58.7715 316.93 57.3652 318.57 55.7832C320.211 54.1426 321.588 52.4141 322.701 50.5977C323.814 48.7227 324.371 46.9355 324.371 45.2363C324.371 45.1191 324.342 44.9434 324.283 44.709C324.283 44.416 324.283 44.2109 324.283 44.0938C322.291 44.0938 320.27 44.5039 318.219 45.3242C316.168 46.1445 314.322 47.2871 312.682 48.752C311.041 50.1582 309.693 51.7988 308.639 53.6738C307.643 55.5488 307.145 57.5117 307.145 59.5625Z" fill="white" fill-opacity="0.1"/>
</svg>
