<svg width="552" height="122" viewBox="0 0 552 122" fill="none" xmlns="http://www.w3.org/2000/svg">
<path d="M65.6211 66.957C65.6211 63.5586 66.0605 60.1309 66.9395 56.6738C67.877 53.1582 69.0195 49.7012 70.3672 46.3027C71.7734 42.9043 73.2676 39.623 74.8496 36.459C76.4316 33.2363 77.9258 30.2188 79.332 27.4062V26.2637C78.6875 26.9668 77.6621 28.0801 76.2559 29.6035C74.9082 31.0684 73.3555 32.7383 71.5977 34.6133C69.8984 36.4883 68.082 38.4805 66.1484 40.5898C64.2734 42.6406 62.457 44.6035 60.6992 46.4785C59 48.3535 57.4766 50.0527 56.1289 51.5762C54.7812 53.041 53.7852 54.125 53.1406 54.8281C52.4961 55.5312 51.8809 56.5859 51.2949 57.9922C50.709 59.3398 50.0645 60.7168 49.3613 62.123C48.6582 63.5293 47.8672 64.7598 46.9883 65.8145C46.168 66.8691 45.2305 67.3965 44.1758 67.3965C43.2969 67.3965 42.5938 67.3086 42.0664 67.1328C41.5977 66.957 41.2461 66.6934 41.0117 66.3418C40.7773 65.9316 40.6309 65.4336 40.5723 64.8477C40.5137 64.2617 40.4844 63.5586 40.4844 62.7383C40.4844 58.4023 41.0996 54.2129 42.3301 50.1699C43.6191 46.0684 44.9668 41.9082 46.373 37.6895V36.5469C46.2559 36.6641 46.0508 36.8691 45.7578 37.1621C45.4648 37.3965 45.2891 37.5723 45.2305 37.6895C43.8242 39.7988 42.3887 42.084 40.9238 44.5449C39.459 46.9473 37.9355 49.3496 36.3535 51.752C34.7715 54.0957 33.0723 56.3516 31.2559 58.5195C29.4395 60.6875 27.4766 62.6211 25.3672 64.3203C23.2578 65.9609 20.9434 67.2793 18.4238 68.2754C15.9629 69.2715 13.2383 69.7695 10.25 69.7695C9.60547 69.7695 8.72656 69.7402 7.61328 69.6816C6.55859 69.623 5.50391 69.4473 4.44922 69.1543C3.45312 68.8613 2.57422 68.3926 1.8125 67.748C1.10938 67.1035 0.757812 66.1953 0.757812 65.0234C0.757812 64.5547 1.02148 63.9688 1.54883 63.2656C2.13477 62.5039 2.63281 61.9766 3.04297 61.6836C3.86328 63.0312 4.53711 63.9395 5.06445 64.4082C5.65039 64.8184 6.4707 65.0234 7.52539 65.0234C9.2832 65.0234 11.1289 64.7598 13.0625 64.2324C15.0547 63.6465 16.959 62.8848 18.7754 61.9473C20.6504 61.0098 22.4082 59.9258 24.0488 58.6953C25.6895 57.4648 27.0664 56.1758 28.1797 54.8281C29.0586 53.6562 30.1133 52.1621 31.3438 50.3457C32.6328 48.4707 33.9805 46.4492 35.3867 44.2812C36.8516 42.0547 38.3457 39.7988 39.8691 37.5137C41.3926 35.2285 42.8574 33.0605 44.2637 31.0098C45.7285 28.9004 47.0762 27.0254 48.3066 25.3848C49.5371 23.7441 50.5918 22.5137 51.4707 21.6934C52.291 21.6934 52.9062 21.8398 53.3164 22.1328C53.7266 22.3672 54.0195 22.7188 54.1953 23.1875C54.3711 23.6562 54.459 24.2129 54.459 24.8574C54.459 25.502 54.459 26.1758 54.459 26.8789C54.459 29.3398 54.0781 31.7422 53.3164 34.0859C52.6133 36.4297 51.8223 38.7148 50.9434 40.9414C50.0645 43.1094 49.2441 45.248 48.4824 47.3574C47.7793 49.4668 47.4277 51.5469 47.4277 53.5977C47.4277 53.7148 47.4277 53.9199 47.4277 54.2129C47.4863 54.5059 47.5156 54.7109 47.5156 54.8281C53.0234 48.7344 57.7695 43.4609 61.7539 39.0078C65.7383 34.5547 69.1074 30.7754 71.8613 27.6699C74.6738 24.5059 76.959 21.957 78.7168 20.0234C80.4746 18.0312 81.8809 16.5078 82.9355 15.4531C83.9902 14.3398 84.7812 13.5781 85.3086 13.168C85.8945 12.7578 86.3633 12.5527 86.7148 12.5527C87.3008 12.5527 87.7402 12.7285 88.0332 13.0801C88.3262 13.4316 88.502 13.8418 88.5605 14.3105C88.6777 14.7793 88.707 15.2773 88.6484 15.8047C88.6484 16.332 88.6484 16.7715 88.6484 17.123C88.6484 19.584 88.1797 22.1035 87.2422 24.6816C86.3633 27.2012 85.2207 29.8086 83.8145 32.5039C82.4668 35.1406 80.9727 37.8359 79.332 40.5898C77.75 43.2852 76.2559 46.0684 74.8496 48.9395C73.502 51.8105 72.3594 54.7402 71.4219 57.7285C70.543 60.6582 70.1035 63.6758 70.1035 66.7812C70.1035 68.3633 70.1328 69.5352 70.1914 70.2969C70.25 71 70.4258 71.5859 70.7188 72.0547C71.0117 72.582 71.4805 73.1094 72.125 73.6367C72.7695 74.2227 73.6777 75.1309 74.8496 76.3613C73.502 77.123 72.1836 77.416 70.8945 77.2402C69.6641 77.123 68.5801 76.625 67.6426 75.7461C66.7637 74.8672 66.1191 73.666 65.709 72.1426C65.2988 70.6191 65.2695 68.8906 65.6211 66.957ZM84.2539 66.4297C83.2578 64.2031 82.8184 62.0352 82.9355 59.9258C83.0527 57.7578 83.5215 55.7363 84.3418 53.8613C85.2207 51.9277 86.334 50.1992 87.6816 48.6758C89.0879 47.0938 90.582 45.7461 92.1641 44.6328C93.7461 43.4609 95.3281 42.582 96.9102 41.9961C98.5508 41.4102 99.9863 41.1758 101.217 41.293C102.447 41.3516 103.414 41.791 104.117 42.6113C104.82 43.4316 105.055 44.6914 104.82 46.3906C104.82 48.6758 104.088 50.668 102.623 52.3672C101.217 54.0664 99.6348 55.5898 97.877 56.9375C96.1777 58.2852 94.5957 59.5156 93.1309 60.6289C91.7246 61.6836 91.0215 62.6797 91.0215 63.6172C91.0215 64.1445 91.3145 64.5547 91.9004 64.8477C92.5449 65.1406 93.2773 65.375 94.0977 65.5508C94.918 65.668 95.7383 65.7559 96.5586 65.8145C97.3789 65.873 97.9648 65.9316 98.3164 65.9902C103.824 64.8184 107.955 64.1152 110.709 63.8809C113.463 63.5879 115.191 63.6172 115.895 63.9688C116.598 64.2617 116.451 64.7598 115.455 65.4629C114.518 66.1074 113.053 66.8105 111.061 67.5723C109.068 68.2754 106.754 68.9199 104.117 69.5059C101.48 70.0918 98.873 70.4434 96.2949 70.5605C93.7168 70.6191 91.3145 70.3555 89.0879 69.7695C86.9199 69.1836 85.3086 68.0703 84.2539 66.4297ZM99.6348 46.3906C98.4629 46.3906 97.3496 46.7129 96.2949 47.3574C95.2402 48.002 94.2734 48.8223 93.3945 49.8184C92.5742 50.7559 91.8711 51.8105 91.2852 52.9824C90.6992 54.0957 90.2598 55.1504 89.9668 56.1465C90.084 56.2051 90.1719 56.2344 90.2305 56.2344H90.4941C91.3145 56.2344 92.252 55.8828 93.3066 55.1797C94.3613 54.4766 95.3574 53.627 96.2949 52.6309C97.2324 51.5762 98.0234 50.4922 98.668 49.3789C99.3125 48.2656 99.6348 47.2695 99.6348 46.3906ZM81.6172 110.99C81.6172 108.529 82.0273 106.186 82.8477 103.959C83.668 101.732 84.7227 99.623 86.0117 97.6309C87.3008 95.6387 88.7656 93.7344 90.4062 91.918C92.0469 90.1602 93.6875 88.4902 95.3281 86.9082C95.9141 86.3223 96.8516 85.4434 98.1406 84.2715C99.4297 83.1582 100.895 81.8691 102.535 80.4043C104.176 78.998 105.904 77.5039 107.721 75.9219C109.537 74.3984 111.295 72.9336 112.994 71.5273C114.635 70.1211 116.1 68.8613 117.389 67.748C118.736 66.6348 119.732 65.8145 120.377 65.2871C120.553 64.7012 120.875 63.8223 121.344 62.6504C121.812 61.4785 122.34 60.1309 122.926 58.6074C123.57 57.084 124.215 55.502 124.859 53.8613C125.504 52.2207 126.119 50.668 126.705 49.2031C127.35 47.6797 127.906 46.332 128.375 45.1602C128.902 43.9883 129.283 43.1094 129.518 42.5234C129.811 41.8203 130.162 41.0879 130.572 40.3262C131.041 39.5059 131.539 38.7441 132.066 38.041C132.652 37.3379 133.297 36.752 134 36.2832C134.762 35.8145 135.582 35.5801 136.461 35.5801C136.461 37.4551 136.139 39.5352 135.494 41.8203C134.908 44.1055 134.176 46.3613 133.297 48.5879C132.418 50.8145 131.51 52.8945 130.572 54.8281C129.693 56.7617 128.961 58.3438 128.375 59.5742C128.492 59.5742 128.668 59.6035 128.902 59.6621C129.195 59.6621 129.4 59.6621 129.518 59.6621C131.041 59.6621 132.477 59.457 133.824 59.0469C135.23 58.6367 136.695 58.4316 138.219 58.4316C138.688 58.4316 139.186 58.4609 139.713 58.5195C140.299 58.5781 140.68 58.9297 140.855 59.5742C140.211 60.8633 139.215 61.7715 137.867 62.2988C136.52 62.8262 135.055 63.2656 133.473 63.6172C131.949 63.9688 130.484 64.4082 129.078 64.9355C127.73 65.4629 126.764 66.3418 126.178 67.5723C125.826 68.2754 125.27 69.3887 124.508 70.9121C123.805 72.377 122.984 74.0176 122.047 75.834C121.168 77.709 120.201 79.6719 119.146 81.7227C118.15 83.832 117.213 85.8242 116.334 87.6992C115.455 89.5742 114.664 91.2734 113.961 92.7969C113.258 94.3203 112.76 95.4336 112.467 96.1367C111.471 98.2461 110.416 100.736 109.303 103.607C108.131 106.479 106.754 109.203 105.172 111.781C103.531 114.418 101.598 116.645 99.3711 118.461C97.1445 120.277 94.4785 121.186 91.373 121.186C89.9082 121.186 88.5898 120.893 87.418 120.307C86.1875 119.779 85.1621 119.047 84.3418 118.109C83.4629 117.172 82.7891 116.088 82.3203 114.857C81.8516 113.627 81.6172 112.338 81.6172 110.99ZM86.0996 109.584C86.0996 110.463 86.1582 111.312 86.2754 112.133C86.334 112.953 86.5391 113.686 86.8906 114.33C87.1836 115.033 87.6523 115.59 88.2969 116C88.8828 116.41 89.7324 116.615 90.8457 116.615C93.0137 116.615 95.0645 115.824 96.998 114.242C98.9316 112.719 100.689 110.873 102.271 108.705C103.795 106.596 105.143 104.369 106.314 102.025C107.486 99.6816 108.395 97.7188 109.039 96.1367C109.449 95.1406 109.918 93.9395 110.445 92.5332C110.973 91.1855 111.529 89.75 112.115 88.2266C112.701 86.7031 113.287 85.1797 113.873 83.6562C114.459 82.1914 114.957 80.873 115.367 79.7012C115.836 78.5293 116.217 77.5625 116.51 76.8008C116.803 76.0391 116.949 75.6289 116.949 75.5703V73.2852C116.832 73.4023 116.598 73.5488 116.246 73.7246C115.895 73.959 115.543 74.1934 115.191 74.4277C114.84 74.6621 114.488 74.8672 114.137 75.043C113.844 75.2773 113.639 75.4531 113.521 75.5703C113.053 75.9805 112.32 76.6543 111.324 77.5918C110.27 78.5879 109.127 79.6719 107.896 80.8438C106.607 82.0156 105.26 83.2461 103.854 84.5352C102.447 85.8828 101.129 87.1426 99.8984 88.3145C98.6094 89.5449 97.4668 90.6289 96.4707 91.5664C95.416 92.5625 94.6543 93.2949 94.1855 93.7637C93.3652 95.1113 92.4863 96.3711 91.5488 97.543C90.6113 98.7148 89.7617 99.916 89 101.146C88.1797 102.377 87.5059 103.666 86.9785 105.014C86.3926 106.361 86.0996 107.885 86.0996 109.584ZM143.141 3.14844C143.141 2.73828 143.287 2.38672 143.58 2.09375C143.873 1.74219 144.225 1.44922 144.635 1.21484C145.104 0.921875 145.572 0.716797 146.041 0.599609C146.51 0.423828 146.891 0.335938 147.184 0.335938C148.062 0.335938 148.59 0.6875 148.766 1.39062C148.941 2.03516 149.029 2.67969 149.029 3.32422C149.029 4.4375 148.707 5.4043 148.062 6.22461C147.477 6.98633 146.598 7.36719 145.426 7.36719C144.898 7.36719 144.459 7.25 144.107 7.01562C143.814 6.72266 143.58 6.37109 143.404 5.96094C143.287 5.49219 143.199 5.02344 143.141 4.55469C143.141 4.08594 143.141 3.61719 143.141 3.14844ZM138.219 63.6172C138.219 63.3828 138.219 62.9141 138.219 62.2109C138.277 61.4492 138.307 60.9512 138.307 60.7168C140.182 56.4395 142.584 52.4844 145.514 48.8516C148.443 45.2188 151.754 41.9961 155.445 39.1836C155.562 39.1836 155.738 39.1543 155.973 39.0957C156.266 38.9785 156.471 38.9199 156.588 38.9199C158.17 38.9199 159.459 39.2715 160.455 39.9746C161.51 40.6191 162.33 41.498 162.916 42.6113C163.561 43.666 164 44.8672 164.234 46.2148C164.469 47.5039 164.586 48.7637 164.586 49.9941C164.586 52.2793 164.059 54.6816 163.004 57.2012C161.949 59.6621 160.514 61.9473 158.697 64.0566C156.939 66.1074 154.918 67.8066 152.633 69.1543C150.348 70.4434 147.975 71.0879 145.514 71.0879C143.053 71.0879 141.207 70.4434 139.977 69.1543C138.805 67.8066 138.219 65.9609 138.219 63.6172ZM145.074 62.5625C145.074 63.207 145.338 63.6465 145.865 63.8809C146.393 64.1152 146.92 64.2324 147.447 64.2324C148.912 64.2324 150.318 63.8516 151.666 63.0898C153.072 62.2695 154.303 61.2734 155.357 60.1016C156.471 58.8711 157.35 57.5234 157.994 56.0586C158.639 54.5938 158.961 53.1875 158.961 51.8398C158.961 51.1953 158.902 50.4922 158.785 49.7305C158.727 48.9102 158.551 48.207 158.258 47.6211C157.965 46.9766 157.496 46.4785 156.852 46.127C156.266 45.7754 155.416 45.7168 154.303 45.9512C153.482 46.127 152.545 46.8887 151.49 48.2363C150.436 49.584 149.41 51.166 148.414 52.9824C147.477 54.7402 146.686 56.5273 146.041 58.3438C145.396 60.1016 145.074 61.5078 145.074 62.5625ZM187.174 64.2324C187.174 62.4746 187.525 60.8633 188.229 59.3984C188.99 57.875 189.811 56.4395 190.689 55.0918C191.568 53.7441 192.359 52.3965 193.062 51.0488C193.824 49.7012 194.205 48.2656 194.205 46.7422C194.205 46.3906 194.176 45.9805 194.117 45.5117C194.117 44.9844 194.059 44.4863 193.941 44.0176C193.883 43.5488 193.707 43.168 193.414 42.875C193.18 42.5234 192.857 42.3477 192.447 42.3477C192.389 42.3477 192.271 42.377 192.096 42.4355C191.979 42.4355 191.92 42.4648 191.92 42.5234C191.1 43.6367 190.104 44.8965 188.932 46.3027C187.818 47.6504 186.617 48.998 185.328 50.3457C184.039 51.6934 182.779 52.9824 181.549 54.2129C180.318 55.4434 179.205 56.4688 178.209 57.2891C177.506 57.9336 176.539 58.8125 175.309 59.9258C174.137 61.0391 172.936 62.1523 171.705 63.2656C170.533 64.3203 169.479 65.2578 168.541 66.0781C167.662 66.8984 167.164 67.3086 167.047 67.3086L163.004 63.8809C163.531 63.8809 164.059 63.7637 164.586 63.5293C165.055 63.2949 165.523 63.0312 165.992 62.7383C169.508 60.3945 172.672 57.6992 175.484 54.6523C178.355 51.6055 181.168 48.3242 183.922 44.8086C184.039 44.6328 184.332 44.1348 184.801 43.3145C185.328 42.4355 185.885 41.4688 186.471 40.4141C187.057 39.3008 187.643 38.2168 188.229 37.1621C188.814 36.0488 189.254 35.1699 189.547 34.5254C189.898 33.7637 190.104 33.1484 190.162 32.6797C190.279 32.2109 190.367 31.8594 190.426 31.625C190.543 31.332 190.719 31.127 190.953 31.0098C191.188 30.8926 191.686 30.834 192.447 30.834C192.564 30.834 192.828 30.8633 193.238 30.9219C193.707 30.9805 194 31.0391 194.117 31.0977C194.879 32.6797 195.553 34.0859 196.139 35.3164C196.725 36.5469 197.223 37.7188 197.633 38.832C198.043 39.8867 198.336 40.9707 198.512 42.084C198.746 43.1973 198.863 44.4277 198.863 45.7754C198.102 47.709 197.252 49.7012 196.314 51.752C195.377 53.7441 194.586 55.6484 193.941 57.4648C193.297 59.2812 192.887 60.9219 192.711 62.3867C192.594 63.8516 192.916 65.0234 193.678 65.9023C194.498 66.7227 195.846 67.1621 197.721 67.2207C199.654 67.2793 202.379 66.7812 205.895 65.7266C206.832 66.1953 206.92 66.7812 206.158 67.4844C205.396 68.1289 204.225 68.7441 202.643 69.3301C201.119 69.916 199.42 70.4141 197.545 70.8242C195.729 71.1758 194.205 71.2637 192.975 71.0879C191.861 71.0879 190.924 70.9121 190.162 70.5605C189.459 70.1504 188.873 69.623 188.404 68.9785C187.994 68.334 187.672 67.6016 187.438 66.7812C187.262 65.9609 187.174 65.1113 187.174 64.2324ZM202.555 65.2871C203.082 61.9473 204.078 58.8711 205.543 56.0586C207.008 53.2461 208.678 50.8145 210.553 48.7637C212.486 46.6543 214.566 44.9258 216.793 43.5781C219.02 42.2305 221.188 41.3809 223.297 41.0293C225.406 40.6191 227.34 40.707 229.098 41.293C230.914 41.8789 232.379 43.0508 233.492 44.8086C233.492 46.1562 233.17 47.4453 232.525 48.6758C231.939 49.9062 231.266 51.1367 230.504 52.3672C229.801 53.5977 229.127 54.8574 228.482 56.1465C227.896 57.4355 227.604 58.8125 227.604 60.2773C227.604 61.8008 227.926 63.0312 228.57 63.9688C229.273 64.8477 230.475 65.2871 232.174 65.2871C233.58 65.2871 234.928 65.082 236.217 64.6719C237.564 64.2617 238.912 64.0566 240.26 64.0566C240.494 64.0566 240.875 64.0859 241.402 64.1445C241.988 64.1445 242.369 64.1445 242.545 64.1445C241.842 65.1406 240.934 65.9902 239.82 66.6934C238.707 67.3965 237.535 68.0117 236.305 68.5391C235.074 69.0078 233.785 69.3594 232.438 69.5938C231.148 69.8281 229.947 69.9453 228.834 69.9453C227.779 69.9453 226.842 69.7109 226.021 69.2422C225.201 68.7734 224.498 68.1582 223.912 67.3965C223.326 66.6348 222.857 65.7852 222.506 64.8477C222.213 63.8516 222.066 62.8848 222.066 61.9473C221.188 62.9434 220.221 63.998 219.166 65.1113C218.17 66.166 217.086 67.1328 215.914 68.0117C214.801 68.8906 213.57 69.623 212.223 70.209C210.934 70.7949 209.586 71.0879 208.18 71.0879C206.656 71.0879 205.338 70.5312 204.225 69.418C203.111 68.2461 202.555 66.8691 202.555 65.2871ZM208.355 62.5625C208.355 63.0312 208.355 63.5586 208.355 64.1445C208.414 64.7305 208.795 65.1113 209.498 65.2871C210.963 64.9355 212.633 64.1738 214.508 63.002C216.383 61.7715 218.141 60.3652 219.781 58.7832C221.422 57.1426 222.799 55.4141 223.912 53.5977C225.025 51.7227 225.582 49.9355 225.582 48.2363C225.582 48.1191 225.553 47.9434 225.494 47.709C225.494 47.416 225.494 47.2109 225.494 47.0938C223.502 47.0938 221.48 47.5039 219.43 48.3242C217.379 49.1445 215.533 50.2871 213.893 51.752C212.252 53.1582 210.904 54.7988 209.85 56.6738C208.854 58.5488 208.355 60.5117 208.355 62.5625ZM306.178 39.1836C304.83 39.3594 303.277 40.209 301.52 41.7324C299.762 43.1973 298.062 45.0137 296.422 47.1816C294.84 49.291 293.492 51.6055 292.379 54.125C291.266 56.5859 290.709 58.8711 290.709 60.9805C290.709 62.6797 291.148 63.8809 292.027 64.584C292.906 65.2285 294.166 65.5508 295.807 65.5508C297.564 65.5508 299.264 65.3457 300.904 64.9355C302.604 64.4668 304.273 63.998 305.914 63.5293C307.613 63.002 309.283 62.5332 310.924 62.123C312.623 61.6543 314.352 61.4199 316.109 61.4199C316.109 62.2402 315.992 62.9434 315.758 63.5293C315.523 64.0566 315.172 64.6426 314.703 65.2871C311.656 66.752 308.521 68.0996 305.299 69.3301C302.076 70.502 298.707 71.0879 295.191 71.0879C294.137 71.0879 293.023 70.9121 291.852 70.5605C290.68 70.1504 289.596 69.5938 288.6 68.8906C287.604 68.1875 286.754 67.3379 286.051 66.3418C285.406 65.3457 285.084 64.2324 285.084 63.002C285.084 60.3652 285.465 57.8164 286.227 55.3555C286.988 52.8359 288.043 50.4629 289.391 48.2363C290.738 46.0098 292.35 43.959 294.225 42.084C296.158 40.209 298.238 38.5684 300.465 37.1621V37.0742C301.344 36.5469 302.34 36.0488 303.453 35.5801C304.625 35.0527 305.709 34.7598 306.705 34.7012C307.701 34.584 308.521 34.8184 309.166 35.4043C309.869 35.9316 310.221 36.957 310.221 38.4805C310.221 39.1836 310.162 40.1211 310.045 41.293C309.928 42.4062 309.605 43.1973 309.078 43.666C308.609 43.959 307.994 44.2227 307.232 44.457C306.881 44.5742 306.529 44.6621 306.178 44.7207V39.1836ZM316.109 63.6172C316.109 63.3828 316.109 62.9141 316.109 62.2109C316.168 61.4492 316.197 60.9512 316.197 60.7168C318.072 56.4395 320.475 52.4844 323.404 48.8516C326.334 45.2188 329.645 41.9961 333.336 39.1836C333.453 39.1836 333.629 39.1543 333.863 39.0957C334.156 38.9785 334.361 38.9199 334.479 38.9199C336.061 38.9199 337.35 39.2715 338.346 39.9746C339.4 40.6191 340.221 41.498 340.807 42.6113C341.451 43.666 341.891 44.8672 342.125 46.2148C342.359 47.5039 342.477 48.7637 342.477 49.9941C342.477 52.2793 341.949 54.6816 340.895 57.2012C339.84 59.6621 338.404 61.9473 336.588 64.0566C334.83 66.1074 332.809 67.8066 330.523 69.1543C328.238 70.4434 325.865 71.0879 323.404 71.0879C320.943 71.0879 319.098 70.4434 317.867 69.1543C316.695 67.8066 316.109 65.9609 316.109 63.6172ZM322.965 62.5625C322.965 63.207 323.229 63.6465 323.756 63.8809C324.283 64.1152 324.811 64.2324 325.338 64.2324C326.803 64.2324 328.209 63.8516 329.557 63.0898C330.963 62.2695 332.193 61.2734 333.248 60.1016C334.361 58.8711 335.24 57.5234 335.885 56.0586C336.529 54.5938 336.852 53.1875 336.852 51.8398C336.852 51.1953 336.793 50.4922 336.676 49.7305C336.617 48.9102 336.441 48.207 336.148 47.6211C335.855 46.9766 335.387 46.4785 334.742 46.127C334.156 45.7754 333.307 45.7168 332.193 45.9512C331.373 46.127 330.436 46.8887 329.381 48.2363C328.326 49.584 327.301 51.166 326.305 52.9824C325.367 54.7402 324.576 56.5273 323.932 58.3438C323.287 60.1016 322.965 61.5078 322.965 62.5625ZM346.871 67.0449C346.871 66.5176 346.871 66.1074 346.871 65.8145C346.871 65.5215 346.9 65.2578 346.959 65.0234C347.076 64.7305 347.223 64.4375 347.398 64.1445C347.574 63.8516 347.809 63.4707 348.102 63.002C348.57 62.1816 349.449 60.7461 350.738 58.6953C352.027 56.6445 353.404 54.4766 354.869 52.1914C356.334 49.9062 357.711 47.7383 359 45.6875C360.348 43.6367 361.285 42.2012 361.812 41.3809C361.871 41.3223 362.018 41.293 362.252 41.293C362.545 41.293 362.75 41.293 362.867 41.293C362.984 41.293 363.189 41.293 363.482 41.293C363.775 41.293 363.951 41.3223 364.01 41.3809C364.068 41.4395 364.186 41.5859 364.361 41.8203C364.596 42.0547 364.83 42.3184 365.064 42.6113C365.357 42.8457 365.592 43.0801 365.768 43.3145C366.002 43.5488 366.178 43.666 366.295 43.666C366.822 43.666 367.379 43.4902 367.965 43.1387C368.551 42.7871 369.137 42.4062 369.723 41.9961C370.367 41.5273 371.012 41.1172 371.656 40.7656C372.301 40.4141 372.975 40.2383 373.678 40.2383C374.439 40.2383 375.143 40.4141 375.787 40.7656C376.432 41.1172 376.988 41.5566 377.457 42.084C377.926 42.6113 378.277 43.1973 378.512 43.8418C378.805 44.4863 378.951 45.1309 378.951 45.7754C378.951 47.123 378.746 48.4121 378.336 49.6426C377.984 50.873 377.574 52.1035 377.105 53.334C376.637 54.5059 376.197 55.707 375.787 56.9375C375.436 58.1094 375.26 59.3398 375.26 60.6289C375.26 61.918 375.406 62.8555 375.699 63.4414C375.992 63.9688 376.812 64.2324 378.16 64.2324C379.742 64.2324 381.236 63.998 382.643 63.5293C384.107 63.0605 385.602 62.8262 387.125 62.8262C387.125 64.2324 386.686 65.4043 385.807 66.3418C384.986 67.2793 383.932 68.041 382.643 68.627C381.412 69.1543 380.064 69.5352 378.6 69.7695C377.193 69.9453 375.904 70.0332 374.732 70.0332C372.506 70.0332 370.865 69.418 369.811 68.1875C368.814 66.8984 368.316 65.1992 368.316 63.0898C368.316 61.6836 368.551 60.3652 369.02 59.1348C369.547 57.9043 370.104 56.7031 370.689 55.5312C371.334 54.3594 371.92 53.1875 372.447 52.0156C372.975 50.8438 373.238 49.584 373.238 48.2363C373.238 47.8848 373.18 47.416 373.062 46.8301C372.945 46.2441 372.564 45.9512 371.92 45.9512C369.986 45.9512 368.229 46.5664 366.646 47.7969C365.123 49.0273 363.717 50.5801 362.428 52.4551C361.197 54.3301 360.055 56.3516 359 58.5195C358.004 60.6875 357.037 62.709 356.1 64.584C355.221 66.459 354.371 68.0117 353.551 69.2422C352.73 70.4727 351.881 71.0879 351.002 71.0879C349.771 71.0879 348.775 70.707 348.014 69.9453C347.252 69.1836 346.871 68.2168 346.871 67.0449ZM384.312 62.4746C384.312 60.7754 384.635 59.0762 385.279 57.377C385.924 55.6777 386.686 54.0078 387.564 52.3672C388.443 50.668 389.322 48.998 390.201 47.3574C391.139 45.7168 391.842 44.1055 392.311 42.5234C391.197 43.168 390.23 43.5488 389.41 43.666C388.648 43.7246 387.711 43.7539 386.598 43.7539C386.48 43.7539 386.1 43.7539 385.455 43.7539C384.869 43.6953 384.488 43.666 384.312 43.666C384.664 42.377 385.309 41.2344 386.246 40.2383C387.184 39.1836 388.238 38.3047 389.41 37.6016C390.641 36.8398 391.9 36.2246 393.189 35.7559C394.537 35.2285 395.738 34.8184 396.793 34.5254C398.551 31.7715 399.986 29.0176 401.1 26.2637C402.213 23.4512 403.326 20.7266 404.439 18.0898C405.611 15.3945 406.959 12.8457 408.482 10.4434C410.064 7.98242 412.174 5.72656 414.811 3.67578L415.25 7.01562L404.264 32.7676C404.908 32.5918 405.699 32.416 406.637 32.2402C407.574 32.0645 408.512 31.8887 409.449 31.7129C410.445 31.5371 411.383 31.3906 412.262 31.2734C413.199 31.0977 413.99 30.9219 414.635 30.7461C414.693 30.7461 414.869 30.7461 415.162 30.7461C415.455 30.6875 415.689 30.6582 415.865 30.6582C416.686 30.6582 417.359 30.8047 417.887 31.0977C418.414 31.3906 418.854 32.0352 419.205 33.0312C415.221 34.2031 411.617 35.4336 408.395 36.7227C405.172 38.0117 402.359 39.7109 399.957 41.8203C397.613 43.8711 395.68 46.5078 394.156 49.7305C392.691 52.8945 391.666 56.9668 391.08 61.9473C391.08 63.002 391.139 63.9688 391.256 64.8477C391.373 65.7266 392.105 66.2539 393.453 66.4297C394.801 66.4297 396.061 66.166 397.232 65.6387C398.404 65.1113 399.547 64.5547 400.66 63.9688C401.773 63.3242 402.887 62.7383 404 62.2109C405.172 61.6836 406.432 61.4199 407.779 61.4199C407.779 62.8262 407.164 64.1152 405.934 65.2871C404.703 66.459 403.209 67.4844 401.451 68.3633C399.752 69.2422 397.994 69.916 396.178 70.3848C394.361 70.8535 392.867 71.0879 391.695 71.0879C390.523 71.0879 389.469 70.8535 388.531 70.3848C387.594 69.916 386.803 69.3008 386.158 68.5391C385.572 67.7188 385.104 66.7812 384.752 65.7266C384.459 64.6719 384.312 63.5879 384.312 62.4746ZM407.428 65.2871C407.428 64.4668 407.516 63.7637 407.691 63.1777C407.867 62.5332 408.189 61.7129 408.658 60.7168C409.068 60.1309 409.801 59.0176 410.855 57.377C411.969 55.7363 413.111 54.0078 414.283 52.1914C415.514 50.375 416.656 48.6758 417.711 47.0938C418.824 45.4531 419.586 44.3105 419.996 43.666C420.523 42.9043 420.934 42.4941 421.227 42.4355C421.52 42.377 422.076 42.3477 422.896 42.3477C423.424 42.3477 423.98 42.377 424.566 42.4355C425.211 42.4941 425.621 42.9043 425.797 43.666C424.977 45.6582 423.863 47.5625 422.457 49.3789C421.109 51.1367 419.762 52.8945 418.414 54.6523C417.125 56.4102 415.982 58.2266 414.986 60.1016C413.99 61.918 413.492 63.8809 413.492 65.9902C413.727 65.9902 414.078 66.0195 414.547 66.0781C415.074 66.1367 415.631 66.1953 416.217 66.2539C416.803 66.3125 417.33 66.3711 417.799 66.4297C418.326 66.4883 418.707 66.4883 418.941 66.4297C419.293 66.3711 419.879 66.2539 420.699 66.0781C421.578 65.8438 422.486 65.6094 423.424 65.375C424.42 65.1406 425.357 64.9062 426.236 64.6719C427.115 64.4375 427.73 64.2617 428.082 64.1445C428.082 64.2617 428.082 64.4668 428.082 64.7598C428.141 64.9941 428.17 65.1699 428.17 65.2871C428.17 66.459 427.613 67.4258 426.5 68.1875C425.445 68.9492 424.186 69.5645 422.721 70.0332C421.314 70.4434 419.85 70.7363 418.326 70.9121C416.861 71.0293 415.719 71.0879 414.898 71.0879C414.02 71.0879 413.111 71 412.174 70.8242C411.295 70.5898 410.504 70.2383 409.801 69.7695C409.098 69.3008 408.512 68.7148 408.043 68.0117C407.633 67.25 407.428 66.3418 407.428 65.2871ZM433.004 13.7832C433.766 13.7832 434.469 13.8125 435.113 13.8711C435.758 13.9297 436.314 14.0762 436.783 14.3105C437.252 14.5449 437.633 14.8965 437.926 15.3652C438.219 15.834 438.365 16.4785 438.365 17.2988C438.365 17.6504 438.365 18.0312 438.365 18.4414C438.365 18.8516 438.307 19.2617 438.189 19.6719C438.131 20.0234 437.984 20.3457 437.75 20.6387C437.516 20.873 437.135 20.9902 436.607 20.9902C435.787 20.9902 435.113 20.6973 434.586 20.1113C434.117 19.5254 433.766 18.8516 433.531 18.0898C433.297 17.2695 433.15 16.4492 433.092 15.6289C433.033 14.8086 433.004 14.1934 433.004 13.7832ZM430.016 67.0449C430.016 66.5176 430.016 66.1074 430.016 65.8145C430.016 65.5215 430.045 65.2578 430.104 65.0234C430.221 64.7305 430.367 64.4375 430.543 64.1445C430.719 63.8516 430.953 63.4707 431.246 63.002C431.715 62.1816 432.594 60.7461 433.883 58.6953C435.172 56.6445 436.549 54.4766 438.014 52.1914C439.479 49.9062 440.855 47.7383 442.145 45.6875C443.492 43.6367 444.43 42.2012 444.957 41.3809C445.016 41.3223 445.162 41.293 445.396 41.293C445.689 41.293 445.895 41.293 446.012 41.293C446.129 41.293 446.334 41.293 446.627 41.293C446.92 41.293 447.096 41.3223 447.154 41.3809C447.213 41.4395 447.33 41.5859 447.506 41.8203C447.74 42.0547 447.975 42.3184 448.209 42.6113C448.502 42.8457 448.736 43.0801 448.912 43.3145C449.146 43.5488 449.322 43.666 449.439 43.666C449.967 43.666 450.523 43.4902 451.109 43.1387C451.695 42.7871 452.281 42.4062 452.867 41.9961C453.512 41.5273 454.156 41.1172 454.801 40.7656C455.445 40.4141 456.119 40.2383 456.822 40.2383C457.584 40.2383 458.287 40.4141 458.932 40.7656C459.576 41.1172 460.133 41.5566 460.602 42.084C461.07 42.6113 461.422 43.1973 461.656 43.8418C461.949 44.4863 462.096 45.1309 462.096 45.7754C462.096 47.123 461.891 48.4121 461.48 49.6426C461.129 50.873 460.719 52.1035 460.25 53.334C459.781 54.5059 459.342 55.707 458.932 56.9375C458.58 58.1094 458.404 59.3398 458.404 60.6289C458.404 61.918 458.551 62.8555 458.844 63.4414C459.137 63.9688 459.957 64.2324 461.305 64.2324C462.887 64.2324 464.381 63.998 465.787 63.5293C467.252 63.0605 468.746 62.8262 470.27 62.8262C470.27 64.2324 469.83 65.4043 468.951 66.3418C468.131 67.2793 467.076 68.041 465.787 68.627C464.557 69.1543 463.209 69.5352 461.744 69.7695C460.338 69.9453 459.049 70.0332 457.877 70.0332C455.65 70.0332 454.01 69.418 452.955 68.1875C451.959 66.8984 451.461 65.1992 451.461 63.0898C451.461 61.6836 451.695 60.3652 452.164 59.1348C452.691 57.9043 453.248 56.7031 453.834 55.5312C454.479 54.3594 455.064 53.1875 455.592 52.0156C456.119 50.8438 456.383 49.584 456.383 48.2363C456.383 47.8848 456.324 47.416 456.207 46.8301C456.09 46.2441 455.709 45.9512 455.064 45.9512C453.131 45.9512 451.373 46.5664 449.791 47.7969C448.268 49.0273 446.861 50.5801 445.572 52.4551C444.342 54.3301 443.199 56.3516 442.145 58.5195C441.148 60.6875 440.182 62.709 439.244 64.584C438.365 66.459 437.516 68.0117 436.695 69.2422C435.875 70.4727 435.025 71.0879 434.146 71.0879C432.916 71.0879 431.92 70.707 431.158 69.9453C430.396 69.1836 430.016 68.2168 430.016 67.0449ZM468.512 66.6055C468.512 65.7266 468.775 64.4961 469.303 62.9141C469.83 61.2734 470.504 59.5156 471.324 57.6406C472.203 55.7656 473.17 53.8613 474.225 51.9277C475.338 49.9941 476.451 48.2363 477.564 46.6543C478.678 45.0723 479.732 43.7832 480.729 42.7871C481.725 41.791 482.604 41.293 483.365 41.293C485.006 41.293 485.826 42.084 485.826 43.666C485.826 44.3691 485.68 44.9551 485.387 45.4238C485.152 45.8926 484.859 46.332 484.508 46.7422C484.156 47.1523 483.775 47.5625 483.365 47.9727C482.955 48.3242 482.604 48.7637 482.311 49.291C481.783 50.1699 481.139 51.3711 480.377 52.8945C479.615 54.418 478.854 55.9121 478.092 57.377C477.389 58.7832 476.773 60.043 476.246 61.1562C475.719 62.2695 475.455 62.8848 475.455 63.002V64.1445C477.74 63.7344 479.938 62.7676 482.047 61.2441C484.156 59.6621 486.148 57.8164 488.023 55.707C489.957 53.5977 491.773 51.4004 493.473 49.1152C495.23 46.7715 496.871 44.6328 498.395 42.6992C499.918 40.707 501.354 39.0664 502.701 37.7773C504.049 36.4883 505.309 35.8438 506.48 35.8438C506.48 38.0117 506.041 39.9746 505.162 41.7324C504.283 43.4902 503.316 45.2188 502.262 46.918C501.266 48.6172 500.328 50.375 499.449 52.1914C498.57 53.9492 498.131 55.9414 498.131 58.168C498.131 59.1055 498.688 59.9551 499.801 60.7168C500.973 61.4199 502.291 62.0352 503.756 62.5625C505.279 63.0312 506.744 63.4121 508.15 63.7051C509.557 63.998 510.523 64.1738 511.051 64.2324V66.5176C509.703 66.5762 508.033 66.6055 506.041 66.6055C504.049 66.5469 502.057 66.3125 500.064 65.9023C498.072 65.4922 496.256 64.8184 494.615 63.8809C493.033 62.8848 491.979 61.4492 491.451 59.5742C489.928 60.5703 488.463 61.7422 487.057 63.0898C485.65 64.4375 484.186 65.6973 482.662 66.8691C481.197 68.041 479.645 69.0371 478.004 69.8574C476.363 70.6777 474.576 71.0879 472.643 71.0879C471.471 71.0879 470.475 70.5898 469.654 69.5938C468.893 68.5977 468.512 67.6016 468.512 66.6055ZM511.227 65.2871C511.754 61.9473 512.75 58.8711 514.215 56.0586C515.68 53.2461 517.35 50.8145 519.225 48.7637C521.158 46.6543 523.238 44.9258 525.465 43.5781C527.691 42.2305 529.859 41.3809 531.969 41.0293C534.078 40.6191 536.012 40.707 537.77 41.293C539.586 41.8789 541.051 43.0508 542.164 44.8086C542.164 46.1562 541.842 47.4453 541.197 48.6758C540.611 49.9062 539.938 51.1367 539.176 52.3672C538.473 53.5977 537.799 54.8574 537.154 56.1465C536.568 57.4355 536.275 58.8125 536.275 60.2773C536.275 61.8008 536.598 63.0312 537.242 63.9688C537.945 64.8477 539.146 65.2871 540.846 65.2871C542.252 65.2871 543.6 65.082 544.889 64.6719C546.236 64.2617 547.584 64.0566 548.932 64.0566C549.166 64.0566 549.547 64.0859 550.074 64.1445C550.66 64.1445 551.041 64.1445 551.217 64.1445C550.514 65.1406 549.605 65.9902 548.492 66.6934C547.379 67.3965 546.207 68.0117 544.977 68.5391C543.746 69.0078 542.457 69.3594 541.109 69.5938C539.82 69.8281 538.619 69.9453 537.506 69.9453C536.451 69.9453 535.514 69.7109 534.693 69.2422C533.873 68.7734 533.17 68.1582 532.584 67.3965C531.998 66.6348 531.529 65.7852 531.178 64.8477C530.885 63.8516 530.738 62.8848 530.738 61.9473C529.859 62.9434 528.893 63.998 527.838 65.1113C526.842 66.166 525.758 67.1328 524.586 68.0117C523.473 68.8906 522.242 69.623 520.895 70.209C519.605 70.7949 518.258 71.0879 516.852 71.0879C515.328 71.0879 514.01 70.5312 512.896 69.418C511.783 68.2461 511.227 66.8691 511.227 65.2871ZM517.027 62.5625C517.027 63.0312 517.027 63.5586 517.027 64.1445C517.086 64.7305 517.467 65.1113 518.17 65.2871C519.635 64.9355 521.305 64.1738 523.18 63.002C525.055 61.7715 526.812 60.3652 528.453 58.7832C530.094 57.1426 531.471 55.4141 532.584 53.5977C533.697 51.7227 534.254 49.9355 534.254 48.2363C534.254 48.1191 534.225 47.9434 534.166 47.709C534.166 47.416 534.166 47.2109 534.166 47.0938C532.174 47.0938 530.152 47.5039 528.102 48.3242C526.051 49.1445 524.205 50.2871 522.564 51.752C520.924 53.1582 519.576 54.7988 518.521 56.6738C517.525 58.5488 517.027 60.5117 517.027 62.5625Z" fill="white" fill-opacity="0.1"/>
</svg>
