<svg width="735" height="50" viewBox="0 0 735 50" fill="none" xmlns="http://www.w3.org/2000/svg">
<path d="M506.868 14.4181L510.99 19.9354L517.876 17.452L513.537 23.3453L517.658 28.8626L510.855 26.9876L506.517 32.8808L506.651 25.8287L499.848 23.9537L506.734 21.4703L506.868 14.4181Z" fill="#D9D9D9"/>
<g filter="url(#filter0_d_430_260)">
<rect x="4" width="727" height="42" fill="url(#paint0_linear_430_260)"/>
</g>
<path d="M214.801 15.5586V22.2852H218.165C218.625 22.2852 219.059 22.1992 219.465 22.0273C219.872 21.8477 220.227 21.6055 220.532 21.3008C220.836 20.9961 221.075 20.6406 221.247 20.2344C221.426 19.8203 221.516 19.3828 221.516 18.9219C221.516 18.4609 221.426 18.0273 221.247 17.6211C221.075 17.207 220.836 16.8477 220.532 16.543C220.227 16.2383 219.872 16 219.465 15.8281C219.059 15.6484 218.625 15.5586 218.165 15.5586H214.801ZM214.801 29H211.438V12.1953H218.165C218.782 12.1953 219.375 12.2773 219.946 12.4414C220.516 12.5977 221.047 12.8242 221.54 13.1211C222.04 13.4102 222.493 13.7617 222.899 14.1758C223.313 14.582 223.665 15.0352 223.954 15.5352C224.25 16.0352 224.477 16.5703 224.633 17.1406C224.797 17.7109 224.879 18.3047 224.879 18.9219C224.879 19.8438 224.704 20.7148 224.352 21.5352C224 22.3477 223.52 23.0586 222.911 23.668C222.301 24.2773 221.586 24.7578 220.766 25.1094C219.954 25.4609 219.086 25.6367 218.165 25.6367H214.801V29ZM230.223 15.5586V22.2852H233.586C234.047 22.2852 234.481 22.1992 234.887 22.0273C235.293 21.8477 235.649 21.6055 235.954 21.3008C236.258 20.9961 236.497 20.6406 236.668 20.2344C236.848 19.8203 236.938 19.3828 236.938 18.9219C236.938 18.4609 236.848 18.0273 236.668 17.6211C236.497 17.207 236.258 16.8477 235.954 16.543C235.649 16.2383 235.293 16 234.887 15.8281C234.481 15.6484 234.047 15.5586 233.586 15.5586H230.223ZM230.223 29H226.86V12.1953H233.586C234.204 12.1953 234.797 12.2773 235.368 12.4414C235.938 12.5977 236.469 12.8242 236.961 13.1211C237.461 13.4102 237.915 13.7617 238.321 14.1758C238.735 14.582 239.086 15.0352 239.375 15.5352C239.672 16.0352 239.899 16.5703 240.055 17.1406C240.219 17.7109 240.301 18.3047 240.301 18.9219C240.301 19.5 240.227 20.0625 240.079 20.6094C239.938 21.1562 239.731 21.6758 239.457 22.168C239.192 22.6602 238.864 23.1133 238.473 23.5273C238.082 23.9414 237.645 24.3008 237.161 24.6055L239.024 29H235.45L233.985 25.6133L230.223 25.6367V29ZM258.981 20.668C258.981 21.4648 258.875 22.2344 258.665 22.9766C258.461 23.7109 258.172 24.4023 257.797 25.0508C257.422 25.6914 256.969 26.2773 256.438 26.8086C255.907 27.3398 255.321 27.7969 254.68 28.1797C254.04 28.5547 253.348 28.8437 252.606 29.0469C251.864 29.2578 251.094 29.3633 250.297 29.3633C249.5 29.3633 248.731 29.2578 247.989 29.0469C247.254 28.8437 246.563 28.5547 245.915 28.1797C245.274 27.7969 244.688 27.3398 244.157 26.8086C243.625 26.2773 243.168 25.6914 242.786 25.0508C242.411 24.4023 242.118 23.7109 241.907 22.9766C241.704 22.2344 241.602 21.4648 241.602 20.668C241.602 19.8711 241.704 19.1016 241.907 18.3594C242.118 17.6172 242.411 16.9258 242.786 16.2852C243.168 15.6445 243.625 15.0586 244.157 14.5273C244.688 13.9961 245.274 13.543 245.915 13.168C246.563 12.793 247.254 12.5039 247.989 12.3008C248.731 12.0898 249.5 11.9844 250.297 11.9844C251.094 11.9844 251.864 12.0898 252.606 12.3008C253.348 12.5039 254.04 12.793 254.68 13.168C255.321 13.543 255.907 13.9961 256.438 14.5273C256.969 15.0586 257.422 15.6445 257.797 16.2852C258.172 16.9258 258.461 17.6172 258.665 18.3594C258.875 19.1016 258.981 19.8711 258.981 20.668ZM255.641 20.668C255.641 19.9336 255.5 19.2422 255.219 18.5937C254.938 17.9375 254.555 17.3711 254.071 16.8945C253.594 16.4102 253.028 16.0273 252.372 15.7461C251.723 15.4648 251.032 15.3242 250.297 15.3242C249.555 15.3242 248.86 15.4648 248.211 15.7461C247.563 16.0273 246.997 16.4102 246.512 16.8945C246.028 17.3711 245.645 17.9375 245.364 18.5938C245.082 19.2422 244.942 19.9336 244.942 20.668C244.942 21.4023 245.082 22.0937 245.364 22.7422C245.645 23.3828 246.028 23.9453 246.512 24.4297C246.997 24.9141 247.563 25.2969 248.211 25.5781C248.86 25.8594 249.555 26 250.297 26C251.032 26 251.723 25.8594 252.372 25.5781C253.028 25.2969 253.594 24.9141 254.071 24.4297C254.555 23.9453 254.938 23.3828 255.219 22.7422C255.5 22.0937 255.641 21.4023 255.641 20.668ZM268.754 29H265.403V23.7383C264.661 23.5508 263.977 23.25 263.352 22.8359C262.735 22.4219 262.204 21.9297 261.758 21.3594C261.313 20.7812 260.965 20.1445 260.715 19.4492C260.473 18.7461 260.352 18.0078 260.352 17.2344V12.1953H263.715V17.2344C263.715 17.6953 263.801 18.1328 263.973 18.5469C264.153 18.9531 264.395 19.3086 264.7 19.6133C265.004 19.918 265.36 20.1602 265.766 20.3398C266.18 20.5117 266.618 20.5977 267.079 20.5977C267.54 20.5977 267.973 20.5117 268.379 20.3398C268.793 20.1602 269.153 19.918 269.457 19.6133C269.762 19.3086 270 18.9531 270.172 18.5469C270.352 18.1328 270.442 17.6953 270.442 17.2344V12.1953H273.793V17.2344C273.793 18.0078 273.668 18.7461 273.418 19.4492C273.176 20.1445 272.832 20.7812 272.387 21.3594C271.942 21.9297 271.411 22.4219 270.793 22.8359C270.176 23.25 269.497 23.5508 268.754 23.7383V29ZM287.598 29H276.079V12.1953H287.598V15.5586L279.442 15.5586V18.9219L284.961 18.9219V22.2852H279.442V25.6367H287.598V29ZM302.95 27.2773C302.168 27.9492 301.293 28.4648 300.325 28.8242C299.356 29.1836 298.352 29.3633 297.313 29.3633C296.516 29.3633 295.747 29.2578 295.004 29.0469C294.27 28.8437 293.579 28.5547 292.93 28.1797C292.29 27.7969 291.704 27.3398 291.172 26.8086C290.641 26.2773 290.184 25.6914 289.801 25.0508C289.426 24.4023 289.133 23.7109 288.922 22.9766C288.719 22.2344 288.618 21.4648 288.618 20.668C288.618 19.8711 288.719 19.1016 288.922 18.3594C289.133 17.6172 289.426 16.9258 289.801 16.2852C290.184 15.6367 290.641 15.0469 291.172 14.5156C291.704 13.9844 292.29 13.5312 292.93 13.1562C293.579 12.7734 294.27 12.4805 295.004 12.2773C295.747 12.0664 296.516 11.9609 297.313 11.9609C298.352 11.9609 299.356 12.1406 300.325 12.5C301.293 12.8516 302.168 13.3672 302.95 14.0469L301.168 16.9766C300.676 16.4453 300.094 16.0391 299.422 15.7578C298.75 15.4687 298.047 15.3242 297.313 15.3242C296.571 15.3242 295.875 15.4648 295.227 15.7461C294.579 16.0273 294.012 16.4102 293.528 16.8945C293.043 17.3711 292.661 17.9375 292.379 18.5937C292.098 19.2422 291.957 19.9336 291.957 20.668C291.957 21.4023 292.098 22.0937 292.379 22.7422C292.661 23.3828 293.043 23.9453 293.528 24.4297C294.012 24.9141 294.579 25.2969 295.227 25.5781C295.875 25.8594 296.571 26 297.313 26C298.047 26 298.75 25.8594 299.422 25.5781C300.094 25.2891 300.676 24.8789 301.168 24.3477L302.95 27.2773ZM311.961 29H308.61V15.5586H303.559V12.1953H317V15.5586H311.961V29ZM334.707 20.668C334.707 21.4648 334.602 22.2344 334.391 22.9766C334.188 23.7109 333.899 24.4023 333.524 25.0508C333.149 25.6914 332.696 26.2773 332.165 26.8086C331.633 27.3398 331.047 27.7969 330.407 28.1797C329.766 28.5547 329.075 28.8437 328.332 29.0469C327.59 29.2578 326.821 29.3633 326.024 29.3633C325.227 29.3633 324.457 29.2578 323.715 29.0469C322.981 28.8437 322.29 28.5547 321.641 28.1797C321 27.7969 320.415 27.3398 319.883 26.8086C319.352 26.2773 318.895 25.6914 318.512 25.0508C318.137 24.4023 317.844 23.7109 317.633 22.9766C317.43 22.2344 317.329 21.4648 317.329 20.668C317.329 19.8711 317.43 19.1016 317.633 18.3594C317.844 17.6172 318.137 16.9258 318.512 16.2852C318.895 15.6445 319.352 15.0586 319.883 14.5273C320.415 13.9961 321 13.543 321.641 13.168C322.29 12.793 322.981 12.5039 323.715 12.3008C324.457 12.0898 325.227 11.9844 326.024 11.9844C326.821 11.9844 327.59 12.0898 328.332 12.3008C329.075 12.5039 329.766 12.793 330.407 13.168C331.047 13.543 331.633 13.9961 332.165 14.5273C332.696 15.0586 333.149 15.6445 333.524 16.2852C333.899 16.9258 334.188 17.6172 334.391 18.3594C334.602 19.1016 334.707 19.8711 334.707 20.668ZM331.368 20.668C331.368 19.9336 331.227 19.2422 330.946 18.5937C330.665 17.9375 330.282 17.3711 329.797 16.8945C329.321 16.4102 328.754 16.0273 328.098 15.7461C327.45 15.4648 326.758 15.3242 326.024 15.3242C325.282 15.3242 324.586 15.4648 323.938 15.7461C323.29 16.0273 322.723 16.4102 322.239 16.8945C321.754 17.3711 321.372 17.9375 321.09 18.5937C320.809 19.2422 320.668 19.9336 320.668 20.668C320.668 21.4023 320.809 22.0937 321.09 22.7422C321.372 23.3828 321.754 23.9453 322.239 24.4297C322.723 24.9141 323.29 25.2969 323.938 25.5781C324.586 25.8594 325.282 26 326.024 26C326.758 26 327.45 25.8594 328.098 25.5781C328.754 25.2969 329.321 24.9141 329.797 24.4297C330.282 23.9453 330.665 23.3828 330.946 22.7422C331.227 22.0937 331.368 21.4023 331.368 20.668ZM335.938 17.2344C335.938 16.5391 336.071 15.8867 336.336 15.2773C336.602 14.668 336.961 14.1367 337.415 13.6836C337.875 13.2227 338.411 12.8594 339.02 12.5937C339.629 12.3281 340.282 12.1953 340.977 12.1953H348.688V15.5586L340.977 15.5586C340.743 15.5586 340.524 15.6016 340.321 15.6875C340.118 15.7734 339.938 15.8945 339.782 16.0508C339.633 16.1992 339.516 16.375 339.43 16.5781C339.344 16.7812 339.301 17 339.301 17.2344C339.301 17.4687 339.344 17.6914 339.43 17.9023C339.516 18.1055 339.633 18.2852 339.782 18.4414C339.938 18.5898 340.118 18.707 340.321 18.793C340.524 18.8789 340.743 18.9219 340.977 18.9219H344.34C345.036 18.9219 345.688 19.0547 346.297 19.3203C346.915 19.5781 347.45 19.9375 347.903 20.3984C348.364 20.8516 348.723 21.3867 348.981 22.0039C349.247 22.6133 349.379 23.2656 349.379 23.9609C349.379 24.6562 349.247 25.3086 348.981 25.918C348.723 26.5273 348.364 27.0625 347.903 27.5234C347.45 27.9766 346.915 28.3359 346.297 28.6016C345.688 28.8672 345.036 29 344.34 29H336.875V25.6367H344.34C344.575 25.6367 344.793 25.5937 344.997 25.5078C345.2 25.4219 345.375 25.3047 345.524 25.1562C345.68 25 345.801 24.8203 345.887 24.6172C345.973 24.4141 346.016 24.1953 346.016 23.9609C346.016 23.7266 345.973 23.5078 345.887 23.3047C345.801 23.1016 345.68 22.9258 345.524 22.7773C345.375 22.6211 345.2 22.5 344.997 22.4141C344.793 22.3281 344.575 22.2852 344.34 22.2852H340.977C340.282 22.2852 339.629 22.1523 339.02 21.8867C338.411 21.6211 337.875 21.2617 337.415 20.8086C336.961 20.3477 336.602 19.8125 336.336 19.2031C336.071 18.5859 335.938 17.9297 335.938 17.2344ZM361.684 15.5586V22.2852H365.047C365.508 22.2852 365.942 22.1992 366.348 22.0273C366.754 21.8477 367.11 21.6055 367.415 21.3008C367.719 20.9961 367.957 20.6406 368.129 20.2344C368.309 19.8203 368.399 19.3828 368.399 18.9219C368.399 18.4609 368.309 18.0273 368.129 17.6211C367.957 17.207 367.719 16.8477 367.415 16.543C367.11 16.2383 366.754 16 366.348 15.8281C365.942 15.6484 365.508 15.5586 365.047 15.5586H361.684ZM361.684 29H358.321V12.1953H365.047C365.665 12.1953 366.258 12.2773 366.829 12.4414C367.399 12.5977 367.93 12.8242 368.422 13.1211C368.922 13.4102 369.375 13.7617 369.782 14.1758C370.196 14.582 370.547 15.0352 370.836 15.5352C371.133 16.0352 371.36 16.5703 371.516 17.1406C371.68 17.7109 371.762 18.3047 371.762 18.9219C371.762 19.5 371.688 20.0625 371.54 20.6094C371.399 21.1562 371.192 21.6758 370.918 22.168C370.653 22.6602 370.325 23.1133 369.934 23.5273C369.543 23.9414 369.106 24.3008 368.622 24.6055L370.485 29H366.911L365.446 25.6133L361.684 25.6367V29ZM385.497 29H373.977V12.1953H385.497V15.5586H377.34V18.9219H382.86V22.2852H377.34V25.6367H385.497V29ZM400.848 27.2773C400.067 27.9492 399.192 28.4648 398.223 28.8242C397.254 29.1836 396.25 29.3633 395.211 29.3633C394.415 29.3633 393.645 29.2578 392.903 29.0469C392.168 28.8437 391.477 28.5547 390.829 28.1797C390.188 27.7969 389.602 27.3398 389.071 26.8086C388.54 26.2773 388.082 25.6914 387.7 25.0508C387.325 24.4023 387.032 23.7109 386.821 22.9766C386.618 22.2344 386.516 21.4648 386.516 20.668C386.516 19.8711 386.618 19.1016 386.821 18.3594C387.032 17.6172 387.325 16.9258 387.7 16.2852C388.082 15.6367 388.54 15.0469 389.071 14.5156C389.602 13.9844 390.188 13.5312 390.829 13.1562C391.477 12.7734 392.168 12.4805 392.903 12.2773C393.645 12.0664 394.415 11.9609 395.211 11.9609C396.25 11.9609 397.254 12.1406 398.223 12.5C399.192 12.8516 400.067 13.3672 400.848 14.0469L399.067 16.9766C398.575 16.4453 397.993 16.0391 397.321 15.7578C396.649 15.4687 395.946 15.3242 395.211 15.3242C394.469 15.3242 393.774 15.4648 393.125 15.7461C392.477 16.0273 391.911 16.4102 391.426 16.8945C390.942 17.3711 390.559 17.9375 390.278 18.5937C389.997 19.2422 389.856 19.9336 389.856 20.668C389.856 21.4023 389.997 22.0937 390.278 22.7422C390.559 23.3828 390.942 23.9453 391.426 24.4297C391.911 24.9141 392.477 25.2969 393.125 25.5781C393.774 25.8594 394.469 26 395.211 26C395.946 26 396.649 25.8594 397.321 25.5781C397.993 25.2891 398.575 24.8789 399.067 24.3477L400.848 27.2773ZM406.168 29H402.805V12.1953H406.168V29ZM420.817 29L409.297 29V12.1953L420.817 12.1953V15.5586H412.661V18.9219H418.18V22.2852H412.661V25.6367L420.817 25.6367V29ZM436.614 29H433.016L426.536 17.9375V29H423.172V12.1953H426.77L433.25 23.2695V12.1953H436.614V29ZM446.797 29H443.446V15.5586H438.395V12.1953H451.836V15.5586H446.797V29ZM465.137 29H453.618V12.1953H465.137V15.5586H456.981V18.9219H462.5V22.2852H456.981V25.6367H465.137V29ZM466.321 17.2344C466.321 16.5391 466.454 15.8867 466.719 15.2773C466.985 14.668 467.344 14.1367 467.797 13.6836C468.258 13.2227 468.793 12.8594 469.403 12.5937C470.012 12.3281 470.664 12.1953 471.36 12.1953L479.071 12.1953V15.5586H471.36C471.125 15.5586 470.907 15.6016 470.704 15.6875C470.5 15.7734 470.321 15.8945 470.164 16.0508C470.016 16.1992 469.899 16.375 469.813 16.5781C469.727 16.7812 469.684 17 469.684 17.2344C469.684 17.4687 469.727 17.6914 469.813 17.9023C469.899 18.1055 470.016 18.2852 470.164 18.4414C470.321 18.5898 470.5 18.707 470.704 18.793C470.907 18.8789 471.125 18.9219 471.36 18.9219H474.723C475.418 18.9219 476.071 19.0547 476.68 19.3203C477.297 19.5781 477.832 19.9375 478.286 20.3984C478.747 20.8516 479.106 21.3867 479.364 22.0039C479.629 22.6133 479.762 23.2656 479.762 23.9609C479.762 24.6562 479.629 25.3086 479.364 25.918C479.106 26.5273 478.747 27.0625 478.286 27.5234C477.832 27.9766 477.297 28.3359 476.68 28.6016C476.071 28.8672 475.418 29 474.723 29H467.258V25.6367H474.723C474.957 25.6367 475.176 25.5937 475.379 25.5078C475.582 25.4219 475.758 25.3047 475.907 25.1562C476.063 25 476.184 24.8203 476.27 24.6172C476.356 24.4141 476.399 24.1953 476.399 23.9609C476.399 23.7266 476.356 23.5078 476.27 23.3047C476.184 23.1016 476.063 22.9258 475.907 22.7773C475.758 22.6211 475.582 22.5 475.379 22.4141C475.176 22.3281 474.957 22.2852 474.723 22.2852H471.36C470.664 22.2852 470.012 22.1523 469.403 21.8867C468.793 21.6211 468.258 21.2617 467.797 20.8086C467.344 20.3477 466.985 19.8125 466.719 19.2031C466.454 18.5859 466.321 17.9297 466.321 17.2344Z" fill="white"/>
<path d="M168 11L170.245 17.2188H177.511L171.633 21.0623L173.878 27.2812L168 23.4377L162.122 27.2812L164.367 21.0623L158.489 17.2188H165.755L168 11Z" fill="#D9D9D9"/>
<path d="M537 12L539.245 18.2188H546.511L540.633 22.0623L542.878 28.2812L537 24.4377L531.122 28.2812L533.367 22.0623L527.489 18.2188H534.755L537 12Z" fill="#D9D9D9"/>
<defs>
<filter id="filter0_d_430_260" x="0" y="0" width="735" height="50" filterUnits="userSpaceOnUse" color-interpolation-filters="sRGB">
<feFlood flood-opacity="0" result="BackgroundImageFix"/>
<feColorMatrix in="SourceAlpha" type="matrix" values="0 0 0 0 0 0 0 0 0 0 0 0 0 0 0 0 0 0 127 0" result="hardAlpha"/>
<feOffset dy="4"/>
<feGaussianBlur stdDeviation="2"/>
<feComposite in2="hardAlpha" operator="out"/>
<feColorMatrix type="matrix" values="0 0 0 0 0 0 0 0 0 0 0 0 0 0 0 0 0 0 0.25 0"/>
<feBlend mode="normal" in2="BackgroundImageFix" result="effect1_dropShadow_430_260"/>
<feBlend mode="normal" in="SourceGraphic" in2="effect1_dropShadow_430_260" result="shape"/>
</filter>
<linearGradient id="paint0_linear_430_260" x1="4" y1="21" x2="731" y2="21" gradientUnits="userSpaceOnUse">
<stop stop-color="#D7873E"/>
<stop offset="1" stop-color="#FF1A2F"/>
</linearGradient>
</defs>
</svg>
