<svg width="1553" height="225" viewBox="0 0 1553 225" fill="none" xmlns="http://www.w3.org/2000/svg">
<path d="M63.0753 222L0.646307 3.81818H51.0369L87.152 155.416H88.9631L128.807 3.81818H171.953L211.69 155.736H213.608L249.723 3.81818H300.114L237.685 222H192.727L151.179 79.3508H149.474L108.033 222H63.0753ZM324.803 222V3.81818H471.82V41.8508H370.932V93.8395H464.256V131.872H370.932V183.967H472.246V222H324.803ZM508.494 222V3.81818H554.624V183.967H648.161V222H508.494ZM862.72 80.2031H816.058C815.206 74.1662 813.466 68.804 810.838 64.1165C808.21 59.3579 804.837 55.3097 800.717 51.9716C796.598 48.6335 791.839 46.0767 786.442 44.3011C781.115 42.5256 775.327 41.6378 769.077 41.6378C757.784 41.6378 747.947 44.4432 739.567 50.054C731.186 55.5937 724.688 63.6903 720.071 74.3438C715.455 84.9261 713.146 97.7812 713.146 112.909C713.146 128.463 715.455 141.531 720.071 152.114C724.759 162.696 731.293 170.686 739.673 176.084C748.054 181.482 757.749 184.18 768.757 184.18C774.936 184.18 780.653 183.364 785.909 181.73C791.236 180.097 795.959 177.717 800.078 174.592C804.197 171.396 807.607 167.526 810.305 162.98C813.075 158.435 814.993 153.25 816.058 147.426L862.72 147.639C861.513 157.653 858.494 167.312 853.665 176.616C848.906 185.849 842.479 194.124 834.382 201.439C826.357 208.683 816.768 214.436 805.618 218.697C794.538 222.888 782.003 224.983 768.011 224.983C748.551 224.983 731.151 220.58 715.81 211.773C700.54 202.966 688.466 190.217 679.588 173.527C670.781 156.837 666.378 136.631 666.378 112.909C666.378 89.1165 670.852 68.875 679.801 52.1847C688.75 35.4943 700.895 22.7812 716.236 14.0455C731.577 5.23863 748.835 0.835219 768.011 0.835219C780.653 0.835219 792.372 2.61079 803.168 6.16193C814.034 9.71306 823.658 14.8977 832.038 21.7159C840.419 28.4631 847.237 36.7372 852.493 46.5383C857.82 56.3395 861.229 67.5611 862.72 80.2031ZM1096.3 112.909C1096.3 136.702 1091.79 156.943 1082.77 173.634C1073.82 190.324 1061.6 203.072 1046.12 211.879C1030.71 220.615 1013.38 224.983 994.13 224.983C974.741 224.983 957.34 220.58 941.928 211.773C926.516 202.966 914.336 190.217 905.387 173.527C896.438 156.837 891.964 136.631 891.964 112.909C891.964 89.1165 896.438 68.875 905.387 52.1847C914.336 35.4943 926.516 22.7812 941.928 14.0455C957.34 5.23863 974.741 0.835219 994.13 0.835219C1013.38 0.835219 1030.71 5.23863 1046.12 14.0455C1061.6 22.7812 1073.82 35.4943 1082.77 52.1847C1091.79 68.875 1096.3 89.1165 1096.3 112.909ZM1049.53 112.909C1049.53 97.4972 1047.22 84.5 1042.6 73.9176C1038.06 63.3352 1031.63 55.3097 1023.32 49.8409C1015.01 44.3722 1005.28 41.6378 994.13 41.6378C982.979 41.6378 973.249 44.3722 964.94 49.8409C956.63 55.3097 950.167 63.3352 945.55 73.9176C941.005 84.5 938.732 97.4972 938.732 112.909C938.732 128.321 941.005 141.318 945.55 151.901C950.167 162.483 956.63 170.509 964.94 175.977C973.249 181.446 982.979 184.18 994.13 184.18C1005.28 184.18 1015.01 181.446 1023.32 175.977C1031.63 170.509 1038.06 162.483 1042.6 151.901C1047.22 141.318 1049.53 128.321 1049.53 112.909ZM1130.47 3.81818H1187.36L1247.44 150.409H1250L1310.08 3.81818H1366.97V222H1322.23V79.9901H1320.42L1263.95 220.935H1233.49L1177.02 79.4574H1175.21V222H1130.47V3.81818ZM1404.98 222V3.81818H1552V41.8508H1451.11V93.8395H1544.43V131.872H1451.11V183.967H1552.42V222H1404.98Z" fill="url(#paint0_linear_1_3)" fill-opacity="0.35"/>
<defs>
<linearGradient id="paint0_linear_1_3" x1="-5" y1="112.5" x2="1570" y2="112.5" gradientUnits="userSpaceOnUse">
<stop offset="0.41" stop-color="#2F0507"/>
<stop offset="0.74" stop-color="#AF0069"/>
<stop offset="1" stop-color="#950F77"/>
</linearGradient>
</defs>
</svg>
